<svg width="60" height="60" viewBox="0 0 60 60" fill="none" xmlns="http://www.w3.org/2000/svg">
<rect width="60" height="60" rx="4" fill="#7A66F4"/>
<path d="M21.0006 40.8823H38.9418C39.8241 39.2941 41.1182 38.2941 42.3535 37.0588C44.4124 34.9999 46.53 32.8823 46.53 29.5882C46.53 24.9411 43.3535 21.5294 38.7065 21.5294C35.883 21.5294 34.0006 22.3529 32.3535 23.5882L31.8241 18.5294H36.4124V15H31.7653V10.8823H28.2947V15H23.53V18.5294H28.2947L27.5888 23.5882C25.9418 22.3529 24.0594 21.5294 21.2359 21.5294C16.7653 21.5294 13.4712 24.7058 13.4712 29.5882C13.4712 32.8823 15.53 34.9999 17.5888 37.0588C18.8241 38.2941 20.1183 39.2941 21.0006 40.8823ZM15.883 47.9411V50.2941H44.1182V47.9411C44.1182 45.0588 41.4712 43.2352 37.0594 43.2352H22.883C18.53 43.2352 15.883 45.0588 15.883 47.9411ZM35.53 34.9411H33.2359V29.1764C33.2359 29.1764 35.2359 27.7647 36.7653 27.7647C38.3535 27.7647 39.3535 28.647 39.3535 30C39.3535 31.8823 36.7065 33.5882 35.53 34.9411ZM26.7653 29.1764V34.9411H24.4712C23.2947 33.5882 20.6477 31.8823 20.6477 30C20.6477 28.647 21.6477 27.7647 23.2359 27.7647C24.7653 27.7647 26.7653 29.1764 26.7653 29.1764Z" fill="#5E53D9"/>
<path d="M21.0006 39.1176H38.9418C39.8241 37.5294 41.1182 36.5294 42.3535 35.2941C44.4124 33.2352 46.53 31.1176 46.53 27.8235C46.53 23.1764 43.3535 19.7647 38.7065 19.7647C35.883 19.7647 34.0006 20.5882 32.3535 21.8235L31.8241 16.7647H36.4124V13.2352H31.7653V9.11759H28.2947V13.2352H23.53V16.7647H28.2947L27.5888 21.8235C25.9418 20.5882 24.0594 19.7647 21.2359 19.7647C16.7653 19.7647 13.4712 22.9411 13.4712 27.8235C13.4712 31.1176 15.53 33.2352 17.5888 35.2941C18.8241 36.5294 20.1183 37.5294 21.0006 39.1176ZM15.883 46.1764V48.5294H44.1182V46.1764C44.1182 43.2941 41.4712 41.4705 37.0594 41.4705H22.883C18.53 41.4705 15.883 43.2941 15.883 46.1764ZM35.53 33.1764H33.2359V27.4117C33.2359 27.4117 35.2359 25.9999 36.7653 25.9999C38.3535 25.9999 39.3535 26.8823 39.3535 28.2352C39.3535 30.1176 36.7065 31.8235 35.53 33.1764ZM26.7653 27.4117V33.1764H24.4712C23.2947 31.8235 20.6477 30.1176 20.6477 28.2352C20.6477 26.8823 21.6477 25.9999 23.2359 25.9999C24.7653 25.9999 26.7653 27.4117 26.7653 27.4117Z" fill="white"/>
<path fill-rule="evenodd" clip-rule="evenodd" d="M0 4V37.5L1.23956 7.75058C1.38677 4.21741 4.21742 1.38677 7.75058 1.23956L37.5 0H4C1.79086 0 0 1.79086 0 4ZM60 56V45L59.1007 53.0933C58.7495 56.2542 56.2542 58.7495 53.0933 59.1007L45 60H56C58.2091 60 60 58.2091 60 56Z" fill="#9881F2"/>
</svg>
