<svg width="60" height="60" viewBox="0 0 60 60" fill="none" xmlns="http://www.w3.org/2000/svg">
<rect width="60" height="60" rx="4" fill="#FA742C"/>
<path d="M19.5292 32.2349C20.7056 31.1173 20.7644 29.3526 23.2939 29.2937C25.235 29.2937 26.9409 27.529 27.8821 26.529L28.8821 25.4114C29.1762 25.8231 29.9409 26.8231 29.9409 28.0584C29.9409 29.6467 28.4703 31.1761 27.0586 32.3526C25.235 33.8231 21.9409 36.4702 21.588 39.9996H39.3527C39.7056 38.4702 41.4703 33.3526 41.4703 30.529C41.4703 20.0584 34.3527 15.4114 27.9997 14.9996L24.7644 11.7643C24.2939 11.7643 23.8233 12.2349 23.7056 12.7643L23.3527 14.529C22.9997 15.4702 22.3527 16.0584 21.4115 16.882C20.4703 17.6467 20.1762 18.4114 19.9997 18.9408C19.235 20.882 19.235 21.9408 17.8821 23.8231L14.9409 27.9408C14.235 28.9408 14.2939 30.1173 15.0586 30.8231C16.1762 31.7643 19.235 32.4702 19.5292 32.2349ZM15.8821 47.0584V49.4114H44.1174V47.0584C44.1174 44.1761 41.4703 42.3526 37.0586 42.3526H22.8821C18.5292 42.3526 15.8821 44.1761 15.8821 47.0584Z" fill="#DC501D"/>
<path d="M19.5292 30.4703C20.7056 29.3526 20.7644 27.5879 23.2939 27.5291C25.235 27.5291 26.9409 25.7644 27.8821 24.7644L28.8821 23.6467C29.1762 24.0585 29.9409 25.0585 29.9409 26.2938C29.9409 27.882 28.4703 29.4114 27.0586 30.5879C25.235 32.0585 21.9409 34.7056 21.588 38.235H39.3527C39.7056 36.7056 41.4703 31.5879 41.4703 28.7644C41.4703 18.2938 34.3527 13.6467 27.9997 13.235L24.7644 9.99967C24.2939 9.99967 23.8233 10.4703 23.7056 10.9997L23.3527 12.7644C22.9997 13.7056 22.3527 14.2938 21.4115 15.1173C20.4703 15.882 20.1762 16.6467 19.9997 17.1761C19.235 19.1173 19.235 20.1761 17.8821 22.0585L14.9409 26.1761C14.235 27.1761 14.2939 28.3526 15.0586 29.0585C16.1762 29.9997 19.235 30.7056 19.5292 30.4703ZM15.8821 45.2938V47.6467H44.1174V45.2938C44.1174 42.4114 41.4703 40.5879 37.0586 40.5879H22.8821C18.5292 40.5879 15.8821 42.4114 15.8821 45.2938Z" fill="white"/>
<path fill-rule="evenodd" clip-rule="evenodd" d="M0 4V37.5L1.23956 7.75058C1.38677 4.21741 4.21742 1.38677 7.75058 1.23956L37.5 0H4C1.79086 0 0 1.79086 0 4ZM60 56V45L59.1007 53.0933C58.7495 56.2542 56.2542 58.7495 53.0933 59.1007L45 60H56C58.2091 60 60 58.2091 60 56Z" fill="#FFA459"/>
</svg>
