<svg width="60" height="60" viewBox="0 0 60 60" fill="none" xmlns="http://www.w3.org/2000/svg">
<rect width="60" height="60" rx="4" fill="#81B64C"/>
<path d="M18.2354 49.4114H41.7648C41.7648 41.2349 33.6471 42.4702 33.0001 34.3526L32.8824 32.9408H36.1765C36.5883 32.2349 36.7648 31.4114 36.7648 30.5878L32.8824 28.1761C35.0001 26.7643 35.6471 25.2937 35.6471 23.2937C35.6471 20.1761 33.1177 17.6467 30.0001 17.6467C26.8824 17.6467 24.353 20.1761 24.353 23.2937C24.353 25.1761 25.1765 26.9408 27.1177 28.2349L23.2354 30.5878C23.2354 31.4114 23.4118 32.2349 23.8236 32.9408H27.1177L27.0001 34.3526C26.353 42.4702 18.2354 41.2349 18.2354 49.4114Z" fill="#5D9948"/>
<path d="M18.2354 47.6467H41.7648C41.7648 39.4703 33.6471 40.7056 33.0001 32.5879L32.8824 31.1761H36.1765C36.5883 30.4703 36.7648 29.6467 36.7648 28.8232L32.8824 26.4114C35.0001 24.9997 35.6471 23.5291 35.6471 21.5291C35.6471 18.4114 33.1177 15.882 30.0001 15.882C26.8824 15.882 24.353 18.4114 24.353 21.5291C24.353 23.4114 25.1765 25.1761 27.1177 26.4703L23.2354 28.8232C23.2354 29.6467 23.4118 30.4703 23.8236 31.1761H27.1177L27.0001 32.5879C26.353 40.7056 18.2354 39.4703 18.2354 47.6467Z" fill="white"/>
<path fill-rule="evenodd" clip-rule="evenodd" d="M0 4V37.5L1.23956 7.75058C1.38677 4.21741 4.21742 1.38677 7.75058 1.23956L37.5 0H4C1.79086 0 0 1.79086 0 4ZM60 56V45L59.1007 53.0933C58.7495 56.2542 56.2542 58.7495 53.0933 59.1007L45 60H56C58.2091 60 60 58.2091 60 56Z" fill="#B2E068"/>
</svg>
