<svg width="60" height="60" viewBox="0 0 60 60" fill="none" xmlns="http://www.w3.org/2000/svg">
<rect y="-0.00488281" width="60" height="60" rx="4" fill="#81B64C"/>
<path d="M11.7056 31.7595L23.0003 32.7801C22.7333 32.0342 22.5403 31.1036 22.4374 29.7648L11.7056 30.7007C7.9409 31.0536 7.9409 31.4654 11.7056 31.7595ZM13.7644 23.2889L24.0215 24.2571C23.6897 23.2483 23.5309 22.2101 23.5291 21.1907L13.7644 22.1124C9.99973 22.4654 9.99973 22.936 13.7644 23.2889ZM16.0586 40.4066L20.9697 40.9236C22.0233 39.983 23.1174 39.1666 24.0586 38.2701L16.058 39.1124C12.3521 39.5242 12.3521 39.9948 16.058 40.4066H16.0586ZM20.1762 50.6418H46.8233C46.8233 41.3477 37.588 42.8183 36.8821 33.6418L36.7644 32.0536H40.4703C40.9409 31.1713 41.1174 30.1713 41.1174 29.2301L36.7644 26.6418C39.1762 25.1124 39.9409 23.3477 39.9409 21.1713C39.9409 17.583 36.9997 14.7595 33.5291 14.7595C29.9997 14.7595 27.0586 17.583 27.0586 21.1713C27.0586 23.2301 27.9997 25.2889 30.235 26.7007L25.8821 29.2301C25.8821 30.1713 26.0585 31.1713 26.5291 32.0536H30.235L30.1174 33.6418C29.4115 42.8183 20.1762 41.3477 20.1762 50.6418Z" fill="#5D9948"/>
<path d="M11.7056 29.7595L23.0003 30.7801C22.7333 30.0342 22.5403 29.1036 22.4374 27.7648L11.7056 28.7007C7.9409 29.0536 7.9409 29.4654 11.7056 29.7595ZM13.7644 21.2889L24.0215 22.2571C23.6897 21.2483 23.5309 20.2101 23.5291 19.1907L13.7644 20.1124C9.99973 20.4654 9.99973 20.936 13.7644 21.2889ZM16.0586 38.4066L20.9697 38.9236C22.0233 37.983 23.1174 37.1666 24.0586 36.2701L16.058 37.1124C12.3521 37.5242 12.3521 37.9948 16.058 38.4066H16.0586ZM20.1762 48.6418H46.8233C46.8233 39.3477 37.588 40.8183 36.8821 31.6418L36.7644 30.0536H40.4703C40.9409 29.1713 41.1174 28.1713 41.1174 27.2301L36.7644 24.6418C39.1762 23.1124 39.9409 21.3477 39.9409 19.1713C39.9409 15.583 36.9997 12.7595 33.5291 12.7595C29.9997 12.7595 27.0586 15.583 27.0586 19.1713C27.0586 21.2301 27.9997 23.2889 30.235 24.7007L25.8821 27.2301C25.8821 28.1713 26.0585 29.1713 26.5291 30.0536H30.235L30.1174 31.6418C29.4115 40.8183 20.1762 39.3477 20.1762 48.6418Z" fill="#262421"/>
<path fill-rule="evenodd" clip-rule="evenodd" d="M0 3.99512V37.4951L1.23956 7.74569C1.38677 4.21253 4.21742 1.38189 7.75058 1.23468L37.5 -0.00488281H4C1.79086 -0.00488281 0 1.78598 0 3.99512ZM60 55.9951V44.9951L59.1007 53.0884C58.7495 56.2493 56.2542 58.7446 53.0933 59.0959L45 59.9951H56C58.2091 59.9951 60 58.2043 60 55.9951Z" fill="#B2E068"/>
</svg>
