<svg width="60" height="60" viewBox="0 0 60 60" fill="none" xmlns="http://www.w3.org/2000/svg">
<rect y="-0.00488281" width="60" height="60" rx="4" fill="#81B64C"/>
<path d="M48.2942 30.7007L37.6318 29.7707C37.58 30.6654 37.3853 31.5871 36.9136 32.7877L48.2942 31.7595C52.0589 31.4654 52.0589 31.0536 48.2942 30.7007ZM46.2353 22.1124L36.4706 21.1907C36.4689 22.2107 36.31 23.2483 35.9783 24.2571L46.2353 23.2889C50 22.936 50 22.4654 46.2353 22.1124ZM43.9412 39.1124L35.9406 38.2701C36.8824 39.1666 37.9759 39.983 39.0295 40.9236L43.9412 40.4066C47.6471 39.9948 47.6471 39.5242 43.9412 39.1124ZM13.1765 50.6418H39.8236C39.8236 41.3477 30.5883 42.8183 29.8824 33.6418L29.7647 32.0536H33.4706C33.9412 31.1713 34.1177 30.1713 34.1177 29.2301L29.7647 26.7007C32 25.2889 32.9412 23.2301 32.9412 21.1713C32.9412 17.583 30 14.7595 26.4706 14.7595C23 14.7595 20.0589 17.583 20.0589 21.1713C20.0589 23.3477 20.8236 25.1124 23.2353 26.6418L18.8824 29.2301C18.8824 30.1713 19.0589 31.1713 19.5295 32.0536H23.2353L23.1177 33.6418C22.4118 42.8183 13.1765 41.3477 13.1765 50.6418Z" fill="#5D9948"/>
<path d="M48.2942 28.7007L37.6318 27.7707C37.58 28.6654 37.3853 29.5871 36.9136 30.7877L48.2942 29.7595C52.0589 29.4654 52.0589 29.0536 48.2942 28.7007ZM46.2353 20.1124L36.4706 19.1907C36.4689 20.2107 36.31 21.2483 35.9783 22.2571L46.2353 21.2889C50 20.936 50 20.4654 46.2353 20.1124ZM43.9412 37.1124L35.9406 36.2701C36.8824 37.1666 37.9759 37.983 39.0295 38.9236L43.9412 38.4066C47.6471 37.9948 47.6471 37.5242 43.9412 37.1124ZM13.1765 48.6418H39.8236C39.8236 39.3477 30.5883 40.8183 29.8824 31.6418L29.7647 30.0536H33.4706C33.9412 29.1713 34.1177 28.1713 34.1177 27.2301L29.7647 24.7007C32 23.2889 32.9412 21.2301 32.9412 19.1713C32.9412 15.583 30 12.7595 26.4706 12.7595C23 12.7595 20.0589 15.583 20.0589 19.1713C20.0589 21.3477 20.8236 23.1124 23.2353 24.6418L18.8824 27.2301C18.8824 28.1713 19.0589 29.1713 19.5295 30.0536H23.2353L23.1177 31.6418C22.4118 40.8183 13.1765 39.3477 13.1765 48.6418Z" fill="url(#paint0_linear_579_16778)"/>
<path fill-rule="evenodd" clip-rule="evenodd" d="M0 3.99512V37.4951L1.23956 7.74569C1.38677 4.21253 4.21742 1.38189 7.75058 1.23468L37.5 -0.00488281H4C1.79086 -0.00488281 0 1.78598 0 3.99512ZM60 55.9951V44.9951L59.1007 53.0884C58.7495 56.2493 56.2542 58.7446 53.0933 59.0959L45 59.9951H56C58.2091 59.9951 60 58.2043 60 55.9951Z" fill="#B2E068"/>
<defs>
<linearGradient id="paint0_linear_579_16778" x1="32.0891" y1="48.6418" x2="32.0891" y2="12.7595" gradientUnits="userSpaceOnUse">
<stop stop-color="white"/>
<stop offset="1" stop-color="white" stop-opacity="0.85"/>
</linearGradient>
</defs>
</svg>
