<svg width="60" height="60" viewBox="0 0 60 60" fill="none" xmlns="http://www.w3.org/2000/svg">
<rect y="-0.00488281" width="60" height="60" rx="4" fill="#7A66F4"/>
<path d="M23.5292 23.8186H36.7645C39.7057 23.8186 43.0586 22.2304 43.0586 18.2892C43.0586 15.1715 40.8233 12.9362 37.5292 12.9362C33.588 12.9362 30.588 16.4657 29.1763 21.9951H30.8821C29.5292 16.5245 26.588 12.9362 22.588 12.9362C19.2939 12.9362 16.941 15.0539 16.941 18.2892C16.941 22.2304 20.2939 23.8186 23.5292 23.8186ZM19.4115 50.2892H28.2351V39.7009H14.1174V44.9951C14.1174 48.9362 15.4704 50.2892 19.4115 50.2892ZM14.1174 32.6421V36.1715H28.2351V27.348H19.4115C15.4704 27.348 14.1174 28.7009 14.1174 32.6421ZM31.7645 50.2892H40.588C44.5292 50.2892 45.8821 48.9362 45.8821 44.9951V39.7009H31.7645V50.2892ZM31.7645 36.1715H45.8821V32.6421C45.8821 28.7009 44.5292 27.348 40.588 27.348H31.7645V36.1715ZM27.7645 21.9951H32.4116C33.588 17.6421 35.4704 15.9951 37.3527 15.9951C38.6468 15.9951 39.941 16.7598 39.941 18.2892C39.941 20.348 37.7057 20.7009 36.7645 20.7009H23.5292C22.2939 20.7009 20.0586 20.348 20.0586 18.2892C20.0586 16.7598 21.3527 15.9951 22.7645 15.9951C24.8233 15.9951 26.4704 17.6421 27.7645 21.9951Z" fill="#5E53D9"/>
<path d="M23.5292 22.0539H36.7645C39.7057 22.0539 43.0586 20.4657 43.0586 16.5245C43.0586 13.4068 40.8233 11.1715 37.5292 11.1715C33.588 11.1715 30.588 14.7009 29.1763 20.2304H30.8821C29.5292 14.7598 26.588 11.1715 22.588 11.1715C19.2939 11.1715 16.941 13.2892 16.941 16.5245C16.941 20.4657 20.2939 22.0539 23.5292 22.0539ZM19.4115 48.5245H28.2351V37.9362H14.1174V43.2304C14.1174 47.1715 15.4704 48.5245 19.4115 48.5245ZM14.1174 30.8774V34.4068H28.2351V25.5833H19.4115C15.4704 25.5833 14.1174 26.9362 14.1174 30.8774ZM31.7645 48.5245H40.588C44.5292 48.5245 45.8821 47.1715 45.8821 43.2304V37.9362H31.7645V48.5245ZM31.7645 34.4068H45.8821V30.8774C45.8821 26.9362 44.5292 25.5833 40.588 25.5833H31.7645V34.4068ZM27.7645 20.2304H32.4116C33.588 15.8774 35.4704 14.2304 37.3527 14.2304C38.6468 14.2304 39.941 14.9951 39.941 16.5245C39.941 18.5833 37.7057 18.9362 36.7645 18.9362H23.5292C22.2939 18.9362 20.0586 18.5833 20.0586 16.5245C20.0586 14.9951 21.3527 14.2304 22.7645 14.2304C24.8233 14.2304 26.4704 15.8774 27.7645 20.2304Z" fill="white"/>
<path fill-rule="evenodd" clip-rule="evenodd" d="M0 3.99512V37.4951L1.23956 7.74569C1.38677 4.21253 4.21742 1.38189 7.75058 1.23468L37.5 -0.00488281H4C1.79086 -0.00488281 0 1.78598 0 3.99512ZM60 55.9951V44.9951L59.1007 53.0884C58.7495 56.2493 56.2542 58.7446 53.0933 59.0959L45 59.9951H56C58.2091 59.9951 60 58.2043 60 55.9951Z" fill="#9881F2"/>
</svg>
