<svg width="60" height="60" viewBox="0 0 60 60" fill="none" xmlns="http://www.w3.org/2000/svg">
<rect y="-0.00488281" width="60" height="60" rx="4" fill="#E3AA24"/>
<path d="M44.1178 36.1713C46.5613 36.1713 48.5295 34.203 48.5295 31.7595C48.5295 29.316 46.5613 27.3477 44.1178 27.3477C41.6742 27.3477 39.706 29.316 39.706 31.7595C39.706 34.203 41.6742 36.1713 44.1178 36.1713ZM15.8825 36.1713C18.326 36.1713 20.2942 34.203 20.2942 31.7595C20.2942 29.316 18.326 27.3477 15.8825 27.3477C13.4389 27.3477 11.4707 29.316 11.4707 31.7595C11.4707 34.203 13.4389 36.1713 15.8825 36.1713ZM30.0001 36.1713C32.4436 36.1713 34.4119 34.203 34.4119 31.7595C34.4119 29.316 32.4436 27.3477 30.0001 27.3477C27.5566 27.3477 25.5883 29.316 25.5883 31.7595C25.5883 34.203 27.5566 36.1713 30.0001 36.1713Z" fill="#CF8D1B"/>
<path d="M44.1178 34.4066C46.5613 34.4066 48.5295 32.4384 48.5295 29.9949C48.5295 27.5513 46.5613 25.5831 44.1178 25.5831C41.6742 25.5831 39.706 27.5513 39.706 29.9949C39.706 32.4384 41.6742 34.4066 44.1178 34.4066ZM15.8825 34.4066C18.326 34.4066 20.2942 32.4384 20.2942 29.9949C20.2942 27.5513 18.326 25.5831 15.8825 25.5831C13.4389 25.5831 11.4707 27.5513 11.4707 29.9949C11.4707 32.4384 13.4389 34.4066 15.8825 34.4066ZM30.0001 34.4066C32.4436 34.4066 34.4119 32.4384 34.4119 29.9949C34.4119 27.5513 32.4436 25.5831 30.0001 25.5831C27.5566 25.5831 25.5883 27.5513 25.5883 29.9949C25.5883 32.4384 27.5566 34.4066 30.0001 34.4066Z" fill="white"/>
<path fill-rule="evenodd" clip-rule="evenodd" d="M0 3.99512V37.4951L1.23956 7.74569C1.38677 4.21253 4.21742 1.38189 7.75058 1.23468L37.5 -0.00488281H4C1.79086 -0.00488281 0 1.78598 0 3.99512ZM60 55.9951V44.9951L59.1007 53.0884C58.7495 56.2493 56.2542 58.7446 53.0933 59.0959L45 59.9951H56C58.2091 59.9951 60 58.2043 60 55.9951Z" fill="#FAD541"/>
</svg>
