<svg width="60" height="60" viewBox="0 0 60 60" fill="none" xmlns="http://www.w3.org/2000/svg">
<rect y="-0.00488281" width="60" height="60" rx="4" fill="#7A66F4"/>
<path d="M23.5294 23.8187H36.7647C39.7059 23.8187 43.0589 22.2304 43.0589 18.2892C43.0589 15.1716 40.8236 12.9363 37.5294 12.9363C33.5883 12.9363 30.5883 16.4657 29.1765 21.9951H30.8824C29.5294 16.5245 26.5883 12.9363 22.5883 12.9363C19.2941 12.9363 16.9412 15.054 16.9412 18.2892C16.9412 22.2304 20.2941 23.8187 23.5294 23.8187ZM19.4118 50.2892H28.2353V39.701H14.1177V44.9951C14.1177 48.9363 15.4706 50.2892 19.4118 50.2892ZM14.1177 32.6422V36.1716H28.2353V27.3481H19.4118C15.4706 27.3481 14.1177 28.701 14.1177 32.6422ZM31.7647 50.2892H40.5883C44.5294 50.2892 45.8824 48.9363 45.8824 44.9951V39.701H31.7647V50.2892ZM31.7647 36.1716H45.8824V32.6422C45.8824 28.701 44.5294 27.3481 40.5883 27.3481H31.7647V36.1716ZM27.7647 21.9951H32.4118C33.5883 17.6422 35.4706 15.9951 37.353 15.9951C38.6471 15.9951 39.9412 16.7598 39.9412 18.2892C39.9412 20.3481 37.7059 20.701 36.7647 20.701H23.5294C22.2941 20.701 20.0589 20.3481 20.0589 18.2892C20.0589 16.7598 21.353 15.9951 22.7647 15.9951C24.8236 15.9951 26.4706 17.6422 27.7647 21.9951Z" fill="#5E53D9"/>
<path d="M23.5294 22.0539H36.7647C39.7059 22.0539 43.0589 20.4657 43.0589 16.5245C43.0589 13.4069 40.8236 11.1716 37.5294 11.1716C33.5883 11.1716 30.5883 14.701 29.1765 20.2304H30.8824C29.5294 14.7598 26.5883 11.1716 22.5883 11.1716C19.2941 11.1716 16.9412 13.2892 16.9412 16.5245C16.9412 20.4657 20.2941 22.0539 23.5294 22.0539ZM19.4118 48.5245H28.2353V37.9363H14.1177V43.2304C14.1177 47.1716 15.4706 48.5245 19.4118 48.5245ZM14.1177 30.8775V34.4069H28.2353V25.5834H19.4118C15.4706 25.5834 14.1177 26.9363 14.1177 30.8775ZM31.7647 48.5245H40.5883C44.5294 48.5245 45.8824 47.1716 45.8824 43.2304V37.9363H31.7647V48.5245ZM31.7647 34.4069H45.8824V30.8775C45.8824 26.9363 44.5294 25.5834 40.5883 25.5834H31.7647V34.4069ZM27.7647 20.2304H32.4118C33.5883 15.8775 35.4706 14.2304 37.353 14.2304C38.6471 14.2304 39.9412 14.9951 39.9412 16.5245C39.9412 18.5834 37.7059 18.9363 36.7647 18.9363H23.5294C22.2941 18.9363 20.0589 18.5834 20.0589 16.5245C20.0589 14.9951 21.353 14.2304 22.7647 14.2304C24.8236 14.2304 26.4706 15.8775 27.7647 20.2304Z" fill="white"/>
<path fill-rule="evenodd" clip-rule="evenodd" d="M0 3.99512V37.4951L1.23956 7.74569C1.38677 4.21253 4.21742 1.38189 7.75058 1.23468L37.5 -0.00488281H4C1.79086 -0.00488281 0 1.78598 0 3.99512ZM60 55.9951V44.9951L59.1007 53.0884C58.7495 56.2493 56.2542 58.7446 53.0933 59.0959L45 59.9951H56C58.2091 59.9951 60 58.2043 60 55.9951Z" fill="#9881F2"/>
</svg>
