<svg width="60" height="60" viewBox="0 0 60 60" fill="none" xmlns="http://www.w3.org/2000/svg">
<rect y="-0.00488281" width="60" height="60" rx="4" fill="#008CD1"/>
<path d="M24.0586 51.8183L25.6762 45.9359H22.1909L23.2938 51.8183C23.4703 52.9359 23.7644 52.9359 24.0586 51.8183ZM36.2938 51.8183L37.3968 45.9359H33.9115L35.5291 51.8183C35.8233 52.9359 36.1174 52.9359 36.2938 51.8183ZM28.0586 45.9359L29.5291 51.8183C29.8233 52.9359 30.0586 52.9359 30.3527 51.8183L31.8603 45.9359H28.0586ZM18.8821 42.4065H41.1174C41.1174 34.6418 33.4703 35.8183 32.7644 28.0536L32.6468 26.8771H35.7644C36.1762 26.0536 36.4115 25.23 36.4115 24.4653L32.6468 22.2889C34.6468 21.0536 35.3527 19.583 35.3527 17.8183C35.3527 14.8183 32.8821 12.4065 29.9997 12.4065C27.0586 12.4065 24.588 14.8183 24.588 17.8183C24.588 19.4653 25.4115 21.23 27.235 22.3477L23.5291 24.4653C23.5291 25.23 23.7644 26.0536 24.1762 26.8771H27.235L27.1762 28.0536C26.5291 35.8183 18.8821 34.6418 18.8821 42.4065Z" fill="#0069AB"/>
<path d="M24.0586 50.0536L25.6762 44.1713H22.1909L23.2938 50.0536C23.4703 51.1713 23.7644 51.1713 24.0586 50.0536ZM36.2938 50.0536L37.3968 44.1713H33.9115L35.5291 50.0536C35.8233 51.1713 36.1174 51.1713 36.2938 50.0536ZM28.0586 44.1713L29.5291 50.0536C29.8233 51.1713 30.0586 51.1713 30.3527 50.0536L31.8603 44.1713H28.0586ZM18.8821 40.6418H41.1174C41.1174 32.8771 33.4703 34.0536 32.7644 26.2889L32.6468 25.1124H35.7644C36.1762 24.2889 36.4115 23.4654 36.4115 22.7007L32.6468 20.5242C34.6468 19.2889 35.3527 17.8183 35.3527 16.0536C35.3527 13.0536 32.8821 10.6418 29.9997 10.6418C27.0586 10.6418 24.588 13.0536 24.588 16.0536C24.588 17.7007 25.4115 19.4654 27.235 20.583L23.5291 22.7007C23.5291 23.4654 23.7644 24.2889 24.1762 25.1124H27.235L27.1762 26.2889C26.5291 34.0536 18.8821 32.8771 18.8821 40.6418Z" fill="white"/>
<path fill-rule="evenodd" clip-rule="evenodd" d="M0 3.99512V37.4951L1.23956 7.74569C1.38677 4.21253 4.21742 1.38189 7.75058 1.23468L37.5 -0.00488281H4C1.79086 -0.00488281 0 1.78598 0 3.99512ZM60 55.9951V44.9951L59.1007 53.0884C58.7495 56.2493 56.2542 58.7446 53.0933 59.0959L45 59.9951H56C58.2091 59.9951 60 58.2043 60 55.9951Z" fill="#009FD9"/>
</svg>
