<svg width="60" height="60" viewBox="0 0 60 60" fill="none" xmlns="http://www.w3.org/2000/svg">
<rect y="-0.00488281" width="60" height="60" rx="4" fill="#008CD1"/>
<path d="M24.059 51.8183L25.6767 45.9359H22.1914L23.2943 51.8183C23.4708 52.9359 23.7649 52.9359 24.059 51.8183ZM36.2943 51.8183L37.3973 45.9359H33.912L35.5296 51.8183C35.8237 52.9359 36.1178 52.9359 36.2943 51.8183ZM28.059 45.9359L29.5296 51.8183C29.8237 52.9359 30.059 52.9359 30.3531 51.8183L31.8608 45.9359H28.059ZM18.8826 42.4065H41.1178C41.1178 34.6418 33.4708 35.8183 32.7649 28.0536L32.6473 26.8771H35.7649C36.1767 26.0536 36.412 25.23 36.412 24.4653L32.6473 22.2889C34.6473 21.0536 35.3531 19.583 35.3531 17.8183C35.3531 14.8183 32.8826 12.4065 30.0002 12.4065C27.059 12.4065 24.5884 14.8183 24.5884 17.8183C24.5884 19.4653 25.412 21.23 27.2355 22.3477L23.5296 24.4653C23.5296 25.23 23.7649 26.0536 24.1767 26.8771H27.2355L27.1767 28.0536C26.5296 35.8183 18.8826 34.6418 18.8826 42.4065Z" fill="#0069AB"/>
<path d="M24.059 50.0536L25.6767 44.1713H22.1914L23.2943 50.0536C23.4708 51.1713 23.7649 51.1713 24.059 50.0536ZM36.2943 50.0536L37.3973 44.1713H33.912L35.5296 50.0536C35.8237 51.1713 36.1178 51.1713 36.2943 50.0536ZM28.059 44.1713L29.5296 50.0536C29.8237 51.1713 30.059 51.1713 30.3531 50.0536L31.8608 44.1713H28.059ZM18.8826 40.6418H41.1178C41.1178 32.8771 33.4708 34.0536 32.7649 26.2889L32.6473 25.1124H35.7649C36.1767 24.2889 36.412 23.4654 36.412 22.7007L32.6473 20.5242C34.6473 19.2889 35.3531 17.8183 35.3531 16.0536C35.3531 13.0536 32.8826 10.6418 30.0002 10.6418C27.059 10.6418 24.5884 13.0536 24.5884 16.0536C24.5884 17.7007 25.412 19.4654 27.2355 20.583L23.5296 22.7007C23.5296 23.4654 23.7649 24.2889 24.1767 25.1124H27.2355L27.1767 26.2889C26.5296 34.0536 18.8826 32.8771 18.8826 40.6418Z" fill="white"/>
<path fill-rule="evenodd" clip-rule="evenodd" d="M0 3.99512V37.4951L1.23956 7.74569C1.38677 4.21253 4.21742 1.38189 7.75058 1.23468L37.5 -0.00488281H4C1.79086 -0.00488281 0 1.78598 0 3.99512ZM60 55.9951V44.9951L59.1007 53.0884C58.7495 56.2493 56.2542 58.7446 53.0933 59.0959L45 59.9951H56C58.2091 59.9951 60 58.2043 60 55.9951Z" fill="#009FD9"/>
</svg>
