<svg width="60" height="60" viewBox="0 0 60 60" fill="none" xmlns="http://www.w3.org/2000/svg">
<rect y="-0.00488281" width="60" height="60" rx="4" fill="#E3AA24"/>
<path d="M30.0002 50.2889C42.1178 50.2889 51.1767 42.3477 51.1767 31.7595C51.1767 21.1713 42.1178 13.2301 30.0002 13.2301C17.8826 13.2301 8.82373 21.1713 8.82373 31.7595C8.82373 36.216 10.4284 40.2042 13.1908 43.3277L8.82373 52.936L19.5667 48.053C22.6073 49.4872 26.149 50.2889 30.0002 50.2889ZM29.1767 34.6419C27.8826 34.6419 27.412 34.1713 27.412 32.8183V31.1124C27.412 29.8183 27.8826 29.3477 29.2355 29.3477H29.8826C32.8826 29.3477 34.412 29.1124 34.412 27.2301C34.412 25.0536 32.5296 24.4066 30.7649 24.4066C28.4708 24.4066 26.4708 25.7595 25.2355 26.8772C24.3531 27.7595 23.7061 27.7595 22.8237 26.7007L21.8237 25.4654C21.0002 24.4654 21.059 23.7595 21.9414 22.7595C23.5296 21.2889 26.5884 19.1124 30.5884 19.1124C35.2943 19.1124 39.7061 21.8772 39.7061 27.1713C39.7061 30.1713 37.8237 34.6419 29.8826 34.6419H29.1767ZM30.0002 43.8183C28.0002 43.8183 26.7649 42.583 26.7649 40.583C26.7649 38.583 28.0002 37.3477 30.0002 37.3477C32.0002 37.3477 33.2355 38.583 33.2355 40.583C33.2355 42.583 32.0002 43.8183 30.0002 43.8183Z" fill="#CF8D1B"/>
<path d="M30.0002 48.5243C42.1178 48.5243 51.1767 40.5831 51.1767 29.9949C51.1767 19.4066 42.1178 11.4654 30.0002 11.4654C17.8826 11.4654 8.82373 19.4066 8.82373 29.9949C8.82373 34.4513 10.4284 38.4396 13.1908 41.5631L8.82373 51.1713L19.5667 46.2884C22.6073 47.7225 26.149 48.5243 30.0002 48.5243ZM29.1767 32.8772C27.8826 32.8772 27.412 32.4066 27.412 31.0537V29.3478C27.412 28.0537 27.8826 27.5831 29.2355 27.5831H29.8826C32.8826 27.5831 34.412 27.3478 34.412 25.4654C34.412 23.289 32.5296 22.6419 30.7649 22.6419C28.4708 22.6419 26.4708 23.9949 25.2355 25.1125C24.3531 25.9949 23.7061 25.9949 22.8237 24.936L21.8237 23.7007C21.0002 22.7007 21.059 21.9949 21.9414 20.9949C23.5296 19.5243 26.5884 17.3478 30.5884 17.3478C35.2943 17.3478 39.7061 20.1125 39.7061 25.4066C39.7061 28.4066 37.8237 32.8772 29.8826 32.8772H29.1767ZM30.0002 42.0537C28.0002 42.0537 26.7649 40.8184 26.7649 38.8184C26.7649 36.8184 28.0002 35.5831 30.0002 35.5831C32.0002 35.5831 33.2355 36.8184 33.2355 38.8184C33.2355 40.8184 32.0002 42.0537 30.0002 42.0537Z" fill="white"/>
<path fill-rule="evenodd" clip-rule="evenodd" d="M0 3.99512V37.4951L1.23956 7.74569C1.38677 4.21253 4.21742 1.38189 7.75058 1.23468L37.5 -0.00488281H4C1.79086 -0.00488281 0 1.78598 0 3.99512ZM60 55.9951V44.9951L59.1007 53.0884C58.7495 56.2493 56.2542 58.7446 53.0933 59.0959L45 59.9951H56C58.2091 59.9951 60 58.2043 60 55.9951Z" fill="#FAD541"/>
</svg>
