<svg width="60" height="60" viewBox="0 0 60 60" fill="none" xmlns="http://www.w3.org/2000/svg">
<rect width="60" height="60" rx="4" fill="#81B64C"/>
<path fill-rule="evenodd" clip-rule="evenodd" d="M0 4V37.5L1.23956 7.75058C1.38677 4.21741 4.21742 1.38677 7.75058 1.23956L37.5 0H4C1.79086 0 0 1.79086 0 4ZM60 56V45L59.1007 53.0933C58.7495 56.2542 56.2542 58.7495 53.0933 59.1007L45 60H56C58.2091 60 60 58.2091 60 56Z" fill="#D8FA9D"/>
<path d="M13.2942 48.4702C13.8825 49.1173 14.706 49.4114 15.5295 49.4114C16.2942 49.4114 17.1178 49.0584 17.706 48.4702C18.3531 47.8231 18.706 46.9996 18.6472 46.1761L23.4707 42.1173L26.5884 45.2349C26.8825 45.529 27.9413 44.5878 28.4119 44.2349C28.6472 43.9408 28.7648 43.6467 28.7648 43.2937C28.7648 42.9996 28.6472 42.7643 28.4707 42.529C27.8825 41.7055 27.1766 40.882 26.4707 40.0584L28.4078 38.1149L25.0484 32.0096L21.706 35.352C20.8825 34.5873 20.1178 33.8814 19.2942 33.2931C19.059 33.1167 18.7648 33.0578 18.5884 33.0578C18.1766 33.0578 17.8237 33.1755 17.5295 33.4108C17.1766 33.8226 16.2354 34.9402 16.5295 35.2343L19.6472 38.2931L15.5884 43.1167C14.8237 43.1167 14.0001 43.4108 13.2942 44.0578C12.6472 44.6461 12.3531 45.4696 12.4119 46.2343C12.4119 47.0578 12.706 47.8814 13.2942 48.4696V48.4702ZM27.6472 29.4114L31.0037 35.5114L33.7737 32.7326L27.6472 29.4114ZM30.2507 26.8078L36.3719 30.1261L45.0595 21.4114C47.6478 18.7643 47.3537 14.4114 47.3537 14.4114C47.3537 14.4114 42.9419 14.1173 40.3537 16.7055L30.2507 26.8078ZM46.706 48.4702C47.2942 47.882 47.6472 47.0584 47.5884 46.2349C47.5884 45.4702 47.2942 44.6467 46.706 44.0584C46.0001 43.4114 45.1766 43.1173 44.4119 43.1173L40.3531 38.2937L43.4707 35.2349C43.7648 34.9408 42.8237 33.8231 42.4707 33.4114C42.1178 33.1761 41.8237 33.0584 41.4119 33.0584C41.1766 33.0584 40.9413 33.1173 40.706 33.2937C39.8825 33.882 39.1178 34.5878 38.2942 35.3526L19.6472 16.7055C17.059 14.1173 12.6472 14.4114 12.6472 14.4114C12.6472 14.4114 12.3531 18.7643 14.9413 21.4114L33.5295 40.0584C32.8237 40.882 32.1178 41.7055 31.5295 42.529C31.3531 42.7643 31.2354 43.0584 31.2354 43.2937C31.2354 43.5878 31.3531 43.9996 31.5884 44.2349C32.059 44.5878 33.1178 45.529 33.4119 45.2349L36.5295 42.1173L41.3531 46.1761C41.2942 46.9996 41.6472 47.8231 42.2942 48.4702C42.8825 49.1173 43.706 49.4114 44.5295 49.4114C45.2942 49.4114 46.1178 49.0584 46.706 48.4702Z" fill="#5D9948"/>
<path d="M13.2942 46.7056C13.8825 47.3526 14.706 47.6467 15.5295 47.6467C16.2942 47.6467 17.1178 47.2938 17.706 46.7056C18.3531 46.0585 18.706 45.235 18.6472 44.4114L23.4707 40.3526L26.5884 43.4703C26.8825 43.7644 27.9413 42.8232 28.4119 42.4703C28.6472 42.1761 28.7648 41.882 28.7648 41.5291C28.7648 41.235 28.6472 40.9997 28.4707 40.7644C27.8825 39.9408 27.1766 39.1173 26.4707 38.2938L28.4078 36.3503L25.0484 30.245L21.706 33.5873C20.8825 32.8226 20.1178 32.1167 19.2942 31.5285C19.059 31.352 18.7648 31.2932 18.5884 31.2932C18.1766 31.2932 17.8237 31.4108 17.5295 31.6461C17.1766 32.0579 16.2354 33.1756 16.5295 33.4697L19.6472 36.5285L15.5884 41.352C14.8237 41.352 14.0001 41.6461 13.2942 42.2932C12.6472 42.8814 12.3531 43.705 12.4119 44.4697C12.4119 45.2932 12.706 46.1167 13.2942 46.705V46.7056ZM27.6472 27.6467L31.0037 33.7467L33.7737 30.9679L27.6472 27.6467ZM30.2507 25.0432L36.3719 28.3614L45.0595 19.6467C47.6478 16.9997 47.3537 12.6467 47.3537 12.6467C47.3537 12.6467 42.9419 12.3526 40.3537 14.9408L30.2507 25.0432ZM46.706 46.7056C47.2942 46.1173 47.6472 45.2938 47.5884 44.4703C47.5884 43.7056 47.2942 42.882 46.706 42.2938C46.0001 41.6467 45.1766 41.3526 44.4119 41.3526L40.3531 36.5291L43.4707 33.4703C43.7648 33.1761 42.8237 32.0585 42.4707 31.6467C42.1178 31.4114 41.8237 31.2938 41.4119 31.2938C41.1766 31.2938 40.9413 31.3526 40.706 31.5291C39.8825 32.1173 39.1178 32.8232 38.2942 33.5879L19.6472 14.9408C17.059 12.3526 12.6472 12.6467 12.6472 12.6467C12.6472 12.6467 12.3531 16.9997 14.9413 19.6467L33.5295 38.2938C32.8237 39.1173 32.1178 39.9408 31.5295 40.7644C31.3531 40.9997 31.2354 41.2938 31.2354 41.5291C31.2354 41.8232 31.3531 42.235 31.5884 42.4703C32.059 42.8232 33.1178 43.7644 33.4119 43.4703L36.5295 40.3526L41.3531 44.4114C41.2942 45.235 41.6472 46.0585 42.2942 46.7056C42.8825 47.3526 43.706 47.6467 44.5295 47.6467C45.2942 47.6467 46.1178 47.2938 46.706 46.7056Z" fill="white"/>
</svg>
