<svg width="60" height="60" viewBox="0 0 60 60" fill="none" xmlns="http://www.w3.org/2000/svg">
<rect width="60" height="60" rx="4" fill="#E3AA24"/>
<path d="M17.6471 49.4114H28.4754L22.9666 38.8609C22.9748 38.8479 22.9836 38.8356 22.9919 38.8232H22.9413V45.882H15.8824V38.8232H22.9413V31.7644H15.8824V24.7056H22.9413V17.6467H30.0001V24.7056H33.5601C33.7736 22.275 35.0995 20.6214 37.0589 20.0179V17.6467H44.1177V24.7056H44.0871C44.1071 24.9338 44.1177 25.1697 44.1177 25.4114V31.1656L47.4636 31.9056C47.5254 31.9191 47.5866 31.9326 47.6471 31.9467V19.412C47.6471 15.4709 46.2942 14.1179 42.353 14.1179H17.6471C13.706 14.1179 12.353 15.4709 12.353 19.412V44.1179C12.353 48.0591 13.706 49.412 17.6471 49.412V49.4114ZM30.0001 31.7644V24.7056H22.9413V31.7644H30.0001ZM30.0001 31.7644V35.2479C31.1848 35.4356 32.3871 36.0079 33.5295 37.0714V31.7644H30.0001ZM27.2354 39.4114L34.2942 52.9409H49.8824L51.9413 44.0585C53.1177 38.9409 51.8236 36.4703 46.706 35.3526L40.5883 33.9997V25.4114C40.5883 23.9409 40.0589 23.2938 38.8236 23.2938C37.5883 23.2938 37.0589 23.9409 37.0589 25.4114V40.4703C37.0589 42.7056 34.8236 43.6467 33.0589 41.7056L31.4119 39.9409C29.5883 37.9997 28.1177 38.7644 27.2354 39.4114Z" fill="#CF8D1B"/>
<path d="M17.6471 47.6468H28.4754L22.9666 37.0962C22.9748 37.0833 22.9836 37.0709 22.9919 37.0586H22.9413V44.1174H15.8824V37.0586H22.9413V29.9997H15.8824V22.9409H22.9413V15.8821H30.0001V22.9409H33.5601C33.7736 20.5103 35.0995 18.8568 37.0589 18.2533V15.8821H44.1177V22.9409H44.0871C44.1071 23.1691 44.1177 23.405 44.1177 23.6468V29.4009L47.4636 30.1409C47.5254 30.1544 47.5866 30.168 47.6471 30.1821V17.6474C47.6471 13.7062 46.2942 12.3533 42.353 12.3533H17.6471C13.706 12.3533 12.353 13.7062 12.353 17.6474V42.3533C12.353 46.2944 13.706 47.6474 17.6471 47.6474V47.6468ZM30.0001 29.9997V22.9409H22.9413V29.9997H30.0001ZM30.0001 29.9997V33.4833C31.1848 33.6709 32.3871 34.2433 33.5295 35.3068V29.9997H30.0001ZM27.2354 37.6468L34.2942 51.1762H49.8824L51.9413 42.2939C53.1177 37.1762 51.8236 34.7056 46.706 33.588L40.5883 32.235V23.6468C40.5883 22.1762 40.0589 21.5292 38.8236 21.5292C37.5883 21.5292 37.0589 22.1762 37.0589 23.6468V38.7056C37.0589 40.9409 34.8236 41.8821 33.0589 39.9409L31.4119 38.1762C29.5883 36.235 28.1177 36.9997 27.2354 37.6468Z" fill="white"/>
<path fill-rule="evenodd" clip-rule="evenodd" d="M0 4V37.5L1.23956 7.75058C1.38677 4.21741 4.21742 1.38677 7.75058 1.23956L37.5 0H4C1.79086 0 0 1.79086 0 4ZM60 56V45L59.1007 53.0933C58.7495 56.2542 56.2542 58.7495 53.0933 59.1007L45 60H56C58.2091 60 60 58.2091 60 56Z" fill="#FAD541"/>
</svg>
