<svg width="60" height="60" viewBox="0 0 60 60" fill="none" xmlns="http://www.w3.org/2000/svg">
<rect width="60" height="60" rx="4" fill="#FA742C"/>
<path d="M17.4708 39.9997H26.4738C26.4708 39.5938 26.4708 39.1632 26.4708 38.7055V31.6467C26.4708 26.9408 28.1179 25.1761 32.8238 24.7644C35.4849 24.1255 36.7014 23.0055 38.3032 21.2297C37.3661 20.852 36.3155 20.6467 35.1767 20.6467C32.3532 20.6467 30.4708 21.4703 28.8238 22.7055L28.2943 17.6467H32.8826V14.1173H28.2355V9.99966H24.7649V14.1173H20.0002V17.6467H24.7649L24.0591 22.7055C22.412 21.4703 20.5296 20.6467 17.7061 20.6467C13.2355 20.6467 9.94141 23.8232 9.94141 28.7055C9.94141 31.9997 12.0002 34.1173 14.0591 36.1761C15.2943 37.4114 16.5885 38.4114 17.4708 39.9997ZM12.3532 47.0585V49.4114H31.3779C27.8202 46.6273 26.842 45.0355 26.5732 42.3526H19.3538C15.0008 42.3526 12.3538 44.1761 12.3538 47.0585H12.3532ZM23.2355 28.2938V34.0585H20.9414C19.7649 32.7055 17.1179 30.9997 17.1179 29.1173C17.1179 27.7644 18.1179 26.882 19.7061 26.882C21.2355 26.882 23.2355 28.2938 23.2355 28.2938ZM38.8238 50.8232C30.5885 45.4703 30.0002 44.3526 30.0002 38.7644V30.0585C30.0002 28.7055 30.5885 28.235 32.1179 28.1761C35.0002 27.9408 36.7649 27.235 38.7649 25.4114C40.1179 23.9997 41.0591 23.9997 42.412 25.3526C44.5296 27.235 46.412 27.9997 49.3532 28.1761C50.7061 28.235 51.1767 28.8232 51.1767 30.3526V38.7644C51.1767 44.5291 50.5885 45.5879 42.1179 50.9997C41.0002 51.7644 40.1179 51.7055 38.8238 50.8232Z" fill="#DC501D"/>
<path d="M17.4708 38.235H26.4738C26.4708 37.8291 26.4708 37.3985 26.4708 36.9409V29.8821C26.4708 25.1762 28.1179 23.4115 32.8238 22.9997C35.4849 22.3609 36.7014 21.2409 38.3032 19.465C37.3661 19.0874 36.3155 18.8821 35.1767 18.8821C32.3532 18.8821 30.4708 19.7056 28.8238 20.9409L28.2943 15.8821H32.8826V12.3527H28.2355V8.23501H24.7649V12.3527H20.0002V15.8821H24.7649L24.0591 20.9409C22.412 19.7056 20.5296 18.8821 17.7061 18.8821C13.2355 18.8821 9.94141 22.0585 9.94141 26.9409C9.94141 30.235 12.0002 32.3527 14.0591 34.4115C15.2943 35.6468 16.5885 36.6468 17.4708 38.235ZM12.3532 45.2938V47.6468H31.3779C27.8202 44.8627 26.842 43.2709 26.5732 40.588H19.3538C15.0008 40.588 12.3538 42.4115 12.3538 45.2938H12.3532ZM23.2355 26.5291V32.2938H20.9414C19.7649 30.9409 17.1179 29.235 17.1179 27.3527C17.1179 25.9997 18.1179 25.1174 19.7061 25.1174C21.2355 25.1174 23.2355 26.5291 23.2355 26.5291ZM38.8238 49.0585C30.5885 43.7056 30.0002 42.588 30.0002 36.9997V28.2938C30.0002 26.9409 30.5885 26.4703 32.1179 26.4115C35.0002 26.1762 36.7649 25.4703 38.7649 23.6468C40.1179 22.235 41.0591 22.235 42.412 23.588C44.5296 25.4703 46.412 26.235 49.3532 26.4115C50.7061 26.4703 51.1767 27.0585 51.1767 28.588V36.9997C51.1767 42.7644 50.5885 43.8233 42.1179 49.235C41.0002 49.9997 40.1179 49.9409 38.8238 49.0585Z" fill="white"/>
<path fill-rule="evenodd" clip-rule="evenodd" d="M0 4V37.5L1.23956 7.75058C1.38677 4.21741 4.21742 1.38677 7.75058 1.23956L37.5 0H4C1.79086 0 0 1.79086 0 4ZM60 56V45L59.1007 53.0933C58.7495 56.2542 56.2542 58.7495 53.0933 59.1007L45 60H56C58.2091 60 60 58.2091 60 56Z" fill="#FFA459"/>
</svg>
