<svg width="60" height="60" viewBox="0 0 60 60" fill="none" xmlns="http://www.w3.org/2000/svg">
<rect width="60" height="60" rx="4" fill="#7A66F4"/>
<path d="M23.7058 50.2941H36.2941C37.7647 50.2941 38.2352 49.5294 37.5294 48.2352L30 34.0588L22.4705 48.2352C21.7647 49.5294 22.2353 50.2941 23.7058 50.2941ZM10.5882 36.1764H49.4117C50.5882 36.1764 51.1764 35.5882 51.1764 34.4117C51.1764 33.2352 50.5882 32.647 49.4117 32.647H10.5882C9.41172 32.647 8.82349 33.2352 8.82349 34.4117C8.82349 35.5882 9.41172 36.1764 10.5882 36.1764ZM8.82349 16.7647V27.3529C8.82349 28.5294 9.41172 29.1176 10.5882 29.1176H21.1764C22.3529 29.1176 22.9411 28.5294 22.9411 27.3529V16.7647C22.9411 15.5882 22.3529 15 21.1764 15H10.5882C9.41172 15 8.82349 15.5882 8.82349 16.7647ZM42.3529 30C46.7647 30 50.2941 26.4705 50.2941 22.0588C50.2941 17.647 46.7647 14.1176 42.3529 14.1176C37.9411 14.1176 34.4117 17.647 34.4117 22.0588C34.4117 26.4705 37.9411 30 42.3529 30Z" fill="#5E53D9"/>
<path d="M23.7058 48.5294H36.2941C37.7647 48.5294 38.2352 47.7647 37.5294 46.4705L30 32.2941L22.4705 46.4705C21.7647 47.7647 22.2353 48.5294 23.7058 48.5294ZM10.5882 34.4117H49.4117C50.5882 34.4117 51.1764 33.8235 51.1764 32.647C51.1764 31.4705 50.5882 30.8823 49.4117 30.8823H10.5882C9.41172 30.8823 8.82349 31.4705 8.82349 32.647C8.82349 33.8235 9.41172 34.4117 10.5882 34.4117ZM8.82349 14.9999V25.5882C8.82349 26.7647 9.41172 27.3529 10.5882 27.3529H21.1764C22.3529 27.3529 22.9411 26.7647 22.9411 25.5882V14.9999C22.9411 13.8235 22.3529 13.2352 21.1764 13.2352H10.5882C9.41172 13.2352 8.82349 13.8235 8.82349 14.9999ZM42.3529 28.2352C46.7647 28.2352 50.2941 24.7058 50.2941 20.2941C50.2941 15.8823 46.7647 12.3529 42.3529 12.3529C37.9411 12.3529 34.4117 15.8823 34.4117 20.2941C34.4117 24.7058 37.9411 28.2352 42.3529 28.2352Z" fill="white"/>
<path fill-rule="evenodd" clip-rule="evenodd" d="M0 4V37.5L1.23956 7.75058C1.38677 4.21741 4.21742 1.38677 7.75058 1.23956L37.5 0H4C1.79086 0 0 1.79086 0 4ZM60 56V45L59.1007 53.0933C58.7495 56.2542 56.2542 58.7495 53.0933 59.1007L45 60H56C58.2091 60 60 58.2091 60 56Z" fill="#9881F2"/>
</svg>
