<svg width="60" height="60" viewBox="0 0 60 60" fill="none" xmlns="http://www.w3.org/2000/svg">
<rect width="60" height="60" rx="4" fill="#008CD1"/>
<path d="M17.9437 36.6673L19.986 39.1179L29.2349 40.0238L26.2013 38.7302C20.2207 36.1997 22.7225 28.5861 28.9484 29.8779L29.7472 30.042C28.7219 28.5332 28.6854 27.2344 28.6484 26.6467L28.5896 25.5879H31.0601C31.4131 25.0585 31.4719 24.4114 31.4719 23.8232L28.6484 21.9997C30.0013 21.1173 30.7072 19.7644 30.7072 18.3526C30.7072 15.9997 28.766 14.1173 26.4719 14.1173C24.119 14.1173 22.1778 15.9997 22.1778 18.3526C22.1778 19.7644 22.8249 21.2938 24.2954 21.9997L21.4131 23.8232C21.4131 24.4114 21.5307 25.0585 21.8249 25.5879H24.2954V26.6467C24.2954 27.5879 24.1778 30.3526 20.0601 32.882C19.0501 33.542 18.3225 34.5614 17.9449 36.6673H17.9437ZM33.4119 50.8232L45.2943 48.882C47.0001 48.5879 47.6472 47.882 47.6472 46.1761V38.7644C47.6472 36.9997 47.0001 36.2938 45.2943 35.9408L28.4119 32.4702C25.2943 31.8232 24.1766 34.9997 27.2354 36.2938L31.2354 37.9997C35.4119 39.7644 34.4119 43.235 30.059 42.7644L18.6472 41.6467L15.706 38.1173C14.9413 37.0585 13.7649 36.9408 12.8825 37.5291C12.0001 38.0585 11.6472 39.0585 12.2943 40.1761L14.3531 43.5879C15.2943 45.1173 16.1766 45.9408 17.7649 46.5879L24.4119 49.5879C27.5884 50.9997 29.9413 51.4114 33.4119 50.8232Z" fill="#0069AB"/>
<path d="M17.9437 34.9027L19.986 37.3532L29.2349 38.2591L26.2013 36.9656C20.2207 34.435 22.7225 26.8215 28.9484 28.1132L29.7472 28.2774C28.7219 26.7685 28.6854 25.4697 28.6484 24.8821L28.5896 23.8232H31.0601C31.4131 23.2938 31.4719 22.6468 31.4719 22.0585L28.6484 20.235C30.0013 19.3527 30.7072 17.9997 30.7072 16.588C30.7072 14.235 28.766 12.3527 26.4719 12.3527C24.119 12.3527 22.1778 14.235 22.1778 16.588C22.1778 17.9997 22.8249 19.5291 24.2954 20.235L21.4131 22.0585C21.4131 22.6468 21.5307 23.2938 21.8249 23.8232H24.2954V24.8821C24.2954 25.8232 24.1778 28.588 20.0601 31.1174C19.0501 31.7774 18.3225 32.7968 17.9449 34.9027H17.9437ZM33.4119 49.0585L45.2943 47.1174C47.0001 46.8232 47.6472 46.1174 47.6472 44.4115V36.9997C47.6472 35.235 47.0001 34.5291 45.2943 34.1762L28.4119 30.7056C25.2943 30.0585 24.1766 33.235 27.2354 34.5291L31.2354 36.235C35.4119 37.9997 34.4119 41.4703 30.059 40.9997L18.6472 39.8821L15.706 36.3527C14.9413 35.2938 13.7649 35.1762 12.8825 35.7644C12.0001 36.2938 11.6472 37.2938 12.2943 38.4115L14.3531 41.8232C15.2943 43.3527 16.1766 44.1762 17.7649 44.8232L24.4119 47.8232C27.5884 49.235 29.9413 49.6468 33.4119 49.0585Z" fill="white"/>
<path fill-rule="evenodd" clip-rule="evenodd" d="M0 4V37.5L1.23956 7.75058C1.38677 4.21741 4.21742 1.38677 7.75058 1.23956L37.5 0H4C1.79086 0 0 1.79086 0 4ZM60 56V45L59.1007 53.0933C58.7495 56.2542 56.2542 58.7495 53.0933 59.1007L45 60H56C58.2091 60 60 58.2091 60 56Z" fill="#009FD9"/>
</svg>
