<svg width="60" height="60" viewBox="0 0 60 60" fill="none" xmlns="http://www.w3.org/2000/svg">
<rect width="60" height="60" rx="4" fill="#7A66F4"/>
<path d="M40.882 19.4118C40.882 17.6471 40.882 17.6471 42.9408 17.6471C44.9996 17.6471 44.9996 17.6471 44.9996 19.4118V45.8824C44.9996 47.6471 44.9996 47.6471 42.9408 47.6471C40.882 47.6471 40.882 47.6471 40.882 45.8824V19.4118ZM38.2349 19.4118V45.8824C38.2349 49.5883 38.9996 50.2942 42.9408 50.2942C46.882 50.2942 47.6467 49.5883 47.6467 45.8824V19.4118C47.6467 15.706 46.882 15.0001 42.9408 15.0001C38.9996 15.0001 38.2349 15.706 38.2349 19.4118ZM12.3525 40.5883V45.8824C12.3525 49.5883 13.1172 50.2942 17.0584 50.2942C20.9996 50.2942 21.7643 49.5883 21.7643 45.8824V40.5883C21.7643 36.8824 20.9996 36.1765 17.0584 36.1765C13.1172 36.1765 12.3525 36.8824 12.3525 40.5883ZM25.2937 30.0001V45.8824C25.2937 49.5883 26.0584 50.2942 29.9996 50.2942C33.9408 50.2942 34.7055 49.5883 34.7055 45.8824V30.0001C34.7055 26.2942 33.9408 25.5883 29.9996 25.5883C26.0584 25.5883 25.2937 26.2942 25.2937 30.0001Z" fill="#5E53D9"/>
<path d="M40.882 17.6472C40.882 15.8825 40.882 15.8825 42.9408 15.8825C44.9996 15.8825 44.9996 15.8825 44.9996 17.6472V44.1178C44.9996 45.8825 44.9996 45.8825 42.9408 45.8825C40.882 45.8825 40.882 45.8825 40.882 44.1178V17.6472ZM38.2349 17.6472V44.1178C38.2349 47.8237 38.9996 48.5295 42.9408 48.5295C46.882 48.5295 47.6467 47.8237 47.6467 44.1178V17.6472C47.6467 13.9413 46.882 13.2354 42.9408 13.2354C38.9996 13.2354 38.2349 13.9413 38.2349 17.6472ZM12.3525 38.8237V44.1178C12.3525 47.8237 13.1172 48.5295 17.0584 48.5295C20.9996 48.5295 21.7643 47.8237 21.7643 44.1178V38.8237C21.7643 35.1178 20.9996 34.4119 17.0584 34.4119C13.1172 34.4119 12.3525 35.1178 12.3525 38.8237ZM25.2937 28.2354V44.1178C25.2937 47.8237 26.0584 48.5295 29.9996 48.5295C33.9408 48.5295 34.7055 47.8237 34.7055 44.1178V28.2354C34.7055 24.5295 33.9408 23.8237 29.9996 23.8237C26.0584 23.8237 25.2937 24.5295 25.2937 28.2354Z" fill="white"/>
<path fill-rule="evenodd" clip-rule="evenodd" d="M0 4V37.5L1.23956 7.75058C1.38677 4.21741 4.21742 1.38677 7.75058 1.23956L37.5 0H4C1.79086 0 0 1.79086 0 4ZM60 56V45L59.1007 53.0933C58.7495 56.2542 56.2542 58.7495 53.0933 59.1007L45 60H56C58.2091 60 60 58.2091 60 56Z" fill="#9881F2"/>
</svg>
