<svg width="60" height="60" viewBox="0 0 60 60" fill="none" xmlns="http://www.w3.org/2000/svg">
<rect width="60" height="60" rx="4" fill="#E3AA24"/>
<path d="M38.2359 18.5291V44.9997C38.2359 48.7056 39.0006 49.4114 42.9418 49.4114C46.8829 49.4114 47.6476 48.7056 47.6476 44.9997V18.5291C47.6476 14.8232 46.8829 14.1173 42.9418 14.1173C39.0006 14.1173 38.2359 14.8232 38.2359 18.5291ZM12.3535 39.7056V44.9997C12.3535 48.7056 13.1182 49.4114 17.0594 49.4114C21.0006 49.4114 21.7653 48.7056 21.7653 44.9997V39.7056C21.7653 35.9997 21.0006 35.2938 17.0594 35.2938C13.1182 35.2938 12.3535 35.9997 12.3535 39.7056ZM25.2947 29.1173V44.9997C25.2947 48.7056 26.0594 49.4114 30.0006 49.4114C33.9418 49.4114 34.7065 48.7056 34.7065 44.9997V29.1173C34.7065 25.4114 33.9418 24.7056 30.0006 24.7056C26.0594 24.7056 25.2947 25.4114 25.2947 29.1173Z" fill="#CF8D1B"/>
<path d="M38.2359 16.7644V43.235C38.2359 46.9409 39.0006 47.6468 42.9418 47.6468C46.8829 47.6468 47.6476 46.9409 47.6476 43.235V16.7644C47.6476 13.0586 46.8829 12.3527 42.9418 12.3527C39.0006 12.3527 38.2359 13.0586 38.2359 16.7644ZM12.3535 37.9409V43.235C12.3535 46.9409 13.1182 47.6468 17.0594 47.6468C21.0006 47.6468 21.7653 46.9409 21.7653 43.235V37.9409C21.7653 34.235 21.0006 33.5291 17.0594 33.5291C13.1182 33.5291 12.3535 34.235 12.3535 37.9409ZM25.2947 27.3527V43.235C25.2947 46.9409 26.0594 47.6468 30.0006 47.6468C33.9418 47.6468 34.7065 46.9409 34.7065 43.235V27.3527C34.7065 23.6468 33.9418 22.9409 30.0006 22.9409C26.0594 22.9409 25.2947 23.6468 25.2947 27.3527Z" fill="white"/>
<path fill-rule="evenodd" clip-rule="evenodd" d="M0 4V37.5L1.23956 7.75058C1.38677 4.21741 4.21742 1.38677 7.75058 1.23956L37.5 0H4C1.79086 0 0 1.79086 0 4ZM60 56V45L59.1007 53.0933C58.7495 56.2542 56.2542 58.7495 53.0933 59.1007L45 60H56C58.2091 60 60 58.2091 60 56Z" fill="#FAD541"/>
</svg>
