<svg width="60" height="60" viewBox="0 0 60 60" fill="none" xmlns="http://www.w3.org/2000/svg">
<rect width="60" height="60" rx="4" fill="#81B64C"/>
<path fill-rule="evenodd" clip-rule="evenodd" d="M0 4V37.5L1.23956 7.75058C1.38677 4.21741 4.21742 1.38677 7.75058 1.23956L37.5 0H4C1.79086 0 0 1.79086 0 4ZM60 56V45L59.1007 53.0933C58.7495 56.2542 56.2542 58.7495 53.0933 59.1007L45 60H56C58.2091 60 60 58.2091 60 56Z" fill="#D8FA9D"/>
<path d="M40.8829 18.529C40.8829 16.7643 40.8829 16.7643 42.9418 16.7643C45.0006 16.7643 45.0006 16.7643 45.0006 18.529V44.9996C45.0006 46.7643 45.0006 46.7643 42.9418 46.7643C40.8829 46.7643 40.8829 46.7643 40.8829 44.9996V18.529ZM38.2359 18.529V44.9996C38.2359 48.7055 39.0006 49.4114 42.9418 49.4114C46.8829 49.4114 47.6476 48.7055 47.6476 44.9996V18.529C47.6476 14.8231 46.8829 14.1173 42.9418 14.1173C39.0006 14.1173 38.2359 14.8231 38.2359 18.529ZM15.0006 39.7055C15.0006 37.9408 15.0006 37.9408 17.0594 37.9408C19.1182 37.9408 19.1182 37.9408 19.1182 39.7055V44.9996C19.1182 46.7643 19.1182 46.7643 17.0594 46.7643C15.0006 46.7643 15.0006 46.7643 15.0006 44.9996V39.7055ZM12.3535 39.7055V44.9996C12.3535 48.7055 13.1182 49.4114 17.0594 49.4114C21.0006 49.4114 21.7653 48.7055 21.7653 44.9996V39.7055C21.7653 35.9996 21.0006 35.2937 17.0594 35.2937C13.1182 35.2937 12.3535 35.9996 12.3535 39.7055ZM27.9418 29.1173C27.9418 27.3526 27.9418 27.3526 30.0006 27.3526C32.0594 27.3526 32.0594 27.3526 32.0594 29.1173V44.9996C32.0594 46.7643 32.0594 46.7643 30.0006 46.7643C27.9418 46.7643 27.9418 46.7643 27.9418 44.9996V29.1173ZM25.2947 29.1173V44.9996C25.2947 48.7055 26.0594 49.4114 30.0006 49.4114C33.9418 49.4114 34.7065 48.7055 34.7065 44.9996V29.1173C34.7065 25.4114 33.9418 24.7055 30.0006 24.7055C26.0594 24.7055 25.2947 25.4114 25.2947 29.1173Z" fill="#5D9948"/>
<path d="M40.8829 16.7644C40.8829 14.9997 40.8829 14.9997 42.9418 14.9997C45.0006 14.9997 45.0006 14.9997 45.0006 16.7644V43.235C45.0006 44.9997 45.0006 44.9997 42.9418 44.9997C40.8829 44.9997 40.8829 44.9997 40.8829 43.235V16.7644ZM38.2359 16.7644V43.235C38.2359 46.9408 39.0006 47.6467 42.9418 47.6467C46.8829 47.6467 47.6476 46.9408 47.6476 43.235V16.7644C47.6476 13.0585 46.8829 12.3526 42.9418 12.3526C39.0006 12.3526 38.2359 13.0585 38.2359 16.7644ZM15.0006 37.9408C15.0006 36.1761 15.0006 36.1761 17.0594 36.1761C19.1182 36.1761 19.1182 36.1761 19.1182 37.9408V43.235C19.1182 44.9997 19.1182 44.9997 17.0594 44.9997C15.0006 44.9997 15.0006 44.9997 15.0006 43.235V37.9408ZM12.3535 37.9408V43.235C12.3535 46.9408 13.1182 47.6467 17.0594 47.6467C21.0006 47.6467 21.7653 46.9408 21.7653 43.235V37.9408C21.7653 34.235 21.0006 33.5291 17.0594 33.5291C13.1182 33.5291 12.3535 34.235 12.3535 37.9408ZM27.9418 27.3526C27.9418 25.5879 27.9418 25.5879 30.0006 25.5879C32.0594 25.5879 32.0594 25.5879 32.0594 27.3526V43.235C32.0594 44.9997 32.0594 44.9997 30.0006 44.9997C27.9418 44.9997 27.9418 44.9997 27.9418 43.235V27.3526ZM25.2947 27.3526V43.235C25.2947 46.9408 26.0594 47.6467 30.0006 47.6467C33.9418 47.6467 34.7065 46.9408 34.7065 43.235V27.3526C34.7065 23.6467 33.9418 22.9408 30.0006 22.9408C26.0594 22.9408 25.2947 23.6467 25.2947 27.3526Z" fill="white"/>
</svg>
