<svg width="60" height="60" viewBox="0 0 60 60" fill="none" xmlns="http://www.w3.org/2000/svg">
<rect width="60" height="60" rx="4" fill="#E3AA24"/>
<path d="M29.1182 49.4702H30.8829C32.8241 49.4702 33.53 48.7643 33.53 46.8232V37.9408C33.53 35.9996 32.8241 35.2937 30.8829 35.2937H29.1182C27.177 35.2937 26.4712 35.9996 26.4712 37.9408V46.8232C26.4712 48.7643 27.177 49.4702 29.1182 49.4702ZM15.0006 49.4702H16.7653C18.7065 49.4702 19.4123 48.7643 19.4123 46.8232V44.9996C19.4123 43.0584 18.7065 42.3526 16.7653 42.3526H15.0006C13.0594 42.3526 12.3535 43.0584 12.3535 44.9996V46.8232C12.3535 48.7643 13.0594 49.4702 15.0006 49.4702ZM43.2359 49.4702H45.0006C46.9418 49.4702 47.6476 48.7643 47.6476 46.8232V44.9996C47.6476 43.0584 46.9418 42.3526 45.0006 42.3526H43.2359C41.2947 42.3526 40.5888 43.0584 40.5888 44.9996V46.8232C40.5888 48.7643 41.2947 49.4702 43.2359 49.4702ZM23.0594 30.2937L24.8241 23.3526L19.5888 19.2937C18.5888 18.529 18.7653 17.9996 20.0006 17.9408L26.9418 17.4114L29.2359 11.2349C29.7065 10.0584 30.2359 10.0584 30.7065 11.2349L33.177 17.4114L39.9418 17.882C41.177 17.9996 41.3535 18.529 40.3535 19.2937L35.177 23.3526L36.9418 30.2937C37.2359 31.529 36.8241 31.8232 35.7653 31.0584L30.0006 26.9408L24.177 31.0584C23.1182 31.8232 22.7065 31.529 23.0594 30.2937Z" fill="#CF8D1B"/>
<path d="M29.1182 47.7056H30.8829C32.8241 47.7056 33.53 46.9997 33.53 45.0585V36.1762C33.53 34.235 32.8241 33.5291 30.8829 33.5291H29.1182C27.177 33.5291 26.4712 34.235 26.4712 36.1762V45.0585C26.4712 46.9997 27.177 47.7056 29.1182 47.7056ZM15.0006 47.7056H16.7653C18.7065 47.7056 19.4123 46.9997 19.4123 45.0585V43.235C19.4123 41.2938 18.7065 40.5879 16.7653 40.5879H15.0006C13.0594 40.5879 12.3535 41.2938 12.3535 43.235V45.0585C12.3535 46.9997 13.0594 47.7056 15.0006 47.7056ZM43.2359 47.7056H45.0006C46.9418 47.7056 47.6476 46.9997 47.6476 45.0585V43.235C47.6476 41.2938 46.9418 40.5879 45.0006 40.5879H43.2359C41.2947 40.5879 40.5888 41.2938 40.5888 43.235V45.0585C40.5888 46.9997 41.2947 47.7056 43.2359 47.7056ZM23.0594 28.5291L24.8241 21.5879L19.5888 17.5291C18.5888 16.7644 18.7653 16.235 20.0006 16.1762L26.9418 15.6467L29.2359 9.47027C29.7065 8.2938 30.2359 8.2938 30.7065 9.47027L33.177 15.6467L39.9418 16.1173C41.177 16.235 41.3535 16.7644 40.3535 17.5291L35.177 21.5879L36.9418 28.5291C37.2359 29.7644 36.8241 30.0585 35.7653 29.2938L30.0006 25.1762L24.177 29.2938C23.1182 30.0585 22.7065 29.7644 23.0594 28.5291Z" fill="white"/>
<path fill-rule="evenodd" clip-rule="evenodd" d="M0 4V37.5L1.23956 7.75058C1.38677 4.21741 4.21742 1.38677 7.75058 1.23956L37.5 0H4C1.79086 0 0 1.79086 0 4ZM60 56V45L59.1007 53.0933C58.7495 56.2542 56.2542 58.7495 53.0933 59.1007L45 60H56C58.2091 60 60 58.2091 60 56Z" fill="#FAD541"/>
</svg>
