<svg width="60" height="60" viewBox="0 0 60 60" fill="none" xmlns="http://www.w3.org/2000/svg">
<rect width="60" height="60" rx="4" fill="#81B64C"/>
<path fill-rule="evenodd" clip-rule="evenodd" d="M0 4V37.5L1.23956 7.75058C1.38677 4.21741 4.21742 1.38677 7.75058 1.23956L37.5 0H4C1.79086 0 0 1.79086 0 4ZM60 56V45L59.1007 53.0933C58.7495 56.2542 56.2542 58.7495 53.0933 59.1007L45 60H56C58.2091 60 60 58.2091 60 56Z" fill="#D8FA9D"/>
<path d="M30.0011 50.2938C40.2364 50.2938 48.5305 41.9997 48.5305 31.7644C48.5305 21.5291 40.2364 13.235 30.0011 13.235C19.7658 13.235 11.4717 21.5291 11.4717 31.7644C11.4717 41.9997 19.7658 50.2938 30.0011 50.2938ZM30.1776 46.235C28.4717 46.235 25.5893 44.9997 25.7658 41.1174L25.9011 38.4562C24.5881 38.2526 23.3758 37.9538 22.3481 37.5744C21.6764 37.3268 21.1976 36.6809 21.1976 35.9232C21.1976 34.9509 21.9858 34.1626 22.9581 34.1626C23.1752 34.1626 23.3829 34.2021 23.5746 34.2738C25.107 34.8468 27.4493 35.2344 30.0011 35.2344C32.5534 35.2344 34.8952 34.8468 36.4276 34.2738C36.6193 34.2021 36.827 34.1632 37.044 34.1632C38.0158 34.1632 38.804 34.9509 38.804 35.9232C38.804 36.6809 38.3258 37.3262 37.654 37.5738C36.7181 37.9197 35.6299 38.1979 34.4511 38.3985L34.5893 41.1162C34.7658 44.9985 31.8834 46.2338 30.1776 46.2338V46.235ZM22.9423 30.5879C21.0011 30.5879 19.4129 28.9997 19.4129 27.1174C19.4129 25.1762 21.0011 23.5291 22.9423 23.5291C24.8246 23.5291 26.4717 25.1762 26.4717 27.1174C26.4717 28.9997 24.8246 30.5879 22.9423 30.5879ZM35.2364 29.9997C34.2617 29.9997 33.4717 29.2097 33.4717 28.235C33.4717 27.2603 34.2617 26.4703 35.2364 26.4703H40.7658C41.7405 26.4703 42.5305 27.2603 42.5305 28.235C42.5305 29.2097 41.7405 29.9997 40.7658 29.9997H35.2364Z" fill="#5D9948"/>
<path d="M30.0011 48.5292C40.2364 48.5292 48.5305 40.2351 48.5305 29.9998C48.5305 19.7645 40.2364 11.4704 30.0011 11.4704C19.7658 11.4704 11.4717 19.7645 11.4717 29.9998C11.4717 40.2351 19.7658 48.5292 30.0011 48.5292ZM30.1776 44.4704C28.4717 44.4704 25.5893 43.2351 25.7658 39.3527L25.9011 36.6915C24.5881 36.488 23.3758 36.1892 22.3481 35.8098C21.6764 35.5621 21.1976 34.9162 21.1976 34.1586C21.1976 33.1862 21.9858 32.398 22.9581 32.398C23.1752 32.398 23.3829 32.4374 23.5746 32.5092C25.107 33.0821 27.4493 33.4698 30.0011 33.4698C32.5534 33.4698 34.8952 33.0821 36.4276 32.5092C36.6193 32.4374 36.827 32.3986 37.044 32.3986C38.0158 32.3986 38.804 33.1862 38.804 34.1586C38.804 34.9162 38.3258 35.5615 37.654 35.8092C36.7181 36.1551 35.6299 36.4333 34.4511 36.6339L34.5893 39.3515C34.7658 43.2339 31.8834 44.4692 30.1776 44.4692V44.4704ZM22.9423 28.8233C21.0011 28.8233 19.4129 27.2351 19.4129 25.3527C19.4129 23.4115 21.0011 21.7645 22.9423 21.7645C24.8246 21.7645 26.4717 23.4115 26.4717 25.3527C26.4717 27.2351 24.8246 28.8233 22.9423 28.8233ZM35.2364 28.2351C34.2617 28.2351 33.4717 27.4451 33.4717 26.4704C33.4717 25.4956 34.2617 24.7056 35.2364 24.7056H40.7658C41.7405 24.7056 42.5305 25.4956 42.5305 26.4704C42.5305 27.4451 41.7405 28.2351 40.7658 28.2351H35.2364Z" fill="white"/>
</svg>
