<svg width="60" height="60" viewBox="0 0 60 60" fill="none" xmlns="http://www.w3.org/2000/svg">
<rect width="60" height="60" rx="4" fill="#7A66F4"/>
<path d="M47.6471 53.8825V39.059C41.0589 33.8237 31.4707 34.9413 23.4118 40.8825L24.706 23.8825C29.353 27.8825 37.5295 26.7649 36.8236 18.5884C35.8236 14.7649 34.1177 13.6472 30.2354 14.1178L26.4118 14.5884C22.5295 15.059 20.706 16.7649 19.2354 21.2943L12.0589 43.7649C10.8824 47.5296 12.0589 49.1178 16.706 50.059C26.4118 52.059 34.4118 54.2943 47.6471 53.8825Z" fill="#5E53D9"/>
<path d="M47.6471 52.1179V37.2943C41.0589 32.059 31.4707 33.1767 23.4118 39.1179L24.706 22.1179C29.353 26.1179 37.5295 25.0002 36.8236 16.8238C35.8236 13.0002 34.1177 11.8826 30.2354 12.3532L26.4118 12.8238C22.5295 13.2943 20.706 15.0002 19.2354 19.5296L12.0589 42.0002C10.8824 45.7649 12.0589 47.3532 16.706 48.2943C26.4118 50.2943 34.4118 52.5296 47.6471 52.1179Z" fill="white"/>
<path fill-rule="evenodd" clip-rule="evenodd" d="M0 4V37.5L1.23956 7.75058C1.38677 4.21741 4.21742 1.38677 7.75058 1.23956L37.5 0H4C1.79086 0 0 1.79086 0 4ZM60 56V45L59.1007 53.0933C58.7495 56.2542 56.2542 58.7495 53.0933 59.1007L45 60H56C58.2091 60 60 58.2091 60 56Z" fill="#9881F2"/>
</svg>
