<svg width="60" height="60" viewBox="0 0 60 60" fill="none" xmlns="http://www.w3.org/2000/svg">
<rect width="60" height="60" rx="4" fill="#FA742C"/>
<path d="M23.5299 22.9408H36.7652C39.7064 22.9408 43.0593 21.3526 43.0593 17.4114C43.0593 14.2937 40.824 12.0584 37.5299 12.0584C33.5888 12.0584 30.5888 15.5878 29.177 21.1173H30.8829C29.5299 15.6467 26.5888 12.0584 22.5888 12.0584C19.2946 12.0584 16.9417 14.1761 16.9417 17.4114C16.9417 21.3526 20.2946 22.9408 23.5299 22.9408ZM19.4123 49.4114H28.2358V38.8231H14.1182V44.1173C14.1182 48.0584 15.4711 49.4114 19.4123 49.4114ZM14.1182 31.7643V35.2937H28.2358V26.4702H19.4123C15.4711 26.4702 14.1182 27.8231 14.1182 31.7643ZM31.7652 49.4114H40.5888C44.5299 49.4114 45.8829 48.0584 45.8829 44.1173V38.8231H31.7652V49.4114ZM31.7652 35.2937H45.8829V31.7643C45.8829 27.8231 44.5299 26.4702 40.5888 26.4702H31.7652V35.2937ZM27.7652 21.1173H32.4123C33.5888 16.7643 35.4711 15.1173 37.3535 15.1173C38.6476 15.1173 39.9417 15.882 39.9417 17.4114C39.9417 19.4702 37.7064 19.8231 36.7652 19.8231H23.5299C22.2946 19.8231 20.0593 19.4702 20.0593 17.4114C20.0593 15.882 21.3535 15.1173 22.7652 15.1173C24.824 15.1173 26.4711 16.7643 27.7652 21.1173Z" fill="#DC501D"/>
<path d="M23.5299 21.1761H36.7652C39.7064 21.1761 43.0593 19.5879 43.0593 15.6467C43.0593 12.5291 40.824 10.2938 37.5299 10.2938C33.5888 10.2938 30.5888 13.8232 29.177 19.3526H30.8829C29.5299 13.882 26.5888 10.2938 22.5888 10.2938C19.2946 10.2938 16.9417 12.4114 16.9417 15.6467C16.9417 19.5879 20.2946 21.1761 23.5299 21.1761ZM19.4123 47.6467H28.2358V37.0585H14.1182V42.3526C14.1182 46.2938 15.4711 47.6467 19.4123 47.6467ZM14.1182 29.9997V33.5291H28.2358V24.7056H19.4123C15.4711 24.7056 14.1182 26.0585 14.1182 29.9997ZM31.7652 47.6467H40.5888C44.5299 47.6467 45.8829 46.2938 45.8829 42.3526V37.0585H31.7652V47.6467ZM31.7652 33.5291H45.8829V29.9997C45.8829 26.0585 44.5299 24.7056 40.5888 24.7056H31.7652V33.5291ZM27.7652 19.3526H32.4123C33.5888 14.9997 35.4711 13.3526 37.3535 13.3526C38.6476 13.3526 39.9417 14.1173 39.9417 15.6467C39.9417 17.7056 37.7064 18.0585 36.7652 18.0585H23.5299C22.2946 18.0585 20.0593 17.7056 20.0593 15.6467C20.0593 14.1173 21.3535 13.3526 22.7652 13.3526C24.824 13.3526 26.4711 14.9997 27.7652 19.3526Z" fill="white"/>
<path fill-rule="evenodd" clip-rule="evenodd" d="M0 4V37.5L1.23956 7.75058C1.38677 4.21741 4.21742 1.38677 7.75058 1.23956L37.5 0H4C1.79086 0 0 1.79086 0 4ZM60 56V45L59.1007 53.0933C58.7495 56.2542 56.2542 58.7495 53.0933 59.1007L45 60H56C58.2091 60 60 58.2091 60 56Z" fill="#FFA459"/>
</svg>
