<svg width="62" height="63" viewBox="0 0 62 63" fill="none" xmlns="http://www.w3.org/2000/svg">
<g clip-path="url(#clip0_755_10036)">
<path d="M0 5.39087C0 2.62944 2.23858 0.390869 5 0.390869H57C59.7614 0.390869 62 2.62945 62 5.39087V57.3909C62 60.1523 59.7614 62.3909 57 62.3909H5C2.23858 62.3909 0 60.1523 0 57.3909V5.39087Z" fill="white" fill-opacity="0.08"/>
<mask id="mask0_755_10036" style="mask-type:luminance" maskUnits="userSpaceOnUse" x="0" y="0" width="62" height="63">
<path d="M62 0.390869H0V62.3909H62V0.390869Z" fill="white"/>
</mask>
<g mask="url(#mask0_755_10036)">
<path d="M39.9496 42.605L41.4591 43.1441L43.4539 47.2954L44.4243 52.3632H35.6904V46.1093L39.9496 42.605Z" fill="#F2F1F1"/>
<path d="M22.1583 42.605L20.2174 43.3058L18.8156 47.2415L17.6835 52.3632H26.4174V46.1093L22.1583 42.605Z" fill="#F2F1F1"/>
<path d="M42.8069 50.3684H19.9478V57.3232H42.8069V50.3684Z" fill="#1E2122"/>
<path d="M38.7096 41.5806L40.8122 43.3058L39.7879 46.6484L38.7096 41.5806Z" fill="#898785"/>
<path d="M43.2922 25.7302C43.6695 22.4415 44.5861 22.4954 44.8017 20.878C44.9095 20.1232 47.2278 9.17889 36.7687 6.75281V25.7302H43.3461H43.2922Z" fill="#866241"/>
<path d="M42.9687 31.8762C42.9687 31.8762 43.7235 31.9301 44.3165 31.391C44.5861 31.1214 44.8556 30.2588 44.9096 29.9892C45.0713 29.2884 46.0956 24.544 45.5565 23.3579C45.4487 23.1423 45.3409 22.9266 45.1791 22.7649C44.5322 22.0101 43.2922 22.5492 43.2922 22.5492L43.0226 31.8223L42.9687 31.8762Z" fill="#CDA98B"/>
<path d="M42.9687 31.2293C42.9687 31.2293 43.7235 31.2832 44.3165 30.7441C44.5861 30.4745 44.8556 29.6119 44.9096 29.3963C45.0713 28.6954 46.0956 24.0589 45.5565 22.8728C45.4487 22.6572 45.3409 22.4415 45.1791 22.2798C44.5322 21.525 43.2922 22.0641 43.2922 22.0641L43.0226 31.1754L42.9687 31.2293Z" fill="#B88C69"/>
<path d="M23.2905 41.5806L21.1879 43.3058L22.2122 46.6484L23.2905 41.5806Z" fill="#898785"/>
<path d="M39.3565 29.3423L31 30.2049L22.6435 29.3423L21.5113 49.0745C21.5113 49.0745 24.8539 53.7649 31 53.7649C37.1461 53.7649 40.4887 49.0745 40.4887 49.0745L39.3565 29.3423Z" fill="#B88C69"/>
<path d="M59.8435 56.0832C57.8487 50.3685 44.9635 47.2415 41.2435 45.8937L36.9844 51.5545C36.9844 51.5545 37.5774 52.9563 35.4209 55.2745C35.4209 55.2745 34.1809 55.9215 32.3478 56.0832V63.9545H60.8139L59.8435 56.0293V56.0832Z" fill="#53636A"/>
<path d="M2.15653 56.0832C4.15131 50.3685 17.0365 47.2415 20.7565 45.8937L25.0157 51.5545C25.0157 51.5545 24.4226 52.9563 26.5791 55.2745C26.5791 55.2745 27.8191 55.9215 29.6522 56.0832V63.9545H1.1861L2.15653 56.0293V56.0832Z" fill="#53636A"/>
<path d="M58.8731 56.1371C56.7705 51.0153 44.64 47.2953 40.8661 45.9475L36.607 51.6084C36.607 51.6084 37.2 53.0101 35.0435 55.3284C35.0435 55.3284 33.3722 56.191 31 56.191C28.6279 56.191 26.9565 55.3284 26.9565 55.3284C24.8539 53.0101 25.3931 51.6084 25.3931 51.6084L21.1339 45.9475C17.4139 47.2953 5.28351 51.0153 3.12698 56.1371L1.1322 64.0084H60.8139L58.8192 56.1371H58.8731Z" fill="#3E5058"/>
<path d="M35.0435 55.3284L36.4452 49.7214L41.9982 47.9962L35.0435 55.3284Z" fill="#898785"/>
<path d="M18.2765 28.2101H23.1287C23.4522 24.7058 24.0452 21.2014 24.8539 17.8049C25.7165 14.4623 26.5252 11.1197 27.6574 7.88492C27.8731 7.23796 28.1426 6.53709 28.4122 5.89014C14.2331 6.91448 16.8748 18.4519 17.0365 19.3145C17.2522 20.5545 18.007 24.7597 18.3305 28.2101H18.2765Z" fill="#866241"/>
<path d="M38.6017 11.4971C32.9409 13.6537 21.08 16.8345 15.4191 12.3058C15.4191 12.3058 18.2765 9.61019 19.193 8.74758C22.1583 5.9441 25.1774 5.08149 28.2504 4.86584C34.8278 4.38062 39.9496 6.7528 40.273 7.23801C40.9739 8.31628 40.6504 10.7424 38.6017 11.4971Z" fill="#866241"/>
<path d="M36.4452 49.7214L41.8365 53.6571L43.4539 46.9719L40.8121 43.3058L36.4452 49.7214Z" fill="#F0F0F1"/>
<path d="M26.9026 55.3284L25.5008 49.7214L20.0017 47.9962L26.9026 55.3284Z" fill="#898785"/>
<path d="M25.5009 49.7214L20.1635 53.6571L18.5461 46.9719L21.1878 43.3058L25.5009 49.7214Z" fill="#F0F0F1"/>
<path d="M18.9774 31.5527C18.9774 31.5527 18.2226 31.6605 17.6296 31.1214C17.36 30.8519 17.0904 29.9892 17.0365 29.7197C16.8209 29.0188 15.6887 24.2205 16.1739 22.9805C16.2818 22.7649 16.3896 22.5492 16.5513 22.3875C17.1983 21.5788 18.4383 22.1179 18.4383 22.1179L19.0313 31.5527H18.9774Z" fill="#CDA98B"/>
<path d="M19.1392 31.9302C19.1392 31.9302 18.3844 31.9841 17.7913 31.445C17.5218 31.1754 17.2522 30.2589 17.1983 30.0432C17.0366 29.3423 16.0122 24.4902 16.5513 23.3041C16.6592 23.0884 16.767 22.8728 16.9287 22.711C17.5757 21.9563 18.8157 22.4954 18.8157 22.4954L19.0853 31.9302H19.1392Z" fill="#B88C69"/>
<path d="M44.0469 29.7737C44.3165 29.5041 44.64 28.318 44.6939 28.1024C44.8556 27.4554 45.826 24.7058 45.2869 23.6276C45.1791 23.4119 44.9095 22.9267 44.4782 23.4119C43.6156 24.598 43.7234 26.8084 43.7234 26.8084C43.7234 26.8084 44.9634 26.9702 44.1008 29.7197L44.0469 29.7737Z" fill="#997050"/>
<path d="M17.4678 23.8432C17.0365 23.358 16.767 23.8432 16.6591 24.0588C16.12 25.191 17.0904 28.0484 17.2522 28.6954C17.3007 28.8841 17.5541 29.8653 17.7967 30.2804C17.0203 27.6117 18.2172 27.4015 18.2172 27.4015C18.2172 27.4015 18.325 25.0832 17.4624 23.8432H17.4678Z" fill="#997050"/>
<path d="M22.2661 40.4484C24.4226 42.8745 27.0644 45.4084 27.8192 45.7858C28.4122 46.0553 29.5983 46.2171 30.8383 46.2171C32.1861 46.2171 33.5339 46.2171 34.127 45.8936C34.8818 45.5162 37.5235 42.9284 39.7339 40.4484H22.2661Z" fill="#A37148"/>
<path d="M31 30.2588L22.6435 29.3423L21.9426 41.5805C23.7218 43.3058 27.4957 46.5405 28.3583 46.864C28.8435 47.0258 29.8678 47.1336 30.9461 47.1336C32.0783 47.1336 33.2105 47.1336 33.7496 46.9179C34.6122 46.5945 38.2244 43.3058 40.0574 41.5805L39.4644 29.3423L31.1078 30.2588H31Z" fill="#976F50"/>
<path d="M18.778 26.8731C18.778 26.8731 18.999 35.9035 19.22 36.5936C19.8293 38.4913 23.6463 41.7045 27.4148 43.9958C27.83 44.2492 34.3265 44.2007 34.7416 43.9473C38.5155 41.656 42.1169 38.4859 42.7261 36.5882C42.9472 35.8981 43.1682 27.1858 43.1682 27.1858L18.778 26.8677V26.8731Z" fill="#866241"/>
<path d="M31 5.83618C14.3948 5.83618 17.7913 19.1527 17.8992 20.0153C18.2766 22.5492 19.6244 35.0571 19.6783 35.6501C19.84 36.8362 20.7026 38.1301 21.3496 39.1005C22.3739 40.5023 27.2261 44.1144 28.2505 44.4918C28.7357 44.6536 29.76 44.7614 30.8383 44.7614C31.9705 44.7614 33.1026 44.7614 33.6418 44.5457C34.6661 44.2223 39.5722 40.5023 40.5966 39.1005C41.2974 38.1301 42.16 36.8362 42.2679 35.6501C42.3757 35.0031 43.6696 22.5492 44.047 20.0153C44.1548 19.1527 47.5513 5.83618 30.9461 5.83618H31Z" fill="#563C24"/>
<path d="M38.6449 11.0658H38.7527C36.8172 9.8851 35.0489 10.1493 30.9353 10.1493C26.8433 10.1493 25.075 9.89049 23.1449 11.0658H23.2527C18.8318 13.7075 19.2631 19.4223 19.2631 19.4223C19.6405 36.1893 23.7379 35.6501 23.7379 35.6501C23.4198 29.6442 29.3395 31.515 30.9623 31.6013C32.6336 31.4881 38.4724 29.6766 38.1597 35.6448C38.1597 35.6448 42.2571 36.1839 42.6344 19.4169C42.6344 19.4169 43.0658 13.7021 38.6449 11.0604V11.0658Z" fill="#CDA98B"/>
<path d="M32.7899 21.2821C32.5311 21.8321 32.3209 22.4467 32.1484 23.0667C31.6092 24.9644 33.4369 26.7651 35.8737 26.7921L37.2054 26.8028C38.9468 26.819 40.4941 25.9079 40.9631 24.5708C41.3998 23.3254 41.7449 21.886 41.3675 21.1527C40.6127 19.6486 34.5744 20.5921 32.7953 21.2821H32.7899Z" fill="url(#paint0_linear_755_10036)"/>
<path d="M20.5301 21.1582C20.1473 21.8968 20.4977 23.3363 20.9344 24.5763C21.4035 25.9133 22.9508 26.8244 24.6922 26.8083L26.0238 26.7975C28.4607 26.7705 30.283 24.9698 29.7492 23.0721C29.7438 23.0451 29.733 23.0236 29.7277 22.9966C29.3988 21.859 28.272 20.9749 26.8433 20.7107C24.3795 20.2632 21.08 20.0691 20.5301 21.1582Z" fill="url(#paint1_linear_755_10036)"/>
<path d="M31.0539 33.6014C27.5496 33.224 25.5548 32.6849 25.8243 36.8362C25.8243 36.8362 27.1722 38.184 28.7896 38.2918H28.9513C29.2209 37.591 30.0296 37.0518 30.9461 37.0518C31.8626 37.0518 32.6713 37.591 32.9409 38.2918H33.1026C34.8278 38.2918 36.2296 36.8362 36.2296 36.8362C36.4452 32.6849 34.5043 33.224 31 33.6014H31.0539Z" fill="#CDA98B"/>
<path d="M39.4104 11.4432C33.8035 13.5997 21.7809 15.2171 16.8209 11.8745C16.8209 11.8745 19.4087 9.55623 20.2713 8.69363C23.1826 5.89015 26.2017 5.02754 29.2209 4.81189C35.7443 4.32667 40.7582 6.69884 41.0278 7.18406C41.7287 8.26232 41.4052 10.6884 39.4104 11.4432Z" fill="#563C24"/>
<path d="M16.8209 11.7667L15.4191 12.3059C16.713 13.3841 17.7913 13.2763 19.7322 13.1146C17.6296 12.5754 16.767 11.7667 16.767 11.7667H16.8209Z" fill="#866241"/>
<path d="M32.186 22.3336H30.9514H29.7114C30.0349 26.5927 28.3097 29.9893 28.3097 30.5284C28.3097 31.0675 29.6575 31.7145 30.8975 31.7145C30.9137 31.7145 30.9299 31.7145 30.946 31.7145C30.946 31.7145 30.9838 31.7145 31 31.7199C32.24 31.7199 33.5878 31.0729 33.5878 30.5338C33.5878 29.9947 31.8626 26.5981 32.186 22.339V22.3336Z" fill="#CDA98B"/>
<path d="M35.0435 10.9579C35.0435 10.9579 21.4035 9.77183 26.7409 5.83618C26.7409 5.83618 25.0157 5.99792 22.6974 7.39966C22.2661 7.72314 21.6731 8.37009 21.2418 8.74749C21.0261 8.90922 19.3548 10.4188 19.1392 10.6344C22.4818 12.6831 35.0435 10.9579 35.0435 10.9579Z" fill="#6F5136"/>
<path d="M33.8844 29.5417C34.8009 30.7278 33.7766 31.3748 32.86 31.3748C32.3748 31.5904 31.9974 32.0757 31.4583 32.0217C30.7574 32.0217 30.0026 32.1296 29.4096 31.5904C29.3018 31.4826 29.14 31.4287 29.0322 31.3748H29.0861C28.8705 31.3748 28.6009 31.3748 28.3852 31.267C27.5226 31.0513 27.4687 30.1348 27.9539 29.5417C27.9 29.7574 27.8461 29.9731 27.7922 30.1887C27.7383 30.8896 28.4392 31.0513 29.0861 30.9974C29.4635 31.0513 29.7331 31.267 30.0566 31.4287C30.2722 31.5365 30.5957 31.4826 30.9192 31.4826C31.2426 31.4826 31.5661 31.4826 31.7818 31.4287C32.1052 31.267 32.3748 31.0513 32.7522 30.9974C33.8305 31.1052 34.3696 30.62 33.8844 29.5957V29.5417Z" fill="#A97363"/>
<path d="M20.7026 22.3336C22.2122 20.9858 29.2209 21.8484 29.2209 21.8484C29.0591 20.878 28.9513 20.1232 28.3044 19.3684H26.7948C24.8539 19.0988 22.967 18.9371 22.32 19.3684C21.727 19.7458 20.8104 20.3928 20.5409 21.0936C20.3791 21.5249 20.5409 22.0641 20.7026 22.3336Z" fill="url(#paint2_linear_755_10036)"/>
<path d="M33.6417 24.8137C34.1162 23.633 36.2403 23.3365 37.9655 23.7678C38.9899 24.0373 39.3026 24.4902 39.4104 24.598C38.4939 25.5685 37.2 25.7302 35.4748 25.5685C34.2887 25.4606 33.6417 24.8137 33.6417 24.8137Z" fill="white"/>
<mask id="mask1_755_10036" style="mask-type:luminance" maskUnits="userSpaceOnUse" x="33" y="23" width="7" height="3">
<path d="M33.6417 24.8135C34.6661 23.4118 36.3374 23.3578 38.0626 23.7891C39.0869 24.0587 39.3026 24.49 39.4104 24.5978C38.4939 25.5683 37.2 25.73 35.4748 25.5683C34.2887 25.4605 33.6417 24.8135 33.6417 24.8135Z" fill="white"/>
</mask>
<g mask="url(#mask1_755_10036)">
<path d="M37.9548 24.8676C37.9009 25.6763 37.2 26.2693 36.3374 26.2154C35.5287 26.1615 34.8817 25.4606 34.9356 24.7058C34.9895 23.8971 35.6904 23.3041 36.553 23.358C37.3617 23.4119 38.0087 24.1128 37.9548 24.8676Z" fill="url(#paint3_linear_755_10036)"/>
</g>
<path d="M35.2052 25.0832C35.4732 25.0832 35.6904 24.8901 35.6904 24.6519C35.6904 24.4137 35.4732 24.2206 35.2052 24.2206C34.9372 24.2206 34.72 24.4137 34.72 24.6519C34.72 24.8901 34.9372 25.0832 35.2052 25.0832Z" fill="white"/>
<path d="M28.3043 24.8135C27.28 23.4118 25.6087 23.3578 23.8835 23.7891C23.2581 23.9994 22.6435 24.49 22.5356 24.5978C23.4522 25.5683 24.7461 25.73 26.4713 25.5683C28.1965 25.4065 28.3043 24.8135 28.3043 24.8135Z" fill="white"/>
<mask id="mask2_755_10036" style="mask-type:luminance" maskUnits="userSpaceOnUse" x="22" y="23" width="7" height="3">
<path d="M28.3043 24.8135C27.28 23.4118 25.6087 23.3578 23.8835 23.7891C23.3282 24.0749 22.6435 24.49 22.5356 24.5978C23.4522 25.5683 24.7461 25.73 26.4713 25.5683C28.1965 25.4065 28.3043 24.8135 28.3043 24.8135Z" fill="white"/>
</mask>
<g mask="url(#mask2_755_10036)">
<path d="M23.9913 24.8676C24.0452 25.6763 24.7461 26.2693 25.6087 26.2154C26.4713 26.1615 27.0643 25.4606 27.0104 24.7058C26.9565 23.8971 26.2556 23.3041 25.393 23.358C24.5843 23.4119 23.9374 24.1128 23.9913 24.8676Z" fill="url(#paint4_linear_755_10036)"/>
</g>
<path d="M27.3986 23.8594C25.9538 22.8566 23.4684 23.1747 22.4926 24.5872C24.0345 23.854 25.6303 23.6761 27.2315 24.1505C27.4579 24.199 27.679 24.2961 27.9593 24.3446C27.7922 24.1505 27.6251 24.005 27.3986 23.8648V23.8594Z" fill="#5A4027"/>
<path d="M34.5044 23.8593C35.9492 22.8565 38.4346 23.1746 39.4104 24.5871C37.8685 23.8539 36.2727 23.676 34.6715 24.1504C34.4451 24.1989 34.224 24.296 33.9437 24.3445C34.1108 24.1504 34.2779 24.0048 34.5044 23.8647V23.8593Z" fill="#5A4027"/>
<path d="M36.7094 27.6494C35.6689 27.6494 34.4612 27.5901 33.1404 27.423C32.8924 27.3907 32.6875 27.2074 32.6336 26.9594C32.4557 26.1614 32.5527 24.199 32.6713 23.5251C32.709 23.3094 32.887 23.1423 33.108 23.1207C34.7793 22.959 36.6878 22.9213 38.3484 23.0075C39.0546 23.0453 39.6692 23.1046 40.1221 23.1801C40.3485 23.2178 40.5372 23.2555 40.6666 23.2987C40.8176 23.3472 40.9793 23.4173 41.0386 23.5736C41.2273 24.0319 41.3082 25.7787 40.92 26.9162C40.8391 27.1588 40.6289 27.3367 40.3701 27.3799C39.8741 27.4607 38.5532 27.6441 36.704 27.6441L36.7094 27.6494ZM33.1943 23.6599C33.0864 24.323 33.0056 26.1561 33.1565 26.8461C33.1565 26.8461 33.1835 26.8893 33.205 26.8893C36.7903 27.3421 39.529 26.9755 40.2838 26.8515C40.3431 26.8407 40.3917 26.803 40.4078 26.7437C40.5642 26.2854 40.6504 25.6547 40.6504 24.9646C40.6504 24.4147 40.5965 23.9995 40.5534 23.8324C40.4833 23.8054 40.2892 23.7461 39.8148 23.6761C39.3511 23.6114 38.7473 23.5628 38.0788 23.5305C37.1623 23.4874 35.3077 23.4496 33.1889 23.6491L33.1943 23.6599Z" fill="#6F6C6C"/>
<path d="M25.1828 27.6494C23.3336 27.6494 22.0073 27.4661 21.5167 27.3853C21.2633 27.3421 21.053 27.1642 20.9668 26.9216C20.5786 25.784 20.6595 24.0372 20.8482 23.579C20.9075 23.4226 21.0692 23.3526 21.2202 23.304C21.355 23.2609 21.5383 23.2232 21.7647 23.1854C22.2176 23.1099 22.8322 23.0506 23.5384 23.0129C25.1936 22.9266 27.1021 22.9644 28.7788 23.1261C28.9998 23.1477 29.1777 23.3148 29.2155 23.5305C29.3341 24.2044 29.4311 26.1614 29.2532 26.9647C29.1993 27.2073 28.9944 27.396 28.7464 27.4284C27.4256 27.5955 26.2179 27.6548 25.1774 27.6548L25.1828 27.6494ZM21.3334 23.8378C21.2849 24.0049 21.231 24.4254 21.2363 24.9699C21.2363 25.66 21.3226 26.2908 21.479 26.7491C21.5005 26.803 21.5437 26.8461 21.603 26.8569C22.3577 26.9809 25.0965 27.3475 28.6817 26.8946C28.6817 26.8946 28.7249 26.8731 28.7303 26.8515C28.8866 26.1668 28.8003 24.3338 28.6925 23.6652C26.5737 23.4658 24.7245 23.5035 23.8026 23.5466C23.1341 23.579 22.5303 23.6275 22.0666 23.6922C21.5922 23.7569 21.3981 23.8162 21.328 23.8486L21.3334 23.8378Z" fill="#6F6C6C"/>
<path d="M32.5743 25.2611C32.5743 25.2611 32.4233 25.0939 32.1484 24.9268C31.7818 24.7112 31.3774 24.5979 30.9461 24.5979C29.8948 24.5979 29.3233 25.2503 29.3179 25.2611L28.9082 24.9106C28.9406 24.8783 29.6522 24.0642 30.9461 24.0642C32.24 24.0642 32.9517 24.8783 32.984 24.9106L32.5743 25.2611Z" fill="#6F6C6C"/>
<path d="M24.1531 25.1371C24.421 25.1371 24.6383 24.944 24.6383 24.7058C24.6383 24.4676 24.421 24.2745 24.1531 24.2745C23.8851 24.2745 23.6678 24.4676 23.6678 24.7058C23.6678 24.944 23.8851 25.1371 24.1531 25.1371Z" fill="white"/>
<mask id="mask3_755_10036" style="mask-type:luminance" maskUnits="userSpaceOnUse" x="25" y="33" width="12" height="6">
<path d="M31.0269 33.6014C27.5388 33.224 25.5548 32.6849 25.8243 36.8362C25.8243 36.8362 27.1668 38.184 28.7734 38.2918H28.6655H28.9351C29.2047 37.591 30.008 37.0518 30.9191 37.0518C31.8302 37.0518 32.7414 37.591 33.0109 38.2918H33.1188C34.8332 38.2918 36.2295 36.8362 36.2295 36.8362C36.4452 32.6849 34.5151 33.224 31.0269 33.6014Z" fill="white"/>
</mask>
<g mask="url(#mask3_755_10036)">
<path d="M25.5548 33.3856C25.5548 33.3856 27.1075 36.7821 30.9191 36.7821C34.7308 36.7821 36.2295 33.3856 36.2295 33.3856C36.2295 33.3856 33.8682 34.5178 30.8652 34.5178C27.8622 34.5178 25.5009 33.3856 25.5009 33.3856H25.5548Z" fill="#A97363"/>
<path d="M25.5548 33.3856C25.5548 33.3856 27.1075 35.3265 30.9191 35.3265C34.7308 35.3265 36.2295 33.3856 36.2295 33.3856C36.2295 33.3856 33.8682 34.0326 30.8652 34.0326C27.8622 34.0326 25.5009 33.3856 25.5009 33.3856H25.5548Z" fill="white"/>
<path d="M25.5548 33.3857C25.5548 33.3857 27.1075 33.2617 30.9191 33.2617C34.7308 33.2617 36.2295 33.3857 36.2295 33.3857C36.2295 33.3857 33.5501 34.3562 30.8652 34.3562C28.1803 34.3562 25.5009 33.3857 25.5009 33.3857H25.5548Z" fill="#A97363"/>
</g>
<path d="M32.2939 29.5041C32.2939 30.2588 31.7009 30.8519 30.9461 30.8519C30.1913 30.8519 29.5983 30.2588 29.5983 29.5041C29.5983 28.7493 30.1913 25.6223 30.9461 25.6223C31.7009 25.6223 32.2939 28.8032 32.2939 29.5041Z" fill="url(#paint5_linear_755_10036)"/>
<path d="M41.3513 21.0936C41.0817 20.3927 40.1652 19.7458 39.5721 19.3684C38.9791 18.991 37.4156 19.0988 35.6904 19.2606L34.7739 20.3388V19.3684H33.5878C32.9947 20.1771 32.833 20.9319 32.6713 21.9023C32.6713 21.9023 39.68 21.0397 41.1895 22.3875C41.3513 22.118 41.513 21.5788 41.3513 21.1475V21.0936Z" fill="url(#paint6_linear_755_10036)"/>
</g>
</g>
<defs>
<linearGradient id="paint0_linear_755_10036" x1="36.7903" y1="20.6028" x2="36.7903" y2="27.8488" gradientUnits="userSpaceOnUse">
<stop stop-color="#A37148"/>
<stop offset="0.3" stop-color="#B1845F"/>
<stop offset="0.8" stop-color="#C59E7E"/>
<stop offset="1" stop-color="#CDA98B"/>
</linearGradient>
<linearGradient id="paint1_linear_755_10036" x1="25.1019" y1="0.390874" x2="25.1019" y2="27.8488" gradientUnits="userSpaceOnUse">
<stop stop-color="#A37148"/>
<stop offset="0.3" stop-color="#B1845F"/>
<stop offset="0.8" stop-color="#C59E7E"/>
<stop offset="1" stop-color="#CDA98B"/>
</linearGradient>
<linearGradient id="paint2_linear_755_10036" x1="26.8037" y1="5.9153" x2="24.3381" y2="25.7102" gradientUnits="userSpaceOnUse">
<stop stop-color="#75553B"/>
<stop offset="0.8" stop-color="#49321B"/>
</linearGradient>
<linearGradient id="paint3_linear_755_10036" x1="33.443" y1="26.8005" x2="38.7667" y2="23.2187" gradientUnits="userSpaceOnUse">
<stop stop-color="#513A24"/>
<stop offset="0.8" stop-color="#231F20"/>
</linearGradient>
<linearGradient id="paint4_linear_755_10036" x1="27.6848" y1="26.253" x2="22.3611" y2="22.6711" gradientUnits="userSpaceOnUse">
<stop stop-color="#513A24"/>
<stop offset="0.8" stop-color="#231F20"/>
</linearGradient>
<linearGradient id="paint5_linear_755_10036" x1="30.9461" y1="32.7928" x2="30.9461" y2="27.1319" gradientUnits="userSpaceOnUse">
<stop stop-color="#E2CDBB"/>
<stop offset="1" stop-color="#CDA98B"/>
</linearGradient>
<linearGradient id="paint6_linear_755_10036" x1="37.0436" y1="8.85535" x2="37.0436" y2="25.5145" gradientUnits="userSpaceOnUse">
<stop stop-color="#75553B"/>
<stop offset="0.8" stop-color="#49321B"/>
</linearGradient>
<clipPath id="clip0_755_10036">
<path d="M0 5.39087C0 2.62944 2.23858 0.390869 5 0.390869H57C59.7614 0.390869 62 2.62945 62 5.39087V57.3909C62 60.1523 59.7614 62.3909 57 62.3909H5C2.23858 62.3909 0 60.1523 0 57.3909V5.39087Z" fill="white"/>
</clipPath>
</defs>
</svg>
