<svg width="29" height="28" viewBox="0 0 29 28" fill="none" xmlns="http://www.w3.org/2000/svg">
<path d="M8.17999 14.91C8.05443 14.7952 7.95415 14.6555 7.88554 14.4999C7.81693 14.3442 7.78149 14.1759 7.78149 14.0058C7.78149 13.8357 7.81693 13.6674 7.88554 13.5118C7.95415 13.3561 8.05443 13.2164 8.17999 13.1016L17.3383 3.89664C17.4588 3.77059 17.6037 3.6704 17.7641 3.6022C17.9246 3.534 18.0973 3.49922 18.2717 3.49997C18.4462 3.49783 18.6193 3.53198 18.78 3.60026C18.9407 3.66854 19.0854 3.76947 19.205 3.89664L20.57 5.26164C20.695 5.38293 20.7944 5.52797 20.8626 5.68825C20.9307 5.84854 20.9661 6.02082 20.9667 6.19497C20.9656 6.36561 20.9299 6.53426 20.8617 6.69068C20.7935 6.84711 20.6943 6.98806 20.57 7.10497L13.6283 14.105L20.57 20.93C20.6937 21.0473 20.7926 21.1883 20.8608 21.3447C20.9289 21.501 20.9649 21.6694 20.9667 21.84C20.9636 22.0103 20.927 22.1783 20.859 22.3345C20.7909 22.4906 20.6927 22.6318 20.57 22.75L19.205 24.1383C19.0854 24.2655 18.9407 24.3664 18.78 24.4347C18.6193 24.503 18.4462 24.5371 18.2717 24.535C18.0973 24.5357 17.9246 24.5009 17.7641 24.4327C17.6037 24.3645 17.4588 24.2644 17.3383 24.1383L8.17999 14.91Z" fill="white" fill-opacity="0.5"/>
</svg>
