<svg width="29" height="28" viewBox="0 0 29 28" fill="none" xmlns="http://www.w3.org/2000/svg">
<path d="M20.82 14.91C20.9456 14.7952 21.0458 14.6555 21.1144 14.4999C21.1831 14.3442 21.2185 14.1759 21.2185 14.0058C21.2185 13.8357 21.1831 13.6674 21.1144 13.5118C21.0458 13.3561 20.9456 13.2164 20.82 13.1016L11.6617 3.89664C11.5412 3.77059 11.3963 3.6704 11.2358 3.6022C11.0754 3.534 10.9027 3.49922 10.7283 3.49997C10.5538 3.49783 10.3807 3.53198 10.22 3.60026C10.0593 3.66854 9.9146 3.76947 9.79499 3.89664L8.42999 5.26164C8.30501 5.38293 8.20554 5.52797 8.13742 5.68825C8.0693 5.84854 8.03391 6.02082 8.03333 6.19497C8.03438 6.36561 8.07008 6.53426 8.13826 6.69068C8.20645 6.84711 8.3057 6.98806 8.42999 7.10497L15.43 14.105L8.42999 20.895C8.30623 21.0123 8.20734 21.1533 8.1392 21.3097C8.07105 21.466 8.03505 21.6344 8.03333 21.805C8.03634 21.9753 8.07293 22.1433 8.141 22.2995C8.20907 22.4556 8.30727 22.5968 8.42999 22.715L9.79499 24.1033C9.9146 24.2305 10.0593 24.3314 10.22 24.3997C10.3807 24.468 10.5538 24.5021 10.7283 24.5C10.9027 24.5007 11.0754 24.4659 11.2358 24.3977C11.3963 24.3295 11.5412 24.2294 11.6617 24.1033L20.82 14.91Z" fill="white" fill-opacity="0.5"/>
</svg>
