<svg width="29" height="28" viewBox="0 0 29 28" fill="none" xmlns="http://www.w3.org/2000/svg">
<path d="M8.45839 3.86163C8.33756 3.73601 8.19262 3.63607 8.03224 3.56781C7.87187 3.49954 7.69936 3.46436 7.52506 3.46436C7.35076 3.46436 7.17825 3.49954 7.01788 3.56781C6.8575 3.63607 6.71256 3.73601 6.59173 3.86163L5.22673 5.22663C4.97643 5.47314 4.83383 5.80867 4.83006 6.15996C4.82519 6.33148 4.85821 6.50196 4.92678 6.65926C4.99534 6.81655 5.09776 6.95678 5.22673 7.06996L12.1684 14.07L5.22673 20.8716C5.10331 20.9868 5.00453 21.1257 4.93635 21.2802C4.86817 21.4346 4.83201 21.6012 4.83006 21.77C4.83178 21.9405 4.86778 22.1089 4.93593 22.2653C5.00407 22.4216 5.10297 22.5626 5.22673 22.68L6.59173 24.08C6.71419 24.2027 6.85966 24.3001 7.01982 24.3666C7.17997 24.433 7.35166 24.4672 7.52506 24.4672C7.69845 24.4672 7.87015 24.433 8.0303 24.3666C8.19046 24.3001 8.33593 24.2027 8.45839 24.08L17.6167 14.8866C17.7416 14.7701 17.8412 14.6293 17.9094 14.4728C17.9776 14.3162 18.013 14.1474 18.0134 13.9766C18.0183 13.8051 17.9852 13.6346 17.9167 13.4773C17.8481 13.32 17.7457 13.1798 17.6167 13.0666L8.45839 3.86163Z" fill="white" fill-opacity="0.5"/>
<path d="M24.5351 3.84996C24.4136 3.72602 24.2683 3.628 24.1078 3.56182C23.9474 3.49565 23.7752 3.4627 23.6017 3.46496L21.6534 3.49996C21.4797 3.48396 21.3047 3.5071 21.1412 3.56767C20.9776 3.62824 20.8297 3.7247 20.7084 3.84996C20.5879 3.97039 20.4935 4.11442 20.4313 4.27302C20.3691 4.43162 20.3403 4.60137 20.3467 4.77163V23.2283C20.3403 23.3985 20.3691 23.5683 20.4313 23.7269C20.4935 23.8855 20.5879 24.0295 20.7084 24.15C20.8261 24.2741 20.9697 24.3709 21.129 24.4334C21.2882 24.4959 21.4593 24.5226 21.6301 24.5116H23.5784C23.7519 24.5139 23.9241 24.4809 24.0845 24.4148C24.2449 24.3486 24.3903 24.2506 24.5117 24.1266C24.6379 24.0069 24.7375 23.8619 24.8038 23.701C24.8702 23.5402 24.9018 23.3672 24.8967 23.1933V4.78329C24.9048 4.61111 24.8768 4.43913 24.8145 4.2784C24.7523 4.11767 24.6571 3.97174 24.5351 3.84996Z" fill="white" fill-opacity="0.5"/>
</svg>
