<svg width="29" height="28" viewBox="0 0 29 28" fill="none" xmlns="http://www.w3.org/2000/svg">
<path d="M23.7733 6.99996L16.8317 14L23.7733 20.8716C23.8967 20.9868 23.9955 21.1257 24.0637 21.2802C24.1319 21.4346 24.168 21.6012 24.17 21.77C24.1683 21.9405 24.1323 22.1089 24.0641 22.2653C23.996 22.4216 23.8971 22.5626 23.7733 22.68L22.4083 24.08C22.2859 24.2027 22.1404 24.3001 21.9802 24.3666C21.8201 24.433 21.6484 24.4672 21.475 24.4672C21.3016 24.4672 21.1299 24.433 20.9698 24.3666C20.8096 24.3001 20.6641 24.2027 20.5417 24.08L11.3833 14.8866C11.2585 14.7701 11.1589 14.6293 11.0907 14.4728C11.0224 14.3162 10.987 14.1474 10.9867 13.9766C10.9818 13.8051 11.0148 13.6346 11.0834 13.4773C11.1519 13.32 11.2544 13.1798 11.3833 13.0666L20.5417 3.86163C20.6625 3.73601 20.8074 3.63607 20.9678 3.56781C21.1282 3.49954 21.3007 3.46436 21.475 3.46436C21.6493 3.46436 21.8218 3.49954 21.9822 3.56781C22.1426 3.63607 22.2875 3.73601 22.4083 3.86163L23.7733 5.15663C24.0236 5.40314 24.1662 5.73867 24.17 6.08996C24.1749 6.26148 24.1418 6.43196 24.0733 6.58926C24.0047 6.74655 23.9023 6.88678 23.7733 6.99996Z" fill="white" fill-opacity="0.5"/>
<path d="M5.39833 3.49997H7.34666C7.52032 3.48397 7.69536 3.5071 7.8589 3.56767C8.02244 3.62824 8.17032 3.72471 8.29166 3.84997C8.41218 3.97039 8.50652 4.11442 8.56876 4.27303C8.63099 4.43163 8.65979 4.60138 8.65333 4.77163V23.2283C8.65979 23.3986 8.63099 23.5683 8.56876 23.7269C8.50652 23.8855 8.41218 24.0295 8.29166 24.15C8.17361 24.2815 8.0272 24.3846 7.86349 24.4513C7.69978 24.518 7.52306 24.5466 7.34666 24.535H5.39833C5.22481 24.5372 5.05263 24.5043 4.89221 24.4381C4.73179 24.3719 4.58646 24.2739 4.465 24.15C4.33878 24.0302 4.23925 23.8852 4.17291 23.7244C4.10657 23.5636 4.07491 23.3905 4.08 23.2166V4.8183C4.07491 4.6444 4.10657 4.47138 4.17291 4.31055C4.23925 4.14973 4.33878 4.0047 4.465 3.88497C4.58646 3.76102 4.73179 3.663 4.89221 3.59683C5.05263 3.53065 5.22481 3.4977 5.39833 3.49997Z" fill="white" fill-opacity="0.5"/>
</svg>
