<svg width="41" height="40" viewBox="0 0 41 40" fill="none" xmlns="http://www.w3.org/2000/svg">
<rect x="0.600098" width="40" height="40" rx="20" fill="white" fill-opacity="0.9"/>
<path d="M27.7857 14.6621L26.3482 13.2121C26.115 12.9701 25.8354 12.7777 25.5261 12.6462C25.2168 12.5148 24.8842 12.447 24.5482 12.447C24.2121 12.447 23.8795 12.5148 23.5702 12.6462C23.261 12.7777 22.9814 12.9701 22.7482 13.2121L18.3732 17.5871C17.9393 18.0076 17.6724 18.571 17.6219 19.173C17.5713 19.7751 17.7405 20.3751 18.0982 20.8621L19.7107 22.5121L20.9607 21.2621L19.3982 19.6371C19.345 19.4882 19.3343 19.3275 19.3674 19.1729C19.4006 19.0183 19.4761 18.8761 19.5857 18.7621L23.9607 14.4246C24.0403 14.3382 24.1369 14.2693 24.2445 14.2222C24.352 14.175 24.4682 14.1507 24.5857 14.1507C24.7031 14.1507 24.8193 14.175 24.9269 14.2222C25.0344 14.2693 25.1311 14.3382 25.2107 14.4246L26.6482 15.8746C26.726 15.9513 26.7878 16.0428 26.83 16.1437C26.8722 16.2445 26.894 16.3528 26.894 16.4621C26.894 16.5714 26.8722 16.6797 26.83 16.7805C26.7878 16.8814 26.726 16.9728 26.6482 17.0496L24.4732 19.2371C24.8314 19.7969 25.0222 20.4474 25.0232 21.1121L27.8607 18.2621C28.0978 18.0239 28.2845 17.7403 28.4096 17.4283C28.5346 17.1162 28.5955 16.7822 28.5885 16.4461C28.5815 16.1101 28.5068 15.7789 28.3688 15.4723C28.2309 15.1658 28.0325 14.8902 27.7857 14.6621Z" fill="#262421"/>
<path d="M23.4482 19.5246L22.1982 18.2746L20.9482 19.5246L22.1982 20.7746C22.2498 20.9166 22.2607 21.0703 22.2298 21.2182C22.1989 21.3662 22.1273 21.5026 22.0232 21.6121L17.6482 25.9746C17.5714 26.0524 17.4799 26.1143 17.3791 26.1565C17.2782 26.1987 17.17 26.2204 17.0607 26.2204C16.9513 26.2204 16.8431 26.1987 16.7422 26.1565C16.6414 26.1143 16.5499 26.0524 16.4732 25.9746L15.0232 24.5371C14.8682 24.3783 14.7814 24.1652 14.7814 23.9433C14.7814 23.7215 14.8682 23.5084 15.0232 23.3496L17.1857 21.2621C16.7725 20.7288 16.576 20.0591 16.6357 19.3871L13.7857 22.2246C13.3116 22.7063 13.0459 23.355 13.0459 24.0308C13.0459 24.7067 13.3116 25.3554 13.7857 25.8371L15.2107 27.2121C15.4439 27.454 15.7235 27.6465 16.0327 27.778C16.342 27.9094 16.6746 27.9772 17.0107 27.9772C17.3467 27.9772 17.6793 27.9094 17.9886 27.778C18.2979 27.6465 18.5775 27.454 18.8107 27.2121L23.1857 22.8496C23.6176 22.4275 23.8822 21.8633 23.9304 21.2613C23.9787 20.6592 23.8074 20.0601 23.4482 19.5746V19.5246Z" fill="#262421"/>
</svg>
