<svg width="41" height="40" viewBox="0 0 41 40" fill="none" xmlns="http://www.w3.org/2000/svg">
<rect x="0.800049" width="40" height="40" rx="20" fill="white" fill-opacity="0.9"/>
<path d="M22.9 14.32C22.49 14.32 22.24 14.38 22.14 14.51C22.0232 14.7488 21.9747 15.0153 22 15.28V16.28H24.56C24.6229 16.2831 24.6846 16.299 24.7413 16.3264C24.798 16.3539 24.8485 16.3925 24.89 16.44C24.9326 16.483 24.9654 16.5349 24.9862 16.5918C25.0069 16.6488 25.015 16.7096 25.01 16.77L24.8 19.14C24.8026 19.1956 24.7932 19.2512 24.7725 19.303C24.7518 19.3547 24.7203 19.4014 24.68 19.44C24.5915 19.5084 24.4818 19.5438 24.37 19.54H22V28.54C21.9999 28.6595 21.9533 28.7742 21.87 28.86C21.8282 28.9021 21.7783 28.9353 21.7233 28.9577C21.6683 28.98 21.6094 28.991 21.55 28.99H18.55C18.4905 28.9913 18.4314 28.9806 18.3762 28.9585C18.321 28.9364 18.2708 28.9033 18.2288 28.8612C18.1867 28.8191 18.1536 28.769 18.1315 28.7138C18.1094 28.6586 18.0986 28.5994 18.1 28.54V19.54H16.7C16.642 19.5421 16.5842 19.5316 16.5307 19.5091C16.4772 19.4867 16.4292 19.4528 16.39 19.41C16.3468 19.3705 16.3121 19.3227 16.2881 19.2694C16.264 19.2161 16.251 19.1584 16.25 19.1V16.77C16.2495 16.7083 16.2617 16.6472 16.2857 16.5904C16.3098 16.5336 16.3453 16.4824 16.39 16.44C16.4273 16.3941 16.4747 16.3576 16.5285 16.3333C16.5823 16.309 16.641 16.2976 16.7 16.3H18.14V15.12C18.14 12.38 19.54 11 22.34 11C23.2425 10.9941 24.1413 11.1153 25.01 11.36C25.0643 11.3695 25.1162 11.3899 25.1624 11.4199C25.2087 11.45 25.2484 11.489 25.2792 11.5348C25.3101 11.5805 25.3313 11.632 25.3418 11.6862C25.3522 11.7403 25.3516 11.796 25.34 11.85L25.03 14.14C25.0023 14.2561 24.9395 14.3609 24.85 14.44C24.797 14.4735 24.7379 14.496 24.6761 14.5063C24.6143 14.5166 24.551 14.5145 24.49 14.5C24.217 14.4356 23.9396 14.3922 23.66 14.37C23.4082 14.3356 23.1542 14.3189 22.9 14.32Z" fill="#1877F2"/>
</svg>
