<svg width="229" height="72" viewBox="0 0 229 72" fill="none" xmlns="http://www.w3.org/2000/svg">
<path d="M40.7909 0.907227H54.2188C62.9301 0.907227 68.513 5.20463 68.513 12.7967C68.513 20.3888 62.9301 24.6862 54.2188 24.6862H50.3685V34.3315H40.7909V0.907227ZM53.6413 16.6644C57.1065 16.6644 58.8873 15.6617 58.8873 12.7967C58.8873 9.93178 57.1065 8.92905 53.6413 8.92905H50.3685V16.6644H53.6413Z" fill="white"/>
<path d="M95.6984 26.7872V34.3315H72.5966V0.907227H95.4096V8.78581H82.0298V14.2292H94.1101V20.8663H82.0298V26.7872H95.6984Z" fill="white"/>
<path d="M101.355 0.907227H109.2L123.927 18.6698V0.907227H133.264V34.3315H125.419L110.692 16.5689V34.3315H101.355V0.907227Z" fill="white"/>
<path d="M140.558 0.907227H150.087V34.3315H140.558V0.907227Z" fill="white"/>
<path d="M157.429 0.907227H165.274L180.001 18.6698V0.907227H189.338V34.3315H181.493L166.766 16.5689V34.3315H157.429V0.907227Z" fill="white"/>
<path d="M194.155 17.3806C194.155 5.44338 203.78 0 213.31 0C217.305 0 220.914 0.859483 223.898 2.3397V10.266C220.866 9.02456 217.305 8.11733 213.791 8.11733C208.112 8.11733 203.299 10.839 203.299 17.6194C203.299 23.1105 207.149 26.8349 212.54 26.8349C216.246 26.8349 220.337 25.4025 220.577 20.4843H210.903V13.6085H228.23C228.711 15.4707 229 17.3329 229 19.1473C229 27.7422 223.369 35 212.54 35C201.133 35 194.155 27.3124 194.155 17.3806Z" fill="white"/>
<path d="M9.99963 33.3838C10.5624 32.8586 11.0733 32.2819 11.5175 31.6465C12.4986 30.2434 13.1317 28.6309 13.3649 26.9377H10.3106C9.65903 26.0011 9.2703 24.9139 9.18144 23.7789V23.1178L12.6245 20.8221C11.1991 19.4117 10.3921 17.4981 10.3847 15.5C10.3847 13.5386 11.1695 11.6543 12.569 10.2696C13.9684 8.88122 15.8639 8.10255 17.8409 8.10255C19.8179 8.10255 21.7171 8.88122 23.1129 10.2696C24.5123 11.658 25.2972 13.5386 25.2972 15.5C25.3046 16.4953 25.112 17.4834 24.7344 18.4053C24.3568 19.3272 23.7978 20.1683 23.0943 20.8772L26.6114 23.1178V23.7789C26.5411 24.9139 26.1487 26.0084 25.4823 26.9377H22.4465C22.6834 28.6162 23.3054 30.2213 24.2679 31.6208C24.7048 32.2562 25.2046 32.8365 25.7599 33.3618C31.7945 30.6584 35.7522 24.8294 35.7522 17.6156C35.7522 7.58833 28.0997 0.234985 17.8483 0.234985C7.5969 0.234985 -3.05176e-05 7.592 -3.05176e-05 17.6193C-3.05176e-05 24.8477 3.95393 30.6878 9.99963 33.3838Z" fill="white"/>
<path d="M81.12 67.42C78.3 67.42 75.84 66.98 73.74 66.1C71.64 65.2 70.01 63.93 68.85 62.29C67.71 60.65 67.14 58.72 67.14 56.5C67.14 54.28 67.71 52.35 68.85 50.71C70.01 49.07 71.64 47.81 73.74 46.93C75.84 46.03 78.3 45.58 81.12 45.58C83.94 45.58 86.39 46.03 88.47 46.93C90.57 47.81 92.19 49.07 93.33 50.71C94.49 52.35 95.07 54.28 95.07 56.5C95.07 58.72 94.49 60.65 93.33 62.29C92.19 63.93 90.57 65.2 88.47 66.1C86.39 66.98 83.94 67.42 81.12 67.42ZM81.12 62.47C82.74 62.47 84.16 62.22 85.38 61.72C86.6 61.22 87.54 60.53 88.2 59.65C88.88 58.75 89.22 57.7 89.22 56.5C89.22 55.3 88.88 54.26 88.2 53.38C87.54 52.48 86.6 51.78 85.38 51.28C84.16 50.78 82.74 50.53 81.12 50.53C79.5 50.53 78.07 50.78 76.83 51.28C75.61 51.78 74.66 52.48 73.98 53.38C73.3 54.26 72.96 55.3 72.96 56.5C72.96 57.7 73.3 58.75 73.98 59.65C74.66 60.53 75.61 61.22 76.83 61.72C78.07 62.22 79.5 62.47 81.12 62.47ZM96.81 71.5C94.77 71.52 93.05 71.39 91.65 71.11C90.25 70.83 88.97 70.36 87.81 69.7C86.67 69.04 85.4 68.11 84 66.91L86.85 63.61C88.01 64.61 89.02 65.36 89.88 65.86C90.74 66.34 91.69 66.68 92.73 66.88C93.77 67.06 95.12 67.14 96.78 67.12L96.81 71.5ZM111.565 67.42C108.985 67.42 106.805 67.04 105.025 66.28C103.245 65.52 101.885 64.33 100.945 62.71C100.005 61.09 99.5351 59.01 99.5351 56.47V46H105.265V55.75C105.265 57.37 105.505 58.67 105.985 59.65C106.485 60.63 107.195 61.34 108.115 61.78C109.055 62.2 110.205 62.41 111.565 62.41C112.965 62.41 114.125 62.2 115.045 61.78C115.985 61.34 116.695 60.63 117.175 59.65C117.675 58.67 117.925 57.37 117.925 55.75V46H123.595V56.47C123.595 59.01 123.115 61.09 122.155 62.71C121.215 64.33 119.855 65.52 118.075 66.28C116.295 67.04 114.125 67.42 111.565 67.42ZM129.02 46H134.75V67H129.02V46ZM140.002 63.25L155.512 48.49L156.202 50.74H140.002V46H161.092V49.75L145.522 64.51L144.832 62.26H161.152V67H140.002V63.25Z" fill="#81B64C"/>
</svg>
