<svg width="41" height="40" viewBox="0 0 41 40" fill="none" xmlns="http://www.w3.org/2000/svg">
<rect x="0.399902" width="40" height="40" rx="20" fill="white" fill-opacity="0.9"/>
<path d="M13.9799 11.8999C14.2444 11.8726 14.5117 11.9012 14.7645 11.9838C15.0173 12.0664 15.2499 12.2011 15.4474 12.3792C15.6448 12.5574 15.8027 12.775 15.9107 13.018C16.0188 13.261 16.0746 13.524 16.0746 13.7899C16.0746 14.0558 16.0188 14.3188 15.9107 14.5618C15.8027 14.8048 15.6448 15.0224 15.4474 15.2005C15.2499 15.3787 15.0173 15.5134 14.7645 15.596C14.5117 15.6786 14.2444 15.7071 13.9799 15.6799C13.7219 15.6979 13.463 15.6622 13.2195 15.575C12.9761 15.4879 12.7533 15.3512 12.5654 15.1736C12.3774 14.9959 12.2283 14.7813 12.1276 14.5431C12.0268 14.3049 11.9765 14.0485 11.9799 13.7899C11.9809 13.5326 12.0341 13.2782 12.1364 13.042C12.2387 12.8059 12.3879 12.593 12.5749 12.4163C12.7619 12.2396 12.9829 12.1027 13.2244 12.0139C13.4659 11.9251 13.7229 11.8863 13.9799 11.8999ZM24.6899 16.8999C27.0799 16.8999 28.8699 18.4699 28.8699 21.8199V28.0999H25.2399V22.2499C25.2399 20.7799 24.7199 19.7799 23.3999 19.7799C22.9911 19.7849 22.5936 19.9151 22.2611 20.1529C21.9285 20.3907 21.6768 20.7247 21.5399 21.1099C21.4375 21.3951 21.39 21.697 21.3999 21.9999V28.0999H17.7799C17.7799 28.0999 17.7799 18.1899 17.7799 17.1699H21.3999V18.7199C21.7262 18.147 22.204 17.6751 22.7808 17.3558C23.3576 17.0365 24.0112 16.8822 24.6699 16.9099L24.6899 16.8999ZM12.1399 17.1699H15.7699V28.0999H12.1399V17.1699Z" fill="#0077B5"/>
</svg>
