<svg width="155" height="51" viewBox="0 0 155 51" fill="none" xmlns="http://www.w3.org/2000/svg">
<path d="M27.6096 0.632202H36.6983C42.5946 0.632202 46.3734 3.62699 46.3734 8.91777C46.3734 14.2086 42.5946 17.2033 36.6983 17.2033H34.0922V23.925H27.6096V0.632202ZM36.3074 11.6131C38.6529 11.6131 39.8582 10.9143 39.8582 8.91777C39.8582 6.92125 38.6529 6.22247 36.3074 6.22247H34.0922V11.6131H36.3074Z" fill="white"/>
<path d="M64.774 18.6675V23.925H49.1375V0.632202H64.5786V6.12264H55.5224V9.91603H63.699V14.5413H55.5224V18.6675H64.774Z" fill="white"/>
<path d="M68.6028 0.632202H73.9128L83.8811 13.0106V0.632202H90.2009V23.925H84.8909L74.9226 11.5465V23.925H68.6028V0.632202Z" fill="white"/>
<path d="M95.1374 0.632202H101.587V23.925H95.1374V0.632202Z" fill="white"/>
<path d="M106.557 0.632202H111.866L121.835 13.0106V0.632202H128.155V23.925H122.845L112.876 11.5465V23.925H106.557V0.632202Z" fill="white"/>
<path d="M131.415 12.1122C131.415 3.79339 137.93 0 144.38 0C147.084 0 149.527 0.598958 151.547 1.6305V7.15421C149.495 6.28905 147.084 5.65682 144.706 5.65682C140.862 5.65682 137.604 7.55352 137.604 12.2786C137.604 16.1053 140.21 18.7008 143.859 18.7008C146.367 18.7008 149.136 17.7025 149.299 14.2751H142.751V9.48349H154.479C154.804 10.7812 155 12.079 155 13.3434C155 19.333 151.188 24.3909 143.859 24.3909C136.138 24.3909 131.415 19.0335 131.415 12.1122Z" fill="white"/>
<path d="M6.7683 23.2645C7.14919 22.8985 7.495 22.4966 7.7957 22.0538C8.45976 21.076 8.88826 19.9523 9.04613 18.7723H6.97879C6.53776 18.1196 6.27464 17.362 6.2145 16.571V16.1103L8.54496 14.5105C7.5802 13.5276 7.03392 12.194 7.02891 10.8016C7.02891 9.43473 7.56015 8.12163 8.50737 7.15665C9.45458 6.1891 10.7376 5.64646 12.0757 5.64646C13.4138 5.64646 14.6993 6.1891 15.6441 7.15665C16.5913 8.12419 17.1225 9.43473 17.1225 10.8016C17.1275 11.4952 16.9972 12.1838 16.7416 12.8263C16.486 13.4687 16.1076 14.0549 15.6315 14.5489L18.0121 16.1103V16.571C17.9645 17.362 17.6989 18.1247 17.2478 18.7723H15.193C15.3534 19.9421 15.7744 21.0606 16.4259 22.0359C16.7216 22.4787 17.0599 22.8831 17.4358 23.2491C21.5203 21.3652 24.1991 17.3031 24.1991 12.2759C24.1991 5.28811 19.0195 0.163696 12.0807 0.163696C5.142 0.163696 -3.05176e-05 5.29067 -3.05176e-05 12.2785C-3.05176e-05 17.3159 2.67623 21.3857 6.7683 23.2645Z" fill="white"/>
<path d="M55.08 47.6709C53.2 47.6709 51.56 47.3775 50.16 46.7909C48.76 46.1909 47.6733 45.3442 46.9 44.2509C46.14 43.1575 45.76 41.8709 45.76 40.3909C45.76 38.9109 46.14 37.6242 46.9 36.5309C47.6733 35.4375 48.76 34.5975 50.16 34.0109C51.56 33.4109 53.2 33.1109 55.08 33.1109C56.96 33.1109 58.5933 33.4109 59.98 34.0109C61.38 34.5975 62.46 35.4375 63.22 36.5309C63.9933 37.6242 64.38 38.9109 64.38 40.3909C64.38 41.8709 63.9933 43.1575 63.22 44.2509C62.46 45.3442 61.38 46.1909 59.98 46.7909C58.5933 47.3775 56.96 47.6709 55.08 47.6709ZM55.08 44.3709C56.16 44.3709 57.1067 44.2042 57.92 43.8709C58.7333 43.5375 59.36 43.0775 59.8 42.4909C60.2533 41.8909 60.48 41.1909 60.48 40.3909C60.48 39.5909 60.2533 38.8975 59.8 38.3109C59.36 37.7109 58.7333 37.2442 57.92 36.9109C57.1067 36.5775 56.16 36.4109 55.08 36.4109C54 36.4109 53.0467 36.5775 52.22 36.9109C51.4067 37.2442 50.7733 37.7109 50.32 38.3109C49.8667 38.8975 49.64 39.5909 49.64 40.3909C49.64 41.1909 49.8667 41.8909 50.32 42.4909C50.7733 43.0775 51.4067 43.5375 52.22 43.8709C53.0467 44.2042 54 44.3709 55.08 44.3709ZM65.54 50.3909C64.18 50.4042 63.0333 50.3175 62.1 50.1309C61.1667 49.9442 60.3133 49.6309 59.54 49.1909C58.78 48.7509 57.9333 48.1309 57 47.3309L58.9 45.1309C59.6733 45.7975 60.3467 46.2975 60.92 46.6309C61.4933 46.9509 62.1267 47.1775 62.82 47.3109C63.5133 47.4309 64.4133 47.4842 65.52 47.4709L65.54 50.3909ZM75.3767 47.6709C73.6567 47.6709 72.2034 47.4175 71.0167 46.9109C69.8301 46.4042 68.9234 45.6109 68.2967 44.5309C67.6701 43.4509 67.3567 42.0642 67.3567 40.3709V33.3909H71.1767V39.8909C71.1767 40.9709 71.3367 41.8375 71.6567 42.4909C71.9901 43.1442 72.4634 43.6175 73.0767 43.9109C73.7034 44.1909 74.4701 44.3309 75.3767 44.3309C76.3101 44.3309 77.0834 44.1909 77.6967 43.9109C78.3234 43.6175 78.7967 43.1442 79.1167 42.4909C79.4501 41.8375 79.6167 40.9709 79.6167 39.8909V33.3909H83.3967V40.3709C83.3967 42.0642 83.0767 43.4509 82.4367 44.5309C81.8101 45.6109 80.9034 46.4042 79.7167 46.9109C78.5301 47.4175 77.0834 47.6709 75.3767 47.6709ZM87.0133 33.3909H90.8333V47.3909H87.0133V33.3909ZM94.3344 44.8909L104.674 35.0509L105.134 36.5509H94.3344V33.3909H108.394V35.8909L98.0144 45.7309L97.5544 44.2309H108.434V47.3909H94.3344V44.8909Z" fill="#81B64C"/>
</svg>
