<svg width="962" height="678" viewBox="0 0 962 678" fill="none" xmlns="http://www.w3.org/2000/svg">
<path d="M57.4325 557.452C-1.26086 522.415 -31.5595 404.159 55.7045 368.09C136.637 334.639 109.641 305.568 89.6072 274.301C35.2272 189.427 109.089 120.312 270.31 148.61C431.531 176.908 384.374 56.8497 583.663 42.6716C771.469 29.3107 844.926 148.798 847.351 256.201C849.776 363.603 919.864 374.624 934.158 440.026C945.321 491.1 934.297 529.705 907.363 558.403C862.472 606.232 664.888 550.159 560.657 554.799C301.576 566.333 57.4316 557.452 57.4316 557.452H57.4325Z" fill="black" fill-opacity="0.1"/>
<path d="M50.7335 232.771C50.7335 268.05 6.04492 262.473 6.04492 222.169C6.04492 181.865 50.7335 191.107 50.7335 232.771Z" fill="black" fill-opacity="0.1"/>
<path d="M57.4325 291.822C57.4325 314.571 30.2229 312.003 30.2229 289.627C30.2229 267.252 57.4325 269.073 57.4325 291.822Z" fill="black" fill-opacity="0.1"/>
<path d="M879.789 289.875C879.789 325.631 924.276 367.276 924.276 299.049C924.276 230.822 879.789 234.366 879.789 289.875Z" fill="black" fill-opacity="0.1"/>
<path d="M229.933 218.023L289.66 202.019L289.289 200.632C283.713 179.823 265.393 190.845 257.901 169.228L265.813 167.108C266.358 164.815 265.914 162.538 265.315 160.303L255.607 157.453C258.588 153.433 259.239 148.137 258.083 143.821C255.894 135.652 247.473 130.805 239.185 132.943C230.861 135.256 225.992 143.664 228.181 151.833C229.337 156.149 232.549 160.41 237.14 162.401L230.158 169.723C230.757 171.958 231.511 174.152 233.129 175.866L241.042 173.746C245.362 196.212 223.985 195.827 229.561 216.636L229.933 218.023Z" fill="#4B4847"/>
<path opacity="0.3" d="M586.023 67.6621L563.345 182.178L610.1 73.3975L586.023 67.6621Z" fill="url(#paint0_linear_434_236)"/>
<path opacity="0.3" d="M181.442 125.691L265.447 222.167L190.876 120.852L181.442 125.691Z" fill="url(#paint1_linear_434_236)"/>
<path opacity="0.3" d="M368.401 112.748L405.574 217.952L386.666 103.938L368.401 112.748Z" fill="url(#paint2_linear_434_236)"/>
<path opacity="0.3" d="M614.506 137.174L544.826 307.851L630.725 143.824L614.506 137.174Z" fill="url(#paint3_linear_434_236)"/>
<path opacity="0.3" d="M752.132 214.719L642.817 310.712L760.89 224.78L752.132 214.719Z" fill="url(#paint4_linear_434_236)"/>
<path opacity="0.3" d="M259.397 262.789L322.721 316.331L268.659 249.611L259.397 262.789Z" fill="url(#paint5_linear_434_236)"/>
<path opacity="0.08" d="M513.696 353.219C513.696 353.219 582.409 333.093 695.696 223.925L633.803 188.219C603.777 243.241 571.248 308.649 513.696 353.219Z" fill="url(#paint6_linear_434_236)"/>
<path opacity="0.1" d="M367.107 328.621C367.107 328.621 469.045 542.274 695.598 677.191C532.184 437.491 482.568 289.422 482.568 289.422L367.107 328.621Z" fill="url(#paint7_linear_434_236)"/>
<path opacity="0.3" d="M461.08 172.504C461.08 172.504 429.145 285.989 524.345 419.948C524.345 419.948 554.975 280.989 578.565 193.441L461.08 172.504Z" fill="url(#paint8_linear_434_236)"/>
<path opacity="0.08" d="M230.5 218.171C230.5 218.171 252.106 275.553 410.5 298.209C410.5 298.209 308.613 257.341 289.653 202.209L230.5 218.171Z" fill="url(#paint9_linear_434_236)"/>
<path d="M960.048 611.788L934.158 583.826V611.788H960.048Z" fill="#B2E068"/>
<path d="M1.95264 611.788L27.8412 583.826V611.788H1.95264Z" fill="#B2E068"/>
<path d="M201.746 602.025L431.275 584.308L459.386 552.65H203.231L201.746 602.025Z" fill="#45753C"/>
<path d="M760.091 602.025L530.562 584.308L502.451 552.65H758.605L760.091 602.025Z" fill="#45753C"/>
<path d="M81.1862 543.555V548.7H30.2229L31.3923 544.847L32.6506 543.555H81.1862Z" fill="#CCCCCC"/>
<path d="M931.532 547.876H879.789V542.998H928.804L930.608 544.847L931.532 547.876Z" fill="#CCCCCC"/>
<path d="M930.608 544.847H482.503C482.492 544.836 482.492 544.847 482.48 544.847H31.3921L32.6504 543.556L57.475 518.163L61.5287 514.009L105.064 469.46L106.901 467.578L121.313 452.833L126.503 447.52L139.389 434.333L142.764 430.881H475.153C478.483 438.186 480.054 444.112 480.732 447.331C480.821 447.776 480.91 448.177 480.966 448.511C481.49 445.739 482.993 439.189 486.791 430.882H819.236L822.588 434.312L835.496 447.51L840.686 452.823L855.075 467.547L856.924 469.44L900.459 513.989L904.513 518.143L917.131 531.052L928.803 543.002L930.608 544.851V544.847Z" fill="#CCCCCC"/>
<g opacity="0.1">
<path d="M917.132 531.048C885.881 529.99 848.349 525.469 833.781 523.486C813.645 520.747 793.899 515.713 774.799 508.785C749.294 499.53 694.622 485.887 637.455 481.822C626.763 481.054 615.982 480.63 605.279 480.63C537.03 480.63 499.298 525.591 486.279 544.847C485.054 546.662 484.04 548.244 483.249 549.547C481.835 551.853 481.111 553.256 481.022 553.423C481.044 553.189 481.501 550.027 482.57 544.847C482.994 542.82 483.506 540.482 484.129 537.887C486.245 529.011 489.608 517.15 494.665 504.486C506.347 475.262 527.085 441.762 562.546 430.881C577.214 426.37 594.41 425.735 614.524 430.881C617.653 431.682 620.86 432.618 624.135 433.709C632.565 436.505 640.974 438.988 649.339 441.193C729.571 462.321 804.869 457.287 840.686 452.821L904.513 518.14L917.132 531.048Z" fill="black"/>
</g>
<path d="M919.348 500.165C903.555 521.749 865.031 521.794 833.781 517.55C813.645 514.811 793.899 509.777 774.798 502.849C749.294 493.594 694.622 479.951 637.455 475.886C626.763 475.118 615.982 474.694 605.279 474.694C530.605 474.694 492.471 528.52 483.249 543.611C481.746 546.073 481.01 547.499 481.01 547.499C481.01 547.499 481.856 541.429 484.129 531.951C486.245 523.075 489.608 511.214 494.665 498.55C511.938 455.337 548.981 402.814 624.135 427.773C632.565 430.569 640.974 433.052 649.338 435.257C760.699 464.582 862.549 443.51 862.549 443.51L872.339 453.266L919.348 500.165L919.348 500.165Z" fill="#E6E6E6"/>
<path d="M952.548 616.848L770.144 606.636C770.144 606.636 569.274 506.245 481.268 591.946V535.748C503.152 503.239 542.165 487.636 580.3 482.435C647.044 473.77 711.195 491.968 772.739 516.237C810.583 531.25 843.549 541.273 879.789 544.558C880.914 544.67 882.028 544.77 883.164 544.847C898.188 546.05 913.814 546.084 930.609 544.847L931.533 547.877L952.549 616.85L952.548 616.848Z" fill="#E6E6E6"/>
<g opacity="0.2">
<path d="M930.875 545.715C914.292 546.918 898.856 546.873 883.999 545.682C882.862 545.604 881.749 545.503 880.624 545.393C844.383 542.108 811.417 532.084 773.573 517.071C712.029 492.803 647.879 474.605 581.134 483.27C543 488.471 503.987 504.074 482.102 536.583V591.534C481.823 591.667 481.545 591.801 481.267 591.946V535.748C503.151 503.239 542.164 487.635 580.299 482.435C647.043 473.77 711.194 491.969 772.738 516.237C810.582 531.25 843.548 541.273 879.788 544.558C880.913 544.67 882.027 544.77 883.163 544.847C898.187 546.05 913.813 546.084 930.608 544.847L930.875 545.716V545.715Z" fill="white"/>
</g>
<path d="M952.548 616.849L770.144 606.636C770.144 606.636 579.865 542.24 481.268 591.946V590.699C568.716 507.916 769.308 605.8 769.308 605.8L951.713 616.013L952.548 616.849Z" fill="#204227"/>
<path d="M480.733 535.749V591.947C422.262 512.928 191.856 606.636 191.856 606.636L9.4519 616.849L30.2229 548.7L31.3923 544.847C48.1872 546.084 63.8127 546.05 78.837 544.847C79.6282 544.791 80.4072 544.725 81.1871 544.658C117.829 541.462 151.062 531.394 189.262 516.236C250.807 491.968 314.957 473.771 381.701 482.435C419.836 487.636 458.849 503.239 480.733 535.748L480.733 535.749Z" fill="#E6E6E6"/>
<g opacity="0.3">
<path d="M468.626 521.058C446.085 498.995 414.055 487.647 382.625 483.359C315.88 474.694 251.729 492.893 190.186 517.161C151.986 532.318 118.752 542.386 82.1107 545.582C81.3308 545.65 80.5509 545.716 79.7606 545.772C64.7363 546.974 49.1108 547.008 32.3159 545.772L31.1465 549.625L10.6761 616.782L9.45093 616.849L30.2219 548.7L31.3913 544.847C48.1862 546.084 63.8118 546.05 78.836 544.847C79.6273 544.791 80.4063 544.725 81.1862 544.658C117.828 541.462 151.061 531.394 189.261 516.236C250.806 491.968 314.956 473.771 381.7 482.435C413.564 486.778 446.04 498.383 468.626 521.058Z" fill="white"/>
</g>
<path d="M480.733 535.748V591.946C424.49 512.742 191.856 606.636 191.856 606.636L9.4519 616.848L9.75253 615.857L190.932 605.71C190.932 605.71 381.211 541.316 479.808 591.021V534.823C476.389 529.745 472.557 525.077 468.37 520.801C472.915 525.334 477.068 530.301 480.733 535.747V535.748Z" fill="#204227"/>
<path opacity="0.1" d="M872.338 453.267C829.004 498.962 756.634 483.381 738.837 479.84C733.77 478.838 728.669 478.047 723.535 477.534C707.319 475.908 673.896 473.436 637.456 475.886C626.764 475.117 615.983 474.694 605.28 474.694C530.606 474.694 492.472 528.52 483.25 543.611C483.328 539.947 482.452 536.077 482.987 532.001C484.335 521.498 488.54 509.865 494.666 498.55C509.022 471.988 540.183 446.896 605.325 440.648C620.75 439.167 635.418 437.352 649.339 435.258C760.699 464.582 862.549 443.511 862.549 443.511L872.338 453.267Z" fill="black"/>
<path d="M896.149 434.411C851.043 503.673 762.146 475.385 742.334 469.438C737.389 467.945 732.388 466.675 727.332 465.673C719.458 464.114 707.452 461.953 692.918 460.038C658.147 455.449 608.966 452.264 567.636 462.132C494.888 479.484 481.958 536.361 481.958 536.361C481.958 536.361 461.209 417.683 613.176 417.683C724.024 417.683 798.543 396.255 830.751 384.661C842.69 380.373 848.816 377.422 848.816 377.422L896.149 434.411Z" fill="#F2F2F2"/>
<path opacity="0.1" d="M854.017 424.064C779.253 449.891 730.706 457.086 692.918 460.037C658.147 455.448 608.966 452.263 567.636 462.131C494.888 479.483 481.958 536.36 481.958 536.36C481.958 536.36 461.209 417.682 613.176 417.682C724.024 417.682 798.543 396.254 830.751 384.66L854.017 424.064Z" fill="black"/>
<path d="M859.954 408.471C855.655 409.953 851.456 411.378 847.324 412.737C823.725 420.544 802.865 426.413 784.199 430.879C747.313 439.7 718.957 443.008 694.923 444.745C686.269 445.369 678.184 445.792 670.455 446.193C647.323 447.384 627.421 448.399 605.469 454.134C601.772 455.103 598.085 456.239 594.398 457.542C567.135 467.12 540.405 485.095 519.724 501.467C517.586 503.138 515.525 504.808 513.532 506.446C501.492 516.347 492.004 525.223 486.402 530.68C486.39 530.692 486.39 530.703 486.379 530.713C486.179 530.902 485.989 531.092 485.799 531.282C485.064 531.994 484.407 532.651 483.828 533.231C483.74 533.32 483.65 533.409 483.561 533.487C483.427 533.632 483.293 533.766 483.16 533.888C483.037 534.01 482.927 534.121 482.815 534.244L481.79 535.269C481.59 535.481 481.411 535.658 481.267 535.814C481.244 535.837 481.233 535.848 481.211 535.87C481.111 535.97 481.033 536.049 480.966 536.115C480.81 536.282 480.732 536.36 480.732 536.36V449.958C480.732 449.958 480.8 449.457 480.966 448.521V448.509C481.49 445.737 482.993 439.187 486.791 430.88C496.258 410.097 519.991 378.256 578.183 366.707C743.013 333.986 789.789 289.627 789.789 289.627L843.102 379.927L859.954 408.471Z" fill="white"/>
<path d="M859.954 408.471C855.655 409.953 851.456 411.378 847.324 412.737C823.725 420.544 802.865 426.413 784.199 430.879C747.313 439.7 718.957 443.008 694.923 444.745C686.269 445.369 678.184 445.792 670.455 446.193C647.323 447.384 627.421 448.399 605.469 454.134C601.772 455.103 598.085 456.239 594.398 457.542C567.135 467.12 540.405 485.095 519.724 501.467C517.586 503.138 515.525 504.808 513.532 506.446C501.492 516.347 492.004 525.223 486.402 530.68C486.39 530.692 486.39 530.703 486.379 530.713C486.179 530.902 485.989 531.092 485.799 531.282C485.064 531.994 484.407 532.651 483.828 533.231C483.74 533.32 483.65 533.409 483.561 533.487C483.427 533.632 483.293 533.766 483.16 533.888C483.037 534.01 482.927 534.121 482.815 534.244L481.79 535.269C481.59 535.481 481.411 535.658 481.267 535.814C481.244 535.837 481.233 535.848 481.211 535.87C481.111 535.97 481.033 536.049 480.966 536.115C480.81 536.282 480.732 536.36 480.732 536.36V449.958C480.732 449.958 480.8 449.457 480.966 448.521V448.509C481.49 445.737 482.993 439.187 486.791 430.88C496.258 410.097 519.991 378.256 578.183 366.707C743.013 333.986 789.789 289.627 789.789 289.627L843.102 379.927L859.954 408.471Z" fill="url(#paint10_linear_434_236)"/>
<g opacity="0.1">
<path d="M57.4324 518.139C76.4214 527.461 104.398 526.716 128.165 523.485C148.3 520.746 168.047 515.712 187.147 508.784C212.652 499.529 267.324 485.886 324.491 481.821C335.183 481.053 345.964 480.629 356.667 480.629C424.915 480.629 462.648 525.59 475.667 544.846C476.892 546.661 477.906 548.243 478.696 549.547C480.199 552.007 480.935 553.434 480.935 553.434C480.935 553.434 480.489 550.238 479.376 544.847C478.952 542.82 478.44 540.482 477.817 537.887C475.701 529.011 472.338 517.15 467.281 504.486C455.598 475.262 434.861 441.762 399.4 430.881C384.732 426.37 367.536 425.735 347.423 430.881C344.293 431.682 341.086 432.618 337.812 433.709C329.381 436.505 320.972 438.988 312.608 441.193C232.376 462.321 157.078 457.287 121.26 452.821L57.4324 518.14V518.139Z" fill="black"/>
</g>
<path d="M42.5973 500.165C58.3901 521.749 96.9137 521.794 128.164 517.55C148.3 514.811 168.046 509.777 187.147 502.849C212.651 493.594 267.323 479.951 324.49 475.886C335.182 475.118 345.963 474.694 356.666 474.694C431.34 474.694 469.474 528.52 478.696 543.611C480.199 546.073 480.935 547.499 480.935 547.499C480.935 547.499 480.089 541.429 477.816 531.951C475.7 523.075 472.337 511.214 467.28 498.55C450.007 455.337 412.964 402.814 337.81 427.773C329.38 430.569 320.971 433.052 312.606 435.257C201.245 464.582 99.3963 443.51 99.3963 443.51L89.6063 453.266L42.5964 500.165L42.5973 500.165Z" fill="#E6E6E6"/>
<path opacity="0.1" d="M89.608 453.265C132.942 498.961 205.312 483.38 223.109 479.839C228.176 478.837 233.277 478.046 238.411 477.533C254.627 475.907 288.05 473.435 324.49 475.885C335.182 475.116 345.963 474.693 356.666 474.693C431.34 474.693 469.474 528.518 478.696 543.61C478.618 539.946 479.231 536.099 478.696 532.022C477.348 521.52 473.406 509.864 467.28 498.548C452.924 471.986 421.763 446.894 356.621 440.646C341.196 439.165 326.528 437.35 312.607 435.256C201.246 464.58 99.3971 443.509 99.3971 443.509L89.6072 453.265L89.608 453.265Z" fill="black"/>
<path d="M65.7959 434.411C110.902 503.673 199.799 475.385 219.611 469.438C224.556 467.945 229.557 466.675 234.613 465.673C242.487 464.114 254.493 461.953 269.027 460.038C303.798 455.449 352.979 452.264 394.309 462.132C467.057 479.484 479.987 536.361 479.987 536.361C479.987 536.361 500.736 417.683 348.769 417.683C237.922 417.683 163.402 396.255 131.194 384.661C119.255 380.373 113.129 377.422 113.129 377.422L65.7959 434.411Z" fill="#F2F2F2"/>
<path opacity="0.1" d="M107.928 424.064C182.692 449.891 231.239 457.086 269.027 460.037C303.798 455.448 352.979 452.263 394.309 462.131C467.057 479.483 479.987 536.36 479.987 536.36C479.987 536.36 500.736 417.682 348.769 417.682C237.921 417.682 163.402 396.254 131.193 384.66L107.928 424.064Z" fill="black"/>
<path d="M481.212 449.959V536.361C481.212 536.361 481.134 536.282 480.967 536.116V536.105L480.733 535.87C480.577 535.714 480.388 535.514 480.154 535.269L479.809 534.924C479.72 534.835 479.62 534.735 479.52 534.623L478.874 533.978C478.851 533.956 478.829 533.922 478.796 533.9C478.674 533.767 478.54 533.633 478.396 533.499C478.307 533.41 478.218 533.321 478.128 533.232L478.117 533.22C477.537 532.641 476.88 531.995 476.146 531.271C472.192 527.418 466.078 521.615 458.349 514.866L458.115 514.665C453.827 510.923 449.039 506.902 443.848 502.76C443.28 502.292 442.701 501.835 442.111 501.367C442.111 501.367 442.099 501.356 442.088 501.356C421.44 485.018 394.777 467.12 367.591 457.553C363.894 456.251 360.185 455.103 356.476 454.134C334.536 448.399 314.623 447.384 291.49 446.193C283.761 445.792 275.676 445.369 267.022 444.745C242.988 443.008 214.633 439.7 177.746 430.879C159.08 426.413 138.22 420.543 114.621 412.737C110.489 411.378 106.291 409.953 101.991 408.471L118.842 379.927L172.155 289.627C172.155 289.627 218.932 333.986 383.761 366.707C420.715 374.035 443.779 389.561 458.113 405.242C458.192 405.331 458.281 405.42 458.347 405.51C466.444 414.431 471.734 423.374 475.153 430.88C478.484 438.185 480.054 444.111 480.733 447.33C480.821 447.775 480.91 448.176 480.966 448.51V448.522C481.144 449.458 481.212 449.959 481.212 449.959Z" fill="white"/>
<path d="M481.212 449.959V536.361C481.212 536.361 481.134 536.282 480.967 536.116V536.105L480.733 535.87C480.577 535.714 480.388 535.514 480.154 535.269L479.809 534.924C479.72 534.835 479.62 534.735 479.52 534.623L478.874 533.978C478.851 533.956 478.829 533.922 478.796 533.9C478.674 533.767 478.54 533.633 478.396 533.499C478.307 533.41 478.218 533.321 478.128 533.232L478.117 533.22C477.537 532.641 476.88 531.995 476.146 531.271C472.192 527.418 466.078 521.615 458.349 514.866L458.115 514.665C453.827 510.923 449.039 506.902 443.848 502.76C443.28 502.292 442.701 501.835 442.111 501.367C442.111 501.367 442.099 501.356 442.088 501.356C421.44 485.018 394.777 467.12 367.591 457.553C363.894 456.251 360.185 455.103 356.476 454.134C334.536 448.399 314.623 447.384 291.49 446.193C283.761 445.792 275.676 445.369 267.022 444.745C242.988 443.008 214.633 439.7 177.746 430.879C159.08 426.413 138.22 420.543 114.621 412.737C110.489 411.378 106.291 409.953 101.991 408.471L118.842 379.927L172.155 289.627C172.155 289.627 218.932 333.986 383.761 366.707C420.715 374.035 443.779 389.561 458.113 405.242C458.192 405.331 458.281 405.42 458.347 405.51C466.444 414.431 471.734 423.374 475.153 430.88C478.484 438.185 480.054 444.111 480.733 447.33C480.821 447.775 480.91 448.176 480.966 448.51V448.522C481.144 449.458 481.212 449.959 481.212 449.959Z" fill="url(#paint11_linear_434_236)"/>
<path opacity="0.05" d="M480.967 448.51V536.115C480.811 536.283 480.733 536.36 480.733 536.36V535.87C480.577 535.714 480.388 535.514 480.154 535.269L479.809 534.924C479.72 534.835 479.62 534.735 479.52 534.623L478.874 533.978C478.851 533.956 478.829 533.922 478.796 533.9C478.673 533.767 478.54 533.633 478.396 533.499C478.307 533.41 478.218 533.322 478.128 533.232L478.117 533.22C477.537 532.641 476.88 531.995 476.146 531.271C472.192 527.418 466.078 521.616 458.349 514.866V405.51C466.445 414.431 471.736 423.374 475.155 430.88C478.485 438.186 480.056 444.111 480.734 447.33C480.823 447.775 480.912 448.176 480.968 448.51L480.967 448.51Z" fill="black"/>
<path d="M548.858 578.588V595.35L534.146 594.259C533.5 594.849 532.865 595.429 532.219 595.997C530.838 597.222 529.457 598.38 528.076 599.461C527.597 599.84 527.13 600.206 526.65 600.563C525.336 601.576 524.022 602.512 522.707 603.403C522.218 603.748 521.717 604.071 521.215 604.393C520.402 604.928 519.577 605.441 518.764 605.919C518.709 605.964 518.653 605.997 518.597 606.031C518.085 606.331 517.584 606.621 517.071 606.911C516.815 607.067 516.559 607.211 516.303 607.346C516.047 607.49 515.802 607.625 515.546 607.769C514.866 608.137 514.187 608.493 513.507 608.827C513.196 608.983 512.895 609.139 512.583 609.284C512.159 609.495 511.737 609.696 511.313 609.885C510.868 610.097 510.433 610.297 509.988 610.486C509.298 610.798 508.618 611.087 507.938 611.355C507.515 611.522 507.081 611.689 506.658 611.856C505.533 612.29 504.419 612.68 503.305 613.037C502.972 613.148 502.648 613.248 502.325 613.349C502.292 613.36 502.269 613.371 502.247 613.371C501.923 613.471 501.612 613.572 501.289 613.661C500.821 613.794 500.364 613.928 499.908 614.04C499.463 614.162 499.017 614.284 498.571 614.385C497.903 614.563 497.234 614.708 496.566 614.841C496.422 614.886 496.277 614.908 496.132 614.93C495.82 615.008 495.508 615.063 495.196 615.119C494.985 615.164 494.784 615.208 494.572 615.231C494.116 615.32 493.648 615.398 493.191 615.464C493.136 615.487 493.08 615.497 493.024 615.497C492.188 615.631 491.354 615.742 490.518 615.831C490.128 615.876 489.738 615.92 489.349 615.954C488.892 615.998 488.435 616.043 487.99 616.077C485.618 616.255 483.279 616.289 481.007 616.2C477.811 616.323 474.514 616.211 471.151 615.799C470.482 615.721 469.837 615.632 469.18 615.531C469.113 615.52 469.035 615.51 468.968 615.498C468.779 615.476 468.59 615.443 468.4 615.398C468.199 615.375 467.988 615.342 467.787 615.298C467.587 615.275 467.386 615.231 467.186 615.186C467.097 615.186 467.007 615.165 466.918 615.142C466.562 615.075 466.217 615.008 465.861 614.93C465.571 614.874 465.281 614.819 464.992 614.752C463.711 614.473 462.419 614.15 461.127 613.771C460.648 613.637 460.158 613.504 459.679 613.348C459.668 613.348 459.656 613.348 459.646 613.336C459.334 613.248 459.012 613.147 458.7 613.036C457.107 612.523 455.515 611.945 453.91 611.287C453.365 611.075 452.83 610.842 452.296 610.607C451.973 610.474 451.661 610.328 451.338 610.172C450.982 610.028 450.625 609.86 450.269 609.683C449.946 609.538 449.623 609.382 449.3 609.226C448.287 608.736 447.273 608.213 446.26 607.656C445.815 607.422 445.368 607.177 444.934 606.92C444.489 606.664 444.043 606.408 443.598 606.141C443.486 606.085 443.386 606.018 443.274 605.951C441.949 605.16 440.624 604.314 439.288 603.401C438.787 603.056 438.275 602.711 437.773 602.354C437.729 602.321 437.695 602.299 437.651 602.266C436.805 601.664 435.958 601.04 435.111 600.383C434.622 600.016 434.131 599.626 433.641 599.236C432.349 598.222 431.069 597.142 429.777 595.995C429.131 595.427 428.496 594.848 427.85 594.258L425.6 594.425V577.663L427.015 577.563L464.336 540.231C468.445 536.133 473.802 533.727 479.56 533.393C479.705 533.381 479.85 533.371 480.006 533.371C480.329 533.348 480.663 533.338 480.997 533.338C481.342 533.338 481.677 533.349 482.011 533.371C482.167 533.36 482.311 533.371 482.445 533.393C488.192 533.727 493.549 536.132 497.659 540.231L534.99 577.563L548.856 578.588L548.858 578.588Z" fill="#305730"/>
<path d="M509.845 564.243C505.736 560.145 500.378 557.739 494.632 557.405C494.498 557.382 494.353 557.371 494.197 557.382C493.863 557.359 493.517 557.349 493.172 557.349C492.849 557.349 492.515 557.36 492.192 557.382C492.036 557.382 491.891 557.393 491.747 557.405C485.988 557.738 480.631 560.144 476.522 564.243L439.201 601.575L437.775 601.675V602.355C437.731 602.321 437.697 602.299 437.652 602.266C436.806 601.664 435.959 601.04 435.113 600.383C434.623 600.016 434.133 599.626 433.643 599.236C432.351 598.222 431.071 597.142 429.779 595.995C429.133 595.427 428.498 594.848 427.852 594.258L425.602 594.425V589.046L426.604 588.979L463.925 551.647C468.035 547.549 473.392 545.143 479.15 544.809C479.295 544.798 479.439 544.787 479.595 544.787C479.918 544.764 480.252 544.754 480.575 544.754C480.921 544.754 481.266 544.765 481.6 544.787C481.756 544.776 481.901 544.787 482.034 544.809C487.781 545.143 493.138 547.548 497.248 551.647L509.844 564.243H509.845Z" fill="#1C3724"/>
<path d="M497.661 540.236C496.113 538.688 494.376 537.374 492.505 536.338C491.435 535.726 490.322 535.214 489.175 534.801C487.872 534.312 486.536 533.955 485.166 533.721C484.854 533.654 484.531 533.609 484.219 533.576C484.063 533.543 483.918 533.532 483.762 533.52C483.695 533.498 483.629 533.498 483.562 533.487C483.339 533.465 483.116 533.443 482.882 533.432C482.871 533.432 482.859 533.42 482.849 533.432C482.838 533.42 482.826 533.42 482.804 533.432C482.682 533.41 482.571 533.41 482.448 533.398C482.314 533.376 482.169 533.365 482.013 533.376C481.857 533.364 481.713 533.353 481.557 533.364C481.445 533.353 481.334 533.342 481.212 533.353C481.144 533.342 481.067 533.342 481 533.342H480.967C480.889 533.342 480.811 533.342 480.733 533.353C480.61 533.342 480.5 533.353 480.388 533.364C480.255 533.364 480.132 533.364 480.009 533.376C479.853 533.376 479.708 533.387 479.564 533.398C479.419 533.41 479.286 533.42 479.14 533.432H479.118C479.029 533.432 478.95 533.443 478.861 533.454H478.839C478.694 533.466 478.549 533.477 478.394 533.499C478.326 533.499 478.26 533.51 478.193 533.521C477.715 533.577 477.246 533.644 476.779 533.733C475.409 533.967 474.072 534.334 472.781 534.814C471.633 535.237 470.52 535.761 469.44 536.362C467.591 537.398 465.876 538.701 464.339 540.238L438.991 565.586L429.023 575.565L420.96 583.628L426.339 589.007L438.044 600.724C438.044 600.724 438.044 600.735 438.056 600.735L443.279 605.958C443.39 606.025 443.491 606.091 443.602 606.147C444.047 606.415 444.493 606.671 444.939 606.927C445.374 607.183 445.819 607.428 446.264 607.662C447.278 608.219 448.291 608.743 449.304 609.233C449.628 609.389 449.95 609.545 450.273 609.689C450.63 609.868 450.986 610.034 451.343 610.179C451.666 610.335 451.977 610.48 452.3 610.613C452.835 610.846 453.369 611.081 453.915 611.293C455.519 611.95 457.111 612.529 458.704 613.041C459.016 613.153 459.339 613.253 459.65 613.342C459.662 613.353 459.673 613.353 459.683 613.353C460.163 613.509 460.652 613.643 461.131 613.777C462.423 614.156 463.714 614.478 464.995 614.757C465.14 614.78 465.274 614.813 465.419 614.836C465.563 614.88 465.708 614.914 465.864 614.936C466.076 614.98 466.276 615.025 466.488 615.059C466.633 615.092 466.777 615.126 466.922 615.148C467.011 615.159 467.1 615.181 467.189 615.192C467.39 615.236 467.59 615.281 467.791 615.304C467.991 615.348 468.203 615.382 468.403 615.404C468.592 615.448 468.782 615.481 468.971 615.504L437.096 583.629L451.029 569.697L451.263 569.463L472.412 548.314C472.657 548.069 472.913 547.835 473.17 547.623C473.426 547.4 473.693 547.189 473.971 546.999C474.194 546.832 474.428 546.676 474.661 546.542C474.762 546.475 474.873 546.409 474.985 546.353C475.208 546.22 475.43 546.097 475.664 545.985C475.687 545.974 475.697 545.974 475.709 545.952C475.887 545.874 476.065 545.796 476.244 545.719C476.367 545.674 476.489 545.619 476.622 545.574C476.923 545.451 477.223 545.351 477.535 545.262C477.836 545.162 478.148 545.095 478.471 545.029C478.516 545.017 478.571 545.006 478.616 544.996C478.861 544.94 479.117 544.895 479.373 544.873C479.395 544.861 479.417 544.861 479.44 544.861C479.473 544.861 479.507 544.85 479.54 544.85H479.552C479.64 544.839 479.719 544.828 479.808 544.828C480.031 544.806 480.264 544.784 480.499 544.773C480.576 544.773 480.655 544.761 480.732 544.773C480.744 544.761 480.755 544.761 480.777 544.773C480.844 544.761 480.921 544.761 480.999 544.761C481.088 544.761 481.177 544.761 481.266 544.773C481.334 544.761 481.4 544.761 481.456 544.773C481.656 544.773 481.845 544.784 482.035 544.817C482.058 544.806 482.079 544.806 482.102 544.817C482.214 544.817 482.325 544.839 482.436 544.85H482.48C482.488 544.85 482.495 544.854 482.503 544.861H482.57C482.849 544.895 483.116 544.94 483.383 544.996C483.416 545.007 483.439 545.007 483.461 545.007C483.785 545.074 484.118 545.163 484.43 545.252C484.754 545.341 485.065 545.452 485.377 545.575C485.488 545.619 485.6 545.664 485.71 545.708C485.911 545.787 486.1 545.864 486.29 545.953C486.301 545.976 486.313 545.976 486.334 545.986C486.557 546.098 486.791 546.221 487.013 546.354C487.125 546.41 487.236 546.477 487.336 546.543C487.57 546.676 487.804 546.832 488.027 547C488.305 547.189 488.572 547.401 488.828 547.624C489.084 547.835 489.341 548.069 489.586 548.315L524.902 583.631L521.794 586.738L497.193 611.34L493.027 615.505C493.083 615.505 493.139 615.493 493.195 615.472C493.651 615.405 494.119 615.327 494.576 615.238C494.788 615.215 494.988 615.171 495.2 615.127C495.412 615.082 495.612 615.038 495.824 614.993C495.935 614.982 496.035 614.96 496.136 614.938C496.28 614.916 496.425 614.893 496.57 614.849C497.239 614.715 497.907 614.57 498.575 614.392C499.021 614.292 499.466 614.169 499.912 614.047C500.369 613.935 500.825 613.802 501.293 613.668C501.617 613.579 501.929 613.479 502.251 613.379C502.274 613.379 502.295 613.367 502.329 613.356C502.652 613.256 502.975 613.156 503.309 613.044C504.422 612.688 505.536 612.298 506.661 611.863C507.084 611.696 507.518 611.53 507.942 611.362C508.622 611.095 509.3 610.805 509.991 610.494C510.437 610.304 510.871 610.104 511.317 609.892C511.74 609.703 512.163 609.502 512.586 609.291C512.898 609.146 513.199 608.99 513.511 608.834C514.191 608.501 514.869 608.144 515.549 607.777C515.805 607.632 516.05 607.498 516.306 607.354C516.562 607.221 516.819 607.075 517.075 606.92C517.587 606.631 518.088 606.341 518.601 606.04C518.656 606.007 518.712 605.973 518.768 605.928L533.324 591.361L541.053 583.632L497.663 540.241L497.661 540.236Z" fill="#E3AA24"/>
<path d="M961.859 616.957C961.859 617.168 961.847 617.38 961.837 617.592C961.503 622.192 957.493 625.644 952.894 625.298L548.859 595.351L534.147 594.26C533.501 594.85 532.866 595.429 532.22 595.998C530.839 597.223 529.458 598.381 528.077 599.461C527.598 599.84 527.131 600.207 526.651 600.564C525.337 601.577 524.023 602.513 522.708 603.403C522.219 603.748 521.718 604.072 521.216 604.394C520.403 604.929 519.578 605.442 518.766 605.92C518.71 605.964 518.654 605.997 518.598 606.031C518.086 606.332 517.585 606.621 517.072 606.912C516.816 607.067 516.56 607.212 516.304 607.346C516.048 607.491 515.803 607.625 515.547 607.77C514.867 608.138 514.188 608.494 513.508 608.828C513.197 608.984 512.896 609.14 512.584 609.284C512.16 609.496 511.738 609.696 511.314 609.885C510.869 610.097 510.434 610.298 509.989 610.487C509.299 610.799 508.619 611.088 507.94 611.356C507.516 611.523 507.082 611.689 506.659 611.857C505.534 612.291 504.42 612.681 503.306 613.037C502.973 613.149 502.649 613.249 502.326 613.349C502.293 613.361 502.27 613.372 502.248 613.372C501.924 613.472 501.613 613.572 501.29 613.661C500.822 613.794 500.365 613.929 499.909 614.04C499.464 614.162 499.018 614.285 498.572 614.385C497.904 614.564 497.235 614.709 496.567 614.842C496.422 614.886 496.278 614.909 496.133 614.931C496.033 614.953 495.933 614.975 495.821 614.987C495.609 615.031 495.409 615.075 495.197 615.12C494.986 615.164 494.785 615.209 494.573 615.231C494.117 615.32 493.649 615.399 493.192 615.465C493.137 615.488 493.081 615.498 493.025 615.498C492.189 615.631 491.355 615.743 490.519 615.832C490.129 615.876 489.739 615.921 489.35 615.955C488.893 615.999 488.436 616.044 487.991 616.078C485.619 616.255 483.28 616.289 481.008 616.2C477.812 616.323 474.515 616.212 471.152 615.8C470.483 615.722 469.838 615.632 469.181 615.532C469.114 615.521 469.036 615.51 468.969 615.499C468.78 615.476 468.591 615.443 468.401 615.399C468.2 615.376 467.989 615.343 467.788 615.299C467.588 615.276 467.387 615.231 467.187 615.187C467.098 615.176 467.008 615.154 466.919 615.143C466.775 615.109 466.63 615.087 466.485 615.054C466.273 615.021 466.061 614.975 465.861 614.931C465.705 614.908 465.56 614.875 465.415 614.831C465.271 614.808 465.137 614.775 464.992 614.752C463.711 614.473 462.42 614.151 461.127 613.772C460.648 613.638 460.158 613.504 459.679 613.348C459.668 613.348 459.657 613.348 459.646 613.337C459.334 613.248 459.012 613.148 458.7 613.036C457.107 612.524 455.515 611.945 453.911 611.288C453.365 611.076 452.83 610.842 452.296 610.608C451.973 610.475 451.662 610.329 451.338 610.173C450.982 610.028 450.626 609.861 450.269 609.683C449.946 609.539 449.623 609.383 449.3 609.227C448.287 608.737 447.273 608.213 446.26 607.657C445.815 607.423 445.369 607.177 444.935 606.921C444.489 606.665 444.043 606.409 443.598 606.141C443.486 606.085 443.386 606.018 443.275 605.952C441.949 605.161 440.624 604.315 439.288 603.402C438.743 603.034 438.196 602.656 437.651 602.265C436.805 601.664 435.958 601.04 435.112 600.383C434.622 600.015 434.131 599.626 433.642 599.236C432.349 598.222 431.069 597.142 429.777 595.995C429.131 595.427 428.496 594.847 427.85 594.257L425.6 594.425L9.10674 625.298C8.895 625.31 8.68325 625.321 8.47151 625.321C8.29375 625.321 8.12644 625.321 7.95914 625.298C7.82582 625.298 7.69163 625.287 7.55831 625.265C7.37967 625.254 7.20191 625.221 7.02328 625.188C6.90042 625.176 6.77842 625.143 6.66689 625.109C6.49958 625.076 6.33315 625.031 6.17717 624.986C5.99854 624.942 5.82078 624.886 5.65348 624.819C5.14111 624.641 4.66272 624.418 4.21658 624.14C3.98305 623.995 3.75997 623.85 3.5369 623.694C3.40358 623.594 3.28072 623.494 3.15785 623.382C3.06897 623.305 2.98009 623.226 2.90167 623.149C2.8459 623.116 2.77968 623.06 2.72391 622.993C2.5566 622.837 2.39017 622.659 2.24465 622.492C2.22287 622.48 2.21154 622.47 2.20021 622.447C2.19266 622.447 2.19266 622.443 2.20021 622.436C1.91091 622.113 1.6434 621.768 1.42033 621.389C1.35323 621.277 1.28701 621.177 1.21991 621.055C1.09792 620.843 0.986383 620.631 0.896631 620.398C0.829535 620.253 0.76331 620.108 0.707542 619.963C0.651774 619.818 0.596006 619.662 0.551566 619.506L0.540238 619.495C0.406046 619.106 0.317165 618.705 0.250941 618.293C0.2065 618.058 0.183845 617.813 0.16206 617.58C0.150732 617.368 0.139404 617.156 0.139404 616.945C0.139404 616.7 0.150732 616.466 0.172517 616.232C0.172517 616.176 0.172517 616.132 0.183845 616.076C0.2065 615.831 0.250941 615.597 0.295381 615.363C0.339821 615.141 0.384261 614.918 0.451357 614.706C0.529781 614.383 0.640446 614.082 0.76331 613.793C0.85219 613.581 0.941071 613.369 1.05261 613.169C1.16414 612.946 1.28614 612.724 1.43166 612.512C1.56498 612.278 1.73228 612.044 1.91091 611.832C2.04423 611.643 2.20021 611.464 2.35619 611.297C2.53395 611.108 2.71258 610.929 2.90167 610.763C3.09076 610.585 3.29205 610.429 3.49159 610.273C3.90375 609.973 4.34903 609.705 4.80563 609.472C5.27356 609.238 5.76327 609.048 6.27564 608.915C6.78801 608.781 7.32216 608.693 7.86852 608.647L425.601 577.664L427.016 577.563L430.134 577.33L433.776 577.062L436.438 579.501C436.505 579.557 436.627 579.679 436.806 579.825L436.873 579.758C437.073 579.958 437.285 580.158 437.485 580.348C437.618 580.47 437.741 580.604 437.875 580.726C438.208 581.005 438.599 581.316 439.044 581.673C439.834 582.297 440.803 583.031 441.928 583.833C442.508 584.257 443.131 584.69 443.799 585.136C447.441 587.608 452.274 590.493 457.988 592.943C458.5 593.177 459.034 593.4 459.569 593.612C460.639 594.047 461.73 594.458 462.844 594.848C463.545 595.093 464.258 595.327 464.982 595.561C468.223 596.586 471.642 597.42 475.229 597.933C476.019 598.056 476.832 598.156 477.635 598.233C478.448 598.311 479.261 598.378 480.095 598.434C480.508 598.467 480.92 598.478 481.332 598.501C483.181 598.401 485.063 598.2 486.956 597.9C490.108 597.41 493.304 596.663 496.545 595.65C497.08 595.483 497.615 595.305 498.138 595.126C499.72 594.592 501.246 594.012 502.716 593.411C503.507 593.088 504.274 592.754 505.033 592.409C505.778 592.075 506.525 591.729 507.248 591.384C507.961 591.028 508.674 590.683 509.354 590.327C510.044 589.959 510.712 589.602 511.369 589.246C511.693 589.067 512.015 588.89 512.327 588.711C512.961 588.355 513.575 587.987 514.165 587.642C514.688 587.33 515.189 587.029 515.679 586.717C517.149 585.815 518.463 584.924 519.633 584.1C519.956 583.866 520.267 583.643 520.579 583.431C521.492 582.786 522.282 582.195 522.951 581.672C523.419 581.293 523.831 580.971 524.176 580.681L524.51 580.348C524.71 580.147 524.922 579.957 525.122 579.758L525.189 579.825C525.301 579.725 525.39 579.646 525.457 579.591C525.524 579.524 525.546 579.502 525.557 579.502L528.219 577.063L531.872 577.331L534.991 577.564L548.856 578.589L563.49 579.68L954.126 608.648C954.405 608.671 954.672 608.704 954.939 608.748C955.051 608.76 955.162 608.781 955.273 608.815C955.384 608.838 955.485 608.86 955.596 608.893C955.675 608.904 955.764 608.926 955.841 608.96C956.041 609.016 956.231 609.083 956.421 609.149C956.677 609.238 956.933 609.35 957.189 609.472C957.356 609.55 957.523 609.64 957.69 609.74C957.746 609.773 957.813 609.807 957.869 609.852C958.069 609.974 958.27 610.108 958.47 610.252C958.493 610.264 958.514 610.285 958.537 610.308C958.626 610.375 958.715 610.441 958.805 610.52C959.094 610.754 959.373 611.01 959.629 611.288C959.685 611.355 959.74 611.411 959.796 611.478V611.489C959.804 611.496 959.808 611.504 959.808 611.512C959.841 611.534 959.852 611.556 959.863 611.567C959.908 611.612 959.941 611.656 959.975 611.701C960.008 611.723 960.031 611.756 960.053 611.789C960.086 611.834 960.131 611.878 960.153 611.923C960.209 611.99 960.265 612.067 960.31 612.135C960.343 612.179 960.377 612.212 960.398 612.257C960.454 612.324 960.487 612.391 960.532 612.458C960.565 612.491 960.587 612.535 960.599 612.569C960.643 612.625 960.677 612.692 960.722 612.758C960.733 612.781 960.744 612.803 960.755 612.826C960.811 612.904 960.855 612.993 960.888 613.082C960.988 613.271 961.077 613.461 961.167 613.65C961.2 613.717 961.234 613.794 961.256 613.862C961.3 613.962 961.345 614.062 961.367 614.174C961.412 614.262 961.434 614.341 961.456 614.43C961.579 614.786 961.668 615.143 961.724 615.522C961.757 615.689 961.791 615.855 961.802 616.034C961.835 616.335 961.858 616.647 961.858 616.958L961.859 616.957Z" fill="#81B64C"/>
<path opacity="0.2" d="M544.772 516.269C551.283 513.547 558.134 511.655 565.033 510.068C571.942 508.48 578.96 507.378 586.013 506.513C593.072 505.7 600.177 505.233 607.294 505.052C614.412 504.899 621.538 505.078 628.657 505.49C657.118 507.349 685.289 513.684 711.989 523.676L721.941 527.582L731.763 531.79L741.428 536.332L750.827 540.81C757.089 543.728 763.449 546.435 769.866 549.007C776.298 551.538 782.793 553.93 789.366 556.105C795.952 558.283 802.556 560.252 809.307 562.094C816.038 563.951 822.801 565.725 829.587 567.449C843.149 570.954 856.832 574.051 870.533 577.337C856.464 576.501 842.471 574.831 828.507 572.81C821.533 571.751 814.572 570.574 807.637 569.221C800.713 567.901 793.726 566.33 786.86 564.495C773.1 560.83 759.616 556.083 746.514 550.453C743.25 549.073 739.962 547.511 736.803 546.092L727.33 541.856L717.769 537.84L708.099 534.108C682.223 524.418 655.309 517.594 627.858 514.18C620.992 513.367 614.099 512.74 607.18 512.34C600.262 511.987 593.323 511.827 586.375 511.94C579.422 511.998 572.472 512.437 565.524 513.098C562.047 513.41 558.582 513.858 555.121 514.374C551.654 514.867 548.203 515.484 544.77 516.269H544.772Z" fill="black"/>
<path opacity="0.2" d="M410.568 530.877C407.087 530.245 403.616 529.745 400.127 529.391C396.645 529.006 393.168 528.697 389.689 528.476C382.735 528.029 375.795 527.83 368.874 527.909C361.954 527.961 355.056 528.285 348.188 528.769C341.319 529.307 334.484 530.047 327.681 530.96C300.481 534.763 273.882 541.709 248.212 551.324L238.613 555.012L229.116 558.98L219.691 563.139L214.847 565.325C213.211 566.066 211.558 566.772 209.902 567.471C196.657 573.052 183.021 577.712 169.105 581.2C165.63 582.087 162.134 582.886 158.625 583.61C155.112 584.347 151.606 585.027 148.117 585.611C141.132 586.838 134.12 587.861 127.101 588.761C113.051 590.486 98.9587 591.685 84.8049 591.944C98.4211 588.079 112.006 584.513 125.481 580.712C132.221 578.829 138.934 576.9 145.614 574.919C148.96 573.905 152.276 572.933 155.549 571.882C158.836 570.849 162.088 569.713 165.345 568.613C168.592 567.482 171.825 566.313 175.03 565.075C178.246 563.872 181.439 562.608 184.615 561.312C190.952 558.677 197.245 555.955 203.432 553.005L212.754 548.498L222.467 543.879L232.354 539.623L242.377 535.674C269.283 525.606 297.769 519.393 326.482 517.923C330.074 517.78 333.661 517.638 337.254 517.661C340.842 517.608 344.433 517.709 348.016 517.837C355.184 518.148 362.329 518.779 369.417 519.757C376.501 520.759 383.529 522.102 390.432 523.903C397.324 525.691 404.141 527.881 410.567 530.874L410.568 530.877Z" fill="black"/>
<g opacity="0.15">
<path d="M790.932 316.007L785.415 306.66C772.579 314.916 759.954 321.973 747.353 328.125C749.262 331.113 751.169 334.102 753.048 337.109C753.177 337.052 753.307 336.996 753.436 336.94C766.117 330.287 778.541 323.181 790.932 316.006V316.007Z" fill="#204227"/>
<path d="M677.315 363.612C690.77 360.941 703.807 357.059 716.633 352.209C715.415 349.088 714.206 345.966 713.003 342.84C708.995 344.338 704.973 345.773 700.931 347.152C695.35 349.141 689.731 350.994 684.023 352.587C681.052 353.487 678.066 354.366 675.063 355.226C675.746 358.04 676.54 360.822 677.314 363.612H677.315Z" fill="#204227"/>
<path d="M792.775 416.057C790.823 411.732 788.889 407.398 786.982 403.053C786.858 403.092 786.734 403.13 786.609 403.17C801.83 397.549 816.958 391.695 831.943 385.47L824.829 373.42C810.38 379.356 795.869 385.131 781.354 390.904C779.557 387.036 777.775 383.161 775.983 379.291C775.818 379.349 775.653 379.405 775.488 379.463C789.737 373.821 803.848 367.861 817.792 361.502L811.233 350.391C797.762 356.517 784.169 362.354 770.484 367.983C768.702 364.415 766.92 360.848 765.114 357.291C764.922 357.362 764.73 357.431 764.538 357.502C778.082 351.778 791.489 345.762 804.748 339.407L798.779 329.297C785.834 335.444 772.748 341.277 759.586 346.942C757.7 343.533 755.796 340.134 753.857 336.757C753.716 336.819 753.576 336.879 753.436 336.94C753.312 337.005 753.189 337.071 753.066 337.136C753.059 337.126 753.054 337.117 753.048 337.108C740.749 342.496 728.291 347.501 715.844 352.537C717.133 355.704 718.428 358.868 719.73 362.029C706.8 366.221 693.695 369.622 680.341 372.167C679.595 369.287 678.87 366.401 678.12 363.521C663.973 365.792 650.03 368.833 636.271 372.838C637.004 375.455 637.717 378.077 638.414 380.705C625.574 384.112 612.656 387.06 599.545 389.219C599.173 386.66 598.825 384.1 598.507 381.534C585.182 383.213 572.408 386.767 559.824 391.373C559.46 389 559.091 386.628 558.701 384.26C558.464 384.328 558.233 384.403 557.998 384.473C543.744 389.431 531.553 396.029 521.503 404.217C522.159 405.902 522.772 407.603 523.354 409.315C523.531 409.215 523.709 409.118 523.886 409.018C516.39 413.756 509.417 418.846 502.932 424.72C498.816 431.044 496.261 436.877 494.708 441.338C504.479 432.616 514.508 424.327 524.849 416.291C524.794 418.78 524.612 421.256 524.446 423.739C524.664 423.631 524.882 423.525 525.1 423.417C512.959 430.898 502.762 440.737 492.509 450.555L492.482 460.217C492.642 461.663 492.863 463.115 493.157 464.589C501.679 451.595 512.884 441.656 525.302 432.525C525.627 435.512 525.932 438.5 526.204 441.491C526.219 441.482 526.233 441.474 526.248 441.466C513.463 449.888 501.654 458.883 492.451 471.241L492.418 482.973C504.343 472.18 516.762 461.978 529.085 451.647C528.315 448.113 527.64 444.568 527.067 440.996C539.094 433.968 551.676 428.206 564.656 423.173C565.196 426.231 565.719 429.293 566.235 432.355C566.267 432.345 566.299 432.335 566.331 432.325C552.582 437.133 539.901 443.32 528.337 452.286C529.1 456.156 529.917 460.014 530.72 463.875C542.414 454.838 554.689 447.38 568.54 442.134C568.076 438.786 567.588 435.441 567.065 432.102C579.737 428.224 592.432 424.418 605.127 420.617C605.831 423.66 606.57 426.692 607.367 429.713C607.394 429.707 607.421 429.702 607.448 429.697C594.207 433.953 580.994 438.295 567.737 442.498C568.086 446.713 568.448 450.927 568.767 455.144C583.099 447.761 596.964 443.102 611.379 440.021C610.286 436.541 609.21 433.057 608.204 429.55C621.834 426.873 635.629 425.96 649.471 425.048C648.856 421.612 648.242 418.176 647.599 414.745C647.42 414.756 647.241 414.772 647.063 414.784C661.772 413.305 676.448 411.635 691.241 411.367C692.088 414.961 692.897 418.562 693.668 422.173C678.506 421.604 663.559 422.532 648.606 425.208C649.008 428.433 649.49 431.645 650.024 434.851C659.659 434.106 669.8 433.568 680.677 432.994C685.807 432.723 691.036 432.446 696.446 432.139C695.866 428.825 695.265 425.515 694.655 422.207C694.398 422.197 694.14 422.19 693.883 422.18C709.887 422.265 725.541 419.96 741.091 416.271C739.611 412.427 738.156 408.574 736.72 404.714C736.66 404.728 736.599 404.742 736.539 404.756C751.525 400.672 766.327 396.016 781.036 391.03C780.844 391.106 780.652 391.182 780.46 391.259C782.322 395.286 784.18 399.315 786.019 403.353C770.829 408.141 755.572 412.679 740.117 416.546C741.515 420.05 742.909 423.555 744.277 427.07C758.613 424.572 773.172 421.292 786.826 417.821C788.813 417.246 790.796 416.658 792.776 416.055L792.775 416.057ZM770.232 368.088C770.03 368.171 769.83 368.256 769.629 368.338C771.452 372.09 773.271 375.844 775.078 379.604C761.004 384.503 746.827 389.07 732.515 393.225C731.177 389.506 729.833 385.79 728.48 382.077C728.347 382.111 728.215 382.142 728.082 382.176C742.28 377.917 756.309 373.172 770.232 368.089V368.088ZM759.319 347.059C759.136 347.137 758.954 347.218 758.771 347.296C760.609 350.728 762.44 354.162 764.255 357.607C751.099 362.51 737.862 367.172 724.52 371.545C723.217 368.281 721.9 365.023 720.566 361.771C733.509 356.935 746.458 352.114 759.319 347.059ZM524.015 408.946C535.379 402.534 546.947 396.572 559.058 391.693C559.43 394.166 559.812 396.637 560.215 399.105C560.362 399.061 560.51 399.018 560.658 398.975C548.392 403.694 536.652 409.391 525.274 415.961C525.355 415.898 525.436 415.833 525.517 415.771C525.078 413.482 524.576 411.208 524.015 408.947V408.946ZM525.866 432.11C525.939 432.057 526.009 432.003 526.082 431.951C525.77 429.083 525.499 426.214 525.258 423.339C537.206 417.429 549.211 411.711 561.562 406.685C562.09 409.389 562.601 412.097 563.091 414.808C563.254 414.762 563.416 414.718 563.577 414.672C550.606 419.626 538.095 425.546 525.866 432.11ZM564.78 423.126C565.003 423.04 565.225 422.949 565.449 422.863C564.915 420.106 564.401 417.345 563.888 414.585C576.389 411.012 588.964 407.723 601.599 404.658C602.152 407.306 602.715 409.952 603.282 412.596C603.334 412.583 603.387 412.572 603.44 412.558C590.516 415.946 577.613 419.404 564.781 423.125L564.78 423.126ZM605.645 420.464C605.738 420.436 605.832 420.408 605.924 420.38C605.305 417.722 604.699 415.062 604.098 412.4C617.462 409.081 630.938 406.774 644.665 405.657C645.354 408.706 646.029 411.76 646.699 414.814C632.87 415.755 619.2 417.537 605.644 420.465L605.645 420.464ZM692.154 411.271C691.202 407.829 690.223 404.395 689.225 400.967C674.647 402.3 660.111 404.039 645.551 405.55C644.834 402.657 644.119 399.763 643.403 396.87C629.652 398.922 616.02 401.579 602.42 404.451C601.912 401.941 601.414 399.429 600.925 396.915C587.8 399.575 574.823 402.811 561.958 406.524C562.087 406.471 562.215 406.416 562.345 406.364C561.889 403.868 561.445 401.371 561 398.875C573.44 395.162 585.958 391.821 598.723 389.427C599.171 391.974 599.625 394.52 600.093 397.064C613.874 394.377 627.612 391.475 641.345 388.556C640.665 385.878 639.975 383.204 639.272 380.532C652.559 377.18 665.998 374.626 679.507 372.35C680.374 375.351 681.255 378.348 682.151 381.341C696.376 378.822 710.406 375.542 724.307 371.618C724.098 371.686 723.891 371.757 723.683 371.825C724.996 375.313 726.297 378.805 727.591 382.3C713.865 385.771 700.041 388.676 686.044 390.813C685.028 387.617 684.028 384.418 683.036 381.215C668.809 383.475 654.612 385.883 640.492 388.745C641.182 391.492 641.865 394.241 642.537 396.992C656.739 394.949 670.938 392.877 685.161 390.978C686.2 394.327 687.253 397.671 688.309 401.015C703.127 399.478 717.712 396.811 732.188 393.323C731.994 393.379 731.801 393.437 731.607 393.493C732.986 397.31 734.371 401.127 735.765 404.939C721.386 408.293 706.924 410.689 692.154 411.273V411.271Z" fill="#204227"/>
<path d="M597.11 374.427C597.289 376.826 597.472 379.226 597.675 381.623C611.026 379.492 624.096 376.31 637.089 372.598C636.381 370.273 635.653 367.954 634.916 365.639C624.586 368.113 613.984 370.55 603.033 373.066C601.075 373.516 599.096 373.97 597.11 374.427Z" fill="#204227"/>
<path d="M534.739 475.437C533.631 471.421 532.572 467.392 531.539 463.355C518.711 473.296 505.66 482.928 492.392 492.273L492.35 507.77C493.622 506.861 494.884 505.938 496.137 505.006C506.577 496.006 519.651 485.616 534.74 475.438L534.739 475.437Z" fill="#204227"/>
</g>
<g opacity="0.15">
<path d="M456.331 421.504C451.733 415.124 446.269 409.359 439.963 404.221C439.307 405.906 438.694 407.607 438.112 409.319C437.935 409.219 437.758 409.121 437.581 409.022C445.076 413.76 452.049 418.849 458.534 424.723C457.843 423.663 457.113 422.589 456.331 421.504Z" fill="#204227"/>
<path d="M435.383 431.954C435.694 429.086 435.966 426.217 436.206 423.342C424.258 417.432 412.253 411.714 399.902 406.688C399.374 409.391 398.864 412.1 398.373 414.81C398.212 414.764 398.049 414.721 397.888 414.675C410.859 419.629 423.369 425.548 435.598 432.113C435.526 432.06 435.455 432.006 435.383 431.954Z" fill="#204227"/>
<path d="M236.945 371.546C238.249 368.282 239.566 365.025 240.9 361.773C227.956 356.937 215.008 352.115 202.147 347.061C202.33 347.139 202.511 347.219 202.694 347.298C200.857 350.729 199.026 354.164 197.211 357.609C210.367 362.512 223.604 367.174 236.945 371.546Z" fill="#204227"/>
<path d="M437.02 423.742C436.802 423.633 436.583 423.527 436.365 423.419C448.506 430.9 458.703 440.739 468.956 450.557L468.953 449.425C468.754 448.287 468.163 445.374 466.757 441.34C456.986 432.618 446.957 424.329 436.615 416.293C436.671 418.782 436.852 421.258 437.019 423.742H437.02Z" fill="#204227"/>
<path d="M228.95 393.226C230.288 389.507 231.633 385.791 232.986 382.078C233.118 382.112 233.251 382.143 233.383 382.177C219.186 377.918 205.157 373.173 191.234 368.09C191.435 368.173 191.636 368.258 191.837 368.34C190.014 372.092 188.194 375.846 186.387 379.606C200.462 384.505 214.638 389.071 228.95 393.226Z" fill="#204227"/>
<path d="M359.866 404.661C359.313 407.309 358.75 409.955 358.182 412.599C358.13 412.586 358.077 412.575 358.026 412.561C370.949 415.949 383.852 419.407 396.684 423.128C396.461 423.042 396.24 422.951 396.016 422.865C396.549 420.108 397.063 417.347 397.577 414.587C385.076 411.014 372.501 407.726 359.866 404.66V404.661Z" fill="#204227"/>
<path d="M316.8 405.658C316.111 408.708 315.435 411.761 314.765 414.816C328.595 415.757 342.264 417.539 355.82 420.466C355.727 420.438 355.634 420.411 355.541 420.383C356.16 417.725 356.767 415.065 357.367 412.403C344.004 409.084 330.528 406.777 316.801 405.659L316.8 405.658Z" fill="#204227"/>
<path d="M436.163 432.528C435.839 435.514 435.534 438.502 435.261 441.494C435.247 441.485 435.232 441.477 435.218 441.469C448.002 449.89 459.811 458.886 469.015 471.243L468.999 465.689C468.131 464.385 467.068 462.802 466.003 461.255C457.81 449.87 447.495 440.858 436.164 432.527L436.163 432.528Z" fill="#204227"/>
<path d="M399.121 406.363C399.576 403.868 400.02 401.37 400.465 398.874C388.025 395.161 375.507 391.82 362.742 389.426C362.295 391.973 361.841 394.52 361.373 397.063C347.591 394.376 333.854 391.474 320.12 388.555C320.801 385.877 321.491 383.203 322.193 380.531C308.906 377.179 295.468 374.625 281.959 372.349C281.091 375.35 280.211 378.348 279.314 381.34C265.089 378.822 251.06 375.541 237.159 371.617C237.367 371.685 237.574 371.757 237.783 371.825C236.47 375.312 235.169 378.804 233.875 382.299C247.601 385.77 261.424 388.675 275.422 390.812C276.437 387.617 277.437 384.417 278.43 381.215C292.657 383.474 306.853 385.882 320.973 388.744C320.284 391.492 319.601 394.24 318.929 396.992C304.726 394.948 290.527 392.876 276.305 390.977C275.265 394.326 274.212 397.67 273.156 401.014C258.338 399.478 243.753 396.81 229.277 393.322C229.472 393.378 229.664 393.436 229.858 393.492C228.479 397.31 227.094 401.126 225.7 404.939C240.08 408.293 254.542 410.688 269.312 411.273C270.263 407.831 271.243 404.397 272.24 400.969C286.819 402.302 301.354 404.041 315.915 405.552C316.632 402.659 317.346 399.765 318.063 396.872C331.814 398.924 345.446 401.581 359.045 404.453C359.553 401.943 360.052 399.431 360.541 396.917C373.665 399.577 386.643 402.813 399.508 406.525C399.379 406.473 399.251 406.418 399.121 406.366V406.363Z" fill="#204227"/>
<path d="M241.735 362.032C254.667 366.224 267.77 369.625 281.124 372.17C281.871 369.29 282.596 366.404 283.345 363.524C297.492 365.795 311.436 368.836 325.195 372.841C324.461 375.458 323.749 378.08 323.051 380.708C335.892 384.115 348.808 387.063 361.921 389.222C362.293 386.663 362.64 384.103 362.959 381.537C376.284 383.216 389.057 386.77 401.642 391.376C402.006 389.003 402.375 386.631 402.765 384.263C403.001 384.331 403.232 384.406 403.467 384.476C398.146 382.625 392.538 381.003 386.645 379.611C379.057 377.82 371.619 376.101 364.355 374.429C364.176 376.828 363.993 379.228 363.79 381.625C350.438 379.494 337.369 376.312 324.376 372.599C325.083 370.275 325.812 367.956 326.549 365.641C312.736 362.332 299.411 358.955 286.4 355.229C285.718 358.042 284.924 360.824 284.15 363.614C270.695 360.943 257.658 357.061 244.832 352.211C246.05 349.091 247.259 345.968 248.462 342.842C236.943 338.537 225.538 333.706 214.113 328.127C212.204 331.115 210.296 334.104 208.417 337.111C220.717 342.499 233.175 347.504 245.622 352.54C244.333 355.707 243.037 358.871 241.735 362.032Z" fill="#204227"/>
<path d="M119.854 401.847C131.248 405.581 148.732 411.033 168.589 416.258C170.54 411.933 172.576 407.399 174.483 403.053C174.607 403.093 174.731 403.131 174.856 403.17C159.634 397.55 144.507 391.696 129.522 385.471L119.854 401.846V401.847Z" fill="#204227"/>
<path d="M401.25 399.107C401.103 399.063 400.955 399.02 400.808 398.977C413.073 403.696 424.814 409.393 436.192 415.962C436.111 415.9 436.03 415.835 435.949 415.772C436.388 413.484 436.89 411.21 437.45 408.949C426.086 402.537 414.518 396.574 402.407 391.695C402.036 394.168 401.654 396.64 401.25 399.108V399.107Z" fill="#204227"/>
<path d="M185.483 379.293C185.647 379.351 185.813 379.407 185.978 379.465C171.728 373.823 157.618 367.862 143.672 361.504L136.636 373.422C151.084 379.358 165.596 385.133 180.111 390.906C181.908 387.038 183.689 383.163 185.482 379.293H185.483Z" fill="#204227"/>
<path d="M313.866 414.749C314.046 414.76 314.224 414.776 314.403 414.788C299.693 413.308 285.018 411.639 270.224 411.371C269.377 414.965 268.569 418.566 267.797 422.176C282.959 421.608 297.907 422.536 312.86 425.211C312.457 428.437 311.975 431.649 311.442 434.855C325.145 435.914 337.818 437.402 350.086 440.024C351.179 436.543 352.255 433.06 353.26 429.552C339.63 426.875 325.835 425.962 311.994 425.051C312.609 421.615 313.222 418.178 313.865 414.748L313.866 414.749Z" fill="#204227"/>
<path d="M224.745 404.717C224.805 404.731 224.866 404.745 224.927 404.759C209.941 400.676 195.138 396.02 180.43 391.033C180.622 391.11 180.814 391.186 181.006 391.262C179.144 395.29 177.286 399.319 175.446 403.357C190.637 408.144 205.894 412.683 221.349 416.55C219.95 420.054 218.557 423.558 217.189 427.073C228.56 429.054 239.791 430.543 250.315 431.242C255.405 431.58 260.281 431.874 265.019 432.144C265.599 428.83 266.2 425.521 266.81 422.213C267.068 422.202 267.325 422.195 267.583 422.186C251.578 422.27 235.924 419.966 220.374 416.276C221.855 412.432 223.31 408.579 224.745 404.719V404.717Z" fill="#204227"/>
<path d="M208.418 337.111C208.289 337.054 208.159 336.998 208.03 336.941C208.153 337.007 208.276 337.073 208.4 337.138C208.406 337.128 208.412 337.119 208.418 337.11V337.111Z" fill="#204227"/>
<path d="M196.351 357.292C196.543 357.364 196.736 357.433 196.927 357.504C183.384 351.78 169.977 345.763 156.718 339.408L150.233 350.392C163.704 356.518 177.296 362.355 190.981 367.984C192.763 364.416 194.546 360.848 196.351 357.291V357.292Z" fill="#204227"/>
<path d="M432.38 451.651C433.151 448.117 433.825 444.572 434.398 441C422.372 433.972 409.79 428.21 396.809 423.177C396.27 426.234 395.747 429.297 395.231 432.359C395.199 432.349 395.166 432.339 395.134 432.329C408.884 437.137 421.565 443.324 433.128 452.29C432.365 456.16 431.548 460.018 430.746 463.879C419.052 454.842 406.777 447.384 392.925 442.138C393.39 438.79 393.878 435.445 394.4 432.106C381.728 428.228 369.034 424.422 356.339 420.621C355.635 423.664 354.896 426.696 354.098 429.717C354.071 429.711 354.044 429.706 354.017 429.701C367.258 433.957 380.471 438.299 393.729 442.502C393.379 446.717 393.018 450.931 392.699 455.148C393.018 455.312 393.335 455.467 393.654 455.635C405.463 461.81 416.552 468.575 426.725 475.438C427.833 471.422 428.893 467.392 429.926 463.356C442.753 473.297 455.805 482.929 469.072 492.274L469.046 482.978C457.121 472.185 444.702 461.983 432.379 451.652L432.38 451.651Z" fill="#204227"/>
<path d="M207.609 336.759C207.749 336.821 207.889 336.881 208.03 336.942C195.348 330.289 182.924 323.183 170.533 316.008L162.686 329.3C175.632 335.446 188.716 341.279 201.879 346.945C203.764 343.536 205.668 340.137 207.609 336.76V336.759Z" fill="#204227"/>
</g>
<path d="M445.571 229.236C439.115 226.191 436.424 219.064 426.084 222.512C418.115 225.175 408.593 220.325 403.214 217.518L397.739 214.306C396.838 216.669 394.601 223.974 398.684 229.881C402.458 235.316 408.756 238.033 414.769 240.232C424.44 243.805 441.329 249.916 447.704 263.98L451.73 274.124L379.682 298.586C377.569 292.362 375.004 288.662 375.004 288.662C371.599 282.857 357.223 264.257 353.346 252.837C338.746 209.835 361.36 181.087 386.72 170.525L395.488 152.774C397.37 152.135 399.984 153.472 401.253 155.493L405.216 162.21C408.014 165.436 411.409 167.11 416.422 169.023C421.435 170.936 423.478 173.65 425.107 175.57C430.876 182.401 432.535 186.492 440.552 192.477L458.306 205.297C462.696 208.067 464.064 213.441 461.696 217.361C458.564 222.581 447.007 229.974 445.541 229.266L445.573 229.234L445.571 229.236Z" fill="#E7E6E5"/>
<path d="M386.064 289.959L443.989 270.293C472.887 260.483 479.296 279.792 479.296 279.792L482.565 289.425L367.106 328.624L363.836 318.991C363.836 318.991 357.166 299.77 386.064 289.959Z" fill="#E7E6E5"/>
<path d="M377.631 293.568C376.206 290.513 375.004 288.663 375.004 288.663C374.054 287.043 372.249 284.426 370.057 281.247C364.393 273.035 356.14 261.07 353.346 252.837C338.949 210.432 360.74 181.886 385.666 170.975C378.187 175.268 347.198 195.673 359.861 232.969C365.79 250.431 376.723 259.3 386.921 267.574C393.184 272.654 399.171 277.512 403.554 283.997C398.51 285.214 377.632 293.568 377.632 293.568H377.631Z" fill="#BEBDB9"/>
<path d="M386.81 170.341C387.093 170.19 387.246 170.115 387.246 170.115C387.117 170.155 386.989 170.197 386.861 170.238L386.81 170.341Z" fill="#BEBDB9"/>
<path d="M458.312 205.251L440.557 192.432C432.54 186.446 430.882 182.356 425.113 175.524C423.504 173.598 421.459 170.883 416.427 168.977C411.414 167.064 408.02 165.39 405.221 162.164L401.258 155.447C400.311 153.94 398.617 152.811 397.049 152.596C396.732 152.64 396.427 152.661 396.111 152.769C396.111 152.769 395.025 167.932 405.018 170.255C424.221 174.728 425.431 187.782 432.114 192.349C435.418 194.614 458.209 208.985 462.624 211.767C462.224 209.243 460.836 206.805 458.325 205.226L458.313 205.251H458.312Z" fill="#F1F1F1"/>
<path d="M423.118 223.143C424.119 223.031 425.107 222.82 426.076 222.492C436.416 219.043 439.107 226.172 445.564 229.215C445.907 229.369 446.807 229.083 447.986 228.518C446.398 227.145 442.485 224.982 438.147 219.246C431.076 209.926 430.386 215.667 423.123 223.161L423.117 223.143H423.118Z" fill="#BEBDB9"/>
<path d="M387.843 205.656C384.765 202.711 386.669 209.545 387.677 212.694C388.614 215.575 393.159 222.967 398.34 229.229C394.817 223.443 396.87 216.575 397.741 214.305L398.203 214.565C398.083 214.398 398.001 214.279 398.001 214.279C398.001 214.279 390.92 208.6 387.843 205.656Z" fill="#BEBDB9"/>
<path d="M473.729 272.33C468.722 268.233 459.693 264.961 443.987 270.292L386.042 289.964C370.802 295.139 365.499 302.902 363.848 309.115C367.113 306.49 378.468 299.539 416.755 286.54C460.409 271.72 471.492 271.988 473.727 272.33H473.729Z" fill="#F1F1F1"/>
<path d="M259.397 262.788L257.439 251.569L268.658 249.611L270.616 260.83L259.397 262.788Z" fill="white"/>
<path d="M181.442 125.692L183.739 118.555L190.876 120.852L188.579 127.989L181.442 125.692Z" fill="white"/>
<path d="M368.401 112.747L373.128 99.209L386.666 103.936L381.939 117.474L368.401 112.747Z" fill="#B2E068"/>
<path d="M614.506 137.173L625.941 132.389L630.725 143.824L619.29 148.608L614.506 137.173Z" fill="white"/>
<path d="M752.132 214.719L761.541 215.371L760.889 224.78L751.48 224.128L752.132 214.719Z" fill="#B2E068"/>
<path d="M586.023 67.6632L600.93 58.4902L610.101 73.3995L595.194 82.5699L586.023 67.6632Z" fill="#B2E068"/>
<path fill-rule="evenodd" clip-rule="evenodd" d="M564.443 64.8321L564.453 64.8193L564.434 64.8159C564.437 64.8213 564.44 64.8267 564.443 64.8321ZM551.569 157.805C557.57 152.476 570.692 137.877 574.534 116.087C578.521 93.4734 570.426 75.4194 564.443 64.8321L555.051 76.3738C550.55 82.2773 546.086 88.7742 542.873 95.7546C539.524 102.124 534.601 117.079 534.601 117.079L523.127 115.136C526.149 104.885 530.255 93.5297 536.589 83.1946L556.981 54.9836C559.023 52.3853 560.654 48.9556 561.233 45.6773C562.883 36.3171 556.471 27.3562 546.973 25.6815C537.476 24.0068 528.385 30.2342 526.735 39.5945C525.967 43.9508 526.724 50.2149 526.724 50.2149C526.724 50.2149 497.07 68.0722 491.212 101.294C487.349 123.199 494.8 141.516 498.599 148.465L495.612 147.939C466.237 142.759 462.87 162.54 462.87 162.54L461.13 172.411L578.515 193.109L580.256 183.239C580.256 183.239 583.877 163.502 554.482 158.319L551.569 157.805Z" fill="#E7E6E5"/>
<path d="M547.99 25.8915C547.655 25.8123 547.316 25.7424 546.973 25.6819C537.476 24.0072 528.385 30.2346 526.735 39.5949C526.429 41.3318 526.365 43.3719 526.399 45.1974C530.176 33.8747 541.027 26.6855 547.99 25.8915Z" fill="#F1F1F1"/>
<path d="M526.724 50.2153C526.724 50.2153 497.07 68.0726 491.212 101.295C489.897 108.751 489.966 115.704 490.673 122.02C494.018 102.821 503.132 75.5757 529.888 52.0075C529.888 52.0075 528.506 51.2378 526.724 50.2153Z" fill="#F1F1F1"/>
<path d="M467.156 154.414C471.39 149.678 479.639 145.123 495.593 147.936L554.482 158.32C569.964 161.05 576.24 167.801 578.757 173.607C575.216 171.546 563.217 166.496 524.305 159.635C479.937 151.812 469.255 153.752 467.152 154.434L467.156 154.414Z" fill="#F1F1F1"/>
<path d="M569.741 75.6268C574.057 86.0719 577.386 99.9129 574.534 116.086C570.692 137.876 557.571 152.475 551.569 157.804L520.544 152.334C529.416 149.937 579.582 133.72 569.741 75.6268Z" fill="#BEBDB9"/>
<path d="M523.127 115.135C517.713 95.7025 530.888 78.9673 542.561 64.1398C551.913 52.2595 560.302 41.6039 557.393 31.7666C557.404 31.742 557.416 31.7174 557.428 31.693C560.596 35.4588 562.144 40.5066 561.232 45.6762C560.983 47.0891 560.532 48.3854 559.974 49.6021C559.265 51.4398 558.364 53.2232 556.981 54.9825L556.962 54.9791L536.589 83.1935C530.255 93.5286 526.148 104.884 523.127 115.135Z" fill="#BEBDB9"/>
<path d="M709.282 321.017L769.01 337.021L769.381 335.634C774.957 314.826 753.581 315.21 757.9 292.744L765.813 294.864C767.432 293.15 768.185 290.957 768.784 288.722L761.802 281.399C766.393 279.408 769.605 275.147 770.762 270.831C772.951 262.662 768.082 254.254 759.835 251.962C751.469 249.803 743.048 254.65 740.859 262.819C739.703 267.135 740.354 272.431 743.335 276.451L733.627 279.301C733.029 281.536 732.584 283.813 733.129 286.106L741.042 288.227C733.549 309.843 715.229 298.822 709.654 319.63L709.282 321.017Z" fill="#4B4847"/>
<path d="M662.492 362.676C659.796 358.431 660.882 353.175 653.427 351.329C647.68 349.912 643.841 343.436 641.697 339.737L639.65 335.763C638.222 336.83 634.138 340.334 634.342 345.389C634.54 350.046 637.264 354.038 640.015 357.613C644.424 363.385 652.173 373.386 650.667 384.16L649.24 391.716L597.139 379.121C598.226 374.621 598.095 371.452 598.095 371.452C598.256 366.713 596.709 350.225 598.705 341.966C606.223 310.87 630.517 302.283 649.591 305.553L661.5 298.293C662.861 298.622 663.914 300.403 663.907 302.083L663.735 307.575C664.185 310.55 665.574 312.826 667.837 315.854C670.1 318.882 670.293 321.268 670.538 323.024C671.397 329.264 670.842 332.325 673.358 338.908L679.094 353.229C680.663 356.531 679.452 360.246 676.565 361.687C672.733 363.613 663.068 363.658 662.462 362.685L662.493 362.678L662.492 362.676Z" fill="#4B4847"/>
<path d="M604.187 376.391L646.075 386.517C666.973 391.569 663.51 405.478 663.51 405.478L661.826 412.443L578.333 392.26L580.016 385.294C580.016 385.294 583.291 371.34 604.187 376.391Z" fill="#4B4847"/>
<path opacity="0.5" fill-rule="evenodd" clip-rule="evenodd" d="M649.715 305.475C649.939 305.493 650.058 305.506 650.058 305.506C649.968 305.48 649.874 305.457 649.784 305.433L649.715 305.475ZM597.81 375.36C598.112 373.004 598.095 371.45 598.095 371.45C598.139 370.127 598.051 367.89 597.946 365.171C597.669 358.15 597.267 347.917 598.706 341.963C606.119 311.298 629.848 302.521 648.797 305.42C642.727 305.156 616.593 305.622 610.073 332.593C607.02 345.22 610.184 354.62 613.136 363.388C614.949 368.772 616.682 373.919 616.845 379.431C613.385 378.254 597.811 375.358 597.811 375.358L597.81 375.36ZM651.425 350.586L651.443 350.595L651.422 350.6L651.426 350.587L651.425 350.586ZM651.443 350.595C652.968 350.226 654.285 349.792 655.42 349.418C659.588 348.045 661.292 347.483 661.838 353.932C662.164 357.868 663.158 360.415 663.782 362.016C663.959 362.469 664.106 362.846 664.2 363.159C663.285 363.051 662.641 362.881 662.495 362.661C661.69 361.394 661.223 360.039 660.764 358.71C659.686 355.583 658.661 352.609 653.43 351.314C652.736 351.147 652.073 350.902 651.441 350.595H651.443ZM634.267 331.009C634.855 328.756 636.297 323.97 637.019 326.883C637.741 329.796 639.815 335.844 639.815 335.844C639.815 335.844 639.82 335.945 639.827 336.09L639.65 335.762C638.276 336.785 634.466 340.098 634.382 344.87C633.659 339.19 633.739 333.078 634.267 331.01V331.009Z" fill="#312E2B"/>
<path fill-rule="evenodd" clip-rule="evenodd" d="M713.88 149.004L713.889 148.999L713.878 148.993C713.879 148.996 713.88 149 713.88 149.004ZM687.696 198.49C692.147 196.728 702.481 191.221 709.08 179.791C715.928 167.93 715.074 156.158 713.88 149.004L706.261 153.557C702.534 155.948 698.707 158.679 695.481 161.935C692.305 164.823 686.494 172.2 686.494 172.2L680.46 168.771C684.245 163.641 688.863 158.114 694.522 153.614L711.707 141.961C713.382 140.921 714.996 139.332 715.989 137.612C718.823 132.702 717.057 126.371 712.075 123.495C707.094 120.619 700.728 122.255 697.893 127.165C696.574 129.45 695.72 133.115 695.72 133.115C695.72 133.115 675.456 137.075 665.395 154.501C658.761 165.992 659.2 177.778 659.912 182.449L658.345 181.544C642.936 172.648 637.014 183.049 637.014 183.049L634.025 188.226L695.598 223.776L698.587 218.598C698.587 218.598 704.644 208.275 689.225 199.372L687.696 198.49Z" fill="#4B4847"/>
<path opacity="0.2" d="M751.58 341.871C761.084 341.871 768.789 340.251 768.789 338.254C768.789 336.256 761.084 334.637 751.58 334.637C742.076 334.637 734.371 336.256 734.371 338.254C734.371 340.251 742.076 341.871 751.58 341.871Z" fill="black"/>
<path fill-rule="evenodd" clip-rule="evenodd" d="M256.874 374.428C245.531 378.079 246.609 384.144 247.841 391.074C247.92 391.515 247.998 391.959 248.075 392.405L248.484 394.796L322.319 382.17L321.91 379.779C321.834 379.332 321.76 378.887 321.688 378.446C320.549 371.509 319.566 365.516 307.629 365.747C307.612 365.747 307.594 365.747 307.574 365.748L294.835 323.086C300.179 319.925 302.053 316.502 301.652 311.649L300.548 296.433C298.969 295.954 296.782 295.687 294.719 295.504C292.117 295.307 290.609 295.244 288.703 295.356L286.818 308.73L282.244 309.513L277.504 295.559C274.834 295.588 272.079 295.739 269.48 296.183C266.881 296.628 264.232 297.401 261.705 298.262L261.974 312.98L257.297 313.78L251.075 301.792C247.957 302.326 243.926 304.405 240.432 306.499L244.275 321.462C245.456 325.861 247.634 328.59 254.609 329.966L256.872 374.428H256.874Z" fill="#4B4847"/>
<path opacity="0.5" d="M294.835 323.085L307.597 365.823L307.6 365.834H307.597C305.05 365.949 302.52 366.168 300.009 366.49C299.081 364.173 298.203 361.907 297.352 359.706C289.294 338.892 283.525 323.99 258.867 328.595C267.192 325.352 279.941 322.959 287.395 322.753C295.527 319.564 295.699 304.996 295.596 295.588C297.359 295.764 299.137 296.015 300.486 296.416C300.506 296.422 300.526 296.428 300.546 296.434L301.65 311.651C301.651 311.665 301.652 311.679 301.653 311.693C302.041 316.523 300.161 319.934 294.833 323.086L294.835 323.085Z" fill="#312E2B"/>
<defs>
<linearGradient id="paint0_linear_434_236" x1="609.828" y1="30.4622" x2="568.774" y2="170.259" gradientUnits="userSpaceOnUse">
<stop stop-color="#B2E068"/>
<stop offset="0.033" stop-color="#B2E068" stop-opacity="0.938"/>
<stop offset="0.177" stop-color="#B2E068" stop-opacity="0.692"/>
<stop offset="0.322" stop-color="#B2E068" stop-opacity="0.48"/>
<stop offset="0.465" stop-color="#B2E068" stop-opacity="0.307"/>
<stop offset="0.605" stop-color="#B2E068" stop-opacity="0.173"/>
<stop offset="0.743" stop-color="#B2E068" stop-opacity="0.077"/>
<stop offset="0.876" stop-color="#B2E068" stop-opacity="0.019"/>
<stop offset="1" stop-color="#B2E068" stop-opacity="0"/>
</linearGradient>
<linearGradient id="paint1_linear_434_236" x1="170.15" y1="101.962" x2="249.038" y2="206.969" gradientUnits="userSpaceOnUse">
<stop stop-color="white"/>
<stop offset="0.097" stop-color="white" stop-opacity="0.824"/>
<stop offset="0.231" stop-color="white" stop-opacity="0.608"/>
<stop offset="0.367" stop-color="white" stop-opacity="0.422"/>
<stop offset="0.5" stop-color="white" stop-opacity="0.27"/>
<stop offset="0.631" stop-color="white" stop-opacity="0.152"/>
<stop offset="0.76" stop-color="white" stop-opacity="0.068"/>
<stop offset="0.884" stop-color="white" stop-opacity="0.017"/>
<stop offset="1" stop-color="white" stop-opacity="0"/>
</linearGradient>
<linearGradient id="paint2_linear_434_236" x1="350.07" y1="99.6477" x2="415.88" y2="187.247" gradientUnits="userSpaceOnUse">
<stop stop-color="#B2E068"/>
<stop offset="0.033" stop-color="#B2E068" stop-opacity="0.938"/>
<stop offset="0.177" stop-color="#B2E068" stop-opacity="0.692"/>
<stop offset="0.322" stop-color="#B2E068" stop-opacity="0.48"/>
<stop offset="0.465" stop-color="#B2E068" stop-opacity="0.307"/>
<stop offset="0.605" stop-color="#B2E068" stop-opacity="0.173"/>
<stop offset="0.743" stop-color="#B2E068" stop-opacity="0.077"/>
<stop offset="0.876" stop-color="#B2E068" stop-opacity="0.019"/>
<stop offset="1" stop-color="#B2E068" stop-opacity="0"/>
</linearGradient>
<linearGradient id="paint3_linear_434_236" x1="651.909" y1="80.2302" x2="563.798" y2="261.509" gradientUnits="userSpaceOnUse">
<stop stop-color="white"/>
<stop offset="0.097" stop-color="white" stop-opacity="0.824"/>
<stop offset="0.231" stop-color="white" stop-opacity="0.608"/>
<stop offset="0.367" stop-color="white" stop-opacity="0.422"/>
<stop offset="0.5" stop-color="white" stop-opacity="0.27"/>
<stop offset="0.631" stop-color="white" stop-opacity="0.152"/>
<stop offset="0.76" stop-color="white" stop-opacity="0.068"/>
<stop offset="0.884" stop-color="white" stop-opacity="0.017"/>
<stop offset="1" stop-color="white" stop-opacity="0"/>
</linearGradient>
<linearGradient id="paint4_linear_434_236" x1="767.596" y1="211.68" x2="663.68" y2="287.323" gradientUnits="userSpaceOnUse">
<stop stop-color="#B2E068"/>
<stop offset="0.033" stop-color="#B2E068" stop-opacity="0.938"/>
<stop offset="0.177" stop-color="#B2E068" stop-opacity="0.692"/>
<stop offset="0.322" stop-color="#B2E068" stop-opacity="0.48"/>
<stop offset="0.465" stop-color="#B2E068" stop-opacity="0.307"/>
<stop offset="0.605" stop-color="#B2E068" stop-opacity="0.173"/>
<stop offset="0.743" stop-color="#B2E068" stop-opacity="0.077"/>
<stop offset="0.876" stop-color="#B2E068" stop-opacity="0.019"/>
<stop offset="1" stop-color="#B2E068" stop-opacity="0"/>
</linearGradient>
<linearGradient id="paint5_linear_434_236" x1="245.059" y1="250.106" x2="316.664" y2="296.585" gradientUnits="userSpaceOnUse">
<stop stop-color="white"/>
<stop offset="0.097" stop-color="white" stop-opacity="0.824"/>
<stop offset="0.231" stop-color="white" stop-opacity="0.608"/>
<stop offset="0.367" stop-color="white" stop-opacity="0.422"/>
<stop offset="0.5" stop-color="white" stop-opacity="0.27"/>
<stop offset="0.631" stop-color="white" stop-opacity="0.152"/>
<stop offset="0.76" stop-color="white" stop-opacity="0.068"/>
<stop offset="0.884" stop-color="white" stop-opacity="0.017"/>
<stop offset="1" stop-color="white" stop-opacity="0"/>
</linearGradient>
<linearGradient id="paint6_linear_434_236" x1="682.986" y1="184.855" x2="403.828" y2="469.036" gradientUnits="userSpaceOnUse">
<stop stop-color="white"/>
<stop offset="0.097" stop-color="white" stop-opacity="0.824"/>
<stop offset="0.231" stop-color="white" stop-opacity="0.608"/>
<stop offset="0.367" stop-color="white" stop-opacity="0.422"/>
<stop offset="0.5" stop-color="white" stop-opacity="0.27"/>
<stop offset="0.631" stop-color="white" stop-opacity="0.152"/>
<stop offset="0.76" stop-color="white" stop-opacity="0.068"/>
<stop offset="0.884" stop-color="white" stop-opacity="0.017"/>
<stop offset="1" stop-color="white" stop-opacity="0"/>
</linearGradient>
<linearGradient id="paint7_linear_434_236" x1="357.346" y1="241.724" x2="849.805" y2="854.246" gradientUnits="userSpaceOnUse">
<stop stop-color="white"/>
<stop offset="0.097" stop-color="white" stop-opacity="0.824"/>
<stop offset="0.231" stop-color="white" stop-opacity="0.608"/>
<stop offset="0.367" stop-color="white" stop-opacity="0.422"/>
<stop offset="0.5" stop-color="white" stop-opacity="0.27"/>
<stop offset="0.631" stop-color="white" stop-opacity="0.152"/>
<stop offset="0.76" stop-color="white" stop-opacity="0.068"/>
<stop offset="0.884" stop-color="white" stop-opacity="0.017"/>
<stop offset="1" stop-color="white" stop-opacity="0"/>
</linearGradient>
<linearGradient id="paint8_linear_434_236" x1="531.241" y1="-53.773" x2="508.021" y2="400.789" gradientUnits="userSpaceOnUse">
<stop stop-color="white"/>
<stop offset="0.097" stop-color="white" stop-opacity="0.824"/>
<stop offset="0.231" stop-color="white" stop-opacity="0.608"/>
<stop offset="0.367" stop-color="white" stop-opacity="0.422"/>
<stop offset="0.5" stop-color="white" stop-opacity="0.27"/>
<stop offset="0.631" stop-color="white" stop-opacity="0.152"/>
<stop offset="0.76" stop-color="white" stop-opacity="0.068"/>
<stop offset="0.884" stop-color="white" stop-opacity="0.017"/>
<stop offset="1" stop-color="white" stop-opacity="0"/>
</linearGradient>
<linearGradient id="paint9_linear_434_236" x1="214.694" y1="164.288" x2="462.83" y2="339.617" gradientUnits="userSpaceOnUse">
<stop stop-color="white"/>
<stop offset="0.097" stop-color="white" stop-opacity="0.824"/>
<stop offset="0.231" stop-color="white" stop-opacity="0.608"/>
<stop offset="0.367" stop-color="white" stop-opacity="0.422"/>
<stop offset="0.5" stop-color="white" stop-opacity="0.27"/>
<stop offset="0.631" stop-color="white" stop-opacity="0.152"/>
<stop offset="0.76" stop-color="white" stop-opacity="0.068"/>
<stop offset="0.884" stop-color="white" stop-opacity="0.017"/>
<stop offset="1" stop-color="white" stop-opacity="0"/>
</linearGradient>
<linearGradient id="paint10_linear_434_236" x1="605.214" y1="322.188" x2="662.856" y2="455.147" gradientUnits="userSpaceOnUse">
<stop stop-color="#B2E068"/>
<stop offset="0.033" stop-color="#B6E068" stop-opacity="0.938"/>
<stop offset="0.177" stop-color="#C8E068" stop-opacity="0.692"/>
<stop offset="0.322" stop-color="#D8E169" stop-opacity="0.48"/>
<stop offset="0.465" stop-color="#E5E169" stop-opacity="0.307"/>
<stop offset="0.605" stop-color="#EFE169" stop-opacity="0.173"/>
<stop offset="0.743" stop-color="#F6E169" stop-opacity="0.077"/>
<stop offset="0.876" stop-color="#FAE169" stop-opacity="0.019"/>
<stop offset="1" stop-color="#FCE26A" stop-opacity="0"/>
</linearGradient>
<linearGradient id="paint11_linear_434_236" x1="371.874" y1="330.596" x2="302.48" y2="453.196" gradientUnits="userSpaceOnUse">
<stop stop-color="#B2E068"/>
<stop offset="0.033" stop-color="#B6E068" stop-opacity="0.938"/>
<stop offset="0.177" stop-color="#C8E068" stop-opacity="0.692"/>
<stop offset="0.322" stop-color="#D8E169" stop-opacity="0.48"/>
<stop offset="0.465" stop-color="#E5E169" stop-opacity="0.307"/>
<stop offset="0.605" stop-color="#EFE169" stop-opacity="0.173"/>
<stop offset="0.743" stop-color="#F6E169" stop-opacity="0.077"/>
<stop offset="0.876" stop-color="#FAE169" stop-opacity="0.019"/>
<stop offset="1" stop-color="#FCE26A" stop-opacity="0"/>
</linearGradient>
</defs>
</svg>
