<svg width="962" height="678" viewBox="0 0 962 678" fill="none" xmlns="http://www.w3.org/2000/svg">
<path d="M57.4324 557.452C-1.26098 522.414 -31.5596 404.158 55.7044 368.089C136.637 334.638 109.641 305.567 89.6071 274.3C35.2271 189.426 109.088 120.311 270.31 148.609C431.531 176.907 384.374 56.849 583.663 42.6708C771.469 29.31 844.926 148.798 847.351 256.2C849.776 363.602 919.864 374.624 934.158 440.025C945.321 491.099 934.297 529.704 907.363 558.402C862.472 606.231 664.887 550.158 560.657 554.798C301.576 566.333 57.4315 557.452 57.4315 557.452H57.4324Z" fill="black" fill-opacity="0.1"/>
<path d="M50.7332 232.771C50.7332 268.05 6.04468 262.472 6.04468 222.169C6.04468 181.865 50.7332 191.107 50.7332 232.771Z" fill="black" fill-opacity="0.1"/>
<path d="M57.4324 291.822C57.4324 314.571 30.2228 312.002 30.2228 289.627C30.2228 267.252 57.4324 269.072 57.4324 291.822Z" fill="black" fill-opacity="0.1"/>
<path d="M879.789 289.874C879.789 325.63 924.276 367.276 924.276 299.049C924.276 230.822 879.789 234.366 879.789 289.874Z" fill="black" fill-opacity="0.1"/>
<path d="M229.933 218.023L289.66 202.019L289.289 200.632C283.713 179.824 265.393 190.845 257.901 169.229L265.813 167.108C266.358 164.815 265.914 162.538 265.315 160.303L255.607 157.453C258.588 153.433 259.239 148.137 258.083 143.821C255.894 135.652 247.473 130.805 239.185 132.943C230.861 135.256 225.992 143.664 228.181 151.834C229.337 156.149 232.549 160.41 237.14 162.401L230.158 169.724C230.757 171.959 231.511 174.152 233.129 175.866L241.042 173.746C245.362 196.212 223.985 195.828 229.561 216.636L229.933 218.023Z" fill="#4B4847"/>
<path opacity="0.3" d="M586.023 67.6626L563.345 182.179L610.1 73.398L586.023 67.6626Z" fill="url(#paint0_linear_755_10540)"/>
<path opacity="0.3" d="M181.442 125.692L265.447 222.168L190.876 120.853L181.442 125.692Z" fill="url(#paint1_linear_755_10540)"/>
<path opacity="0.3" d="M368.401 112.748L405.574 217.952L386.666 103.938L368.401 112.748Z" fill="url(#paint2_linear_755_10540)"/>
<path opacity="0.3" d="M614.506 137.175L544.826 307.852L630.725 143.825L614.506 137.175Z" fill="url(#paint3_linear_755_10540)"/>
<path opacity="0.3" d="M752.132 214.719L642.817 310.712L760.89 224.78L752.132 214.719Z" fill="url(#paint4_linear_755_10540)"/>
<path opacity="0.3" d="M259.398 262.789L322.721 316.331L268.659 249.611L259.398 262.789Z" fill="url(#paint5_linear_755_10540)"/>
<path opacity="0.08" d="M513.696 353.218C513.696 353.218 582.409 333.092 695.696 223.925L633.803 188.218C603.777 243.24 571.248 308.649 513.696 353.218Z" fill="url(#paint6_linear_755_10540)"/>
<path opacity="0.1" d="M367.107 328.621C367.107 328.621 469.045 542.274 695.598 677.191C532.184 437.491 482.568 289.422 482.568 289.422L367.107 328.621Z" fill="url(#paint7_linear_755_10540)"/>
<path opacity="0.3" d="M461.08 172.505C461.08 172.505 429.145 285.99 524.345 419.949C524.345 419.949 554.975 280.99 578.565 193.442L461.08 172.505Z" fill="url(#paint8_linear_755_10540)"/>
<path opacity="0.08" d="M230.5 218.171C230.5 218.171 252.106 275.553 410.5 298.209C410.5 298.209 308.613 257.341 289.653 202.209L230.5 218.171Z" fill="url(#paint9_linear_755_10540)"/>
<path d="M960.048 611.788L934.158 583.826V611.788H960.048Z" fill="#B2E068"/>
<path d="M1.9527 611.787L27.8413 583.826V611.787H1.9527Z" fill="#B2E068"/>
<path d="M201.746 602.025L431.275 584.309L459.386 552.651H203.231L201.746 602.025Z" fill="#45753C"/>
<path d="M760.091 602.025L530.562 584.309L502.451 552.651H758.605L760.091 602.025Z" fill="#45753C"/>
<path d="M81.1861 543.555V548.701H30.2228L31.3922 544.847L32.6504 543.555H81.1861Z" fill="#CCCCCC"/>
<path d="M931.532 547.876H879.789V542.998H928.804L930.608 544.847L931.532 547.876Z" fill="#CCCCCC"/>
<path d="M930.608 544.847H482.503C482.492 544.836 482.492 544.847 482.48 544.847H31.3922L32.6504 543.556L57.4751 518.163L61.5287 514.009L105.064 469.46L106.901 467.578L121.313 452.833L126.503 447.52L139.389 434.333L142.764 430.881H475.153C478.483 438.186 480.054 444.112 480.732 447.331C480.821 447.776 480.91 448.177 480.966 448.511C481.49 445.739 482.993 439.189 486.791 430.882H819.236L822.588 434.312L835.496 447.51L840.686 452.823L855.075 467.547L856.924 469.44L900.459 513.989L904.513 518.143L917.131 531.052L928.803 543.002L930.608 544.851V544.847Z" fill="#CCCCCC"/>
<g opacity="0.1">
<path d="M917.132 531.048C885.881 529.99 848.349 525.469 833.781 523.486C813.645 520.747 793.899 515.713 774.799 508.785C749.294 499.53 694.622 485.887 637.455 481.822C626.763 481.054 615.982 480.63 605.279 480.63C537.03 480.63 499.298 525.591 486.279 544.847C485.054 546.662 484.04 548.244 483.249 549.548C481.835 551.853 481.111 553.256 481.022 553.423C481.044 553.189 481.501 550.027 482.57 544.847C482.994 542.82 483.506 540.482 484.129 537.887C486.245 529.011 489.608 517.15 494.665 504.486C506.347 475.262 527.085 441.762 562.546 430.881C577.214 426.371 594.41 425.735 614.524 430.881C617.653 431.682 620.86 432.618 624.135 433.709C632.565 436.505 640.974 438.988 649.339 441.194C729.571 462.321 804.869 457.287 840.686 452.821L904.513 518.14L917.132 531.048Z" fill="black"/>
</g>
<path d="M919.348 500.165C903.555 521.749 865.031 521.793 833.781 517.55C813.645 514.81 793.899 509.776 774.799 502.849C749.294 493.594 694.622 479.951 637.455 475.886C626.763 475.117 615.982 474.694 605.279 474.694C530.605 474.694 492.471 528.52 483.249 543.611C481.746 546.073 481.01 547.498 481.01 547.498C481.01 547.498 481.856 541.428 484.129 531.95C486.245 523.074 489.608 511.213 494.665 498.549C511.938 455.337 548.981 402.814 624.135 427.773C632.565 430.568 640.974 433.052 649.339 435.257C760.699 464.581 862.549 443.51 862.549 443.51L872.339 453.266L919.349 500.164L919.348 500.165Z" fill="#E6E6E6"/>
<path d="M952.548 616.849L770.144 606.636C770.144 606.636 569.274 506.246 481.268 591.947V535.749C503.152 503.24 542.165 487.637 580.3 482.436C647.044 473.771 711.195 491.969 772.739 516.237C810.583 531.25 843.549 541.274 879.789 544.559C880.914 544.67 882.028 544.77 883.164 544.848C898.188 546.051 913.814 546.084 930.609 544.848L931.533 547.878L952.549 616.851L952.548 616.849Z" fill="#E6E6E6"/>
<g opacity="0.2">
<path d="M930.875 545.716C914.292 546.918 898.856 546.874 883.999 545.683C882.862 545.604 881.749 545.504 880.624 545.393C844.383 542.108 811.417 532.085 773.574 517.072C712.029 492.804 647.879 474.605 581.134 483.27C543 488.472 503.987 504.074 482.102 536.584V591.535C481.824 591.668 481.546 591.802 481.267 591.947V535.749C503.151 503.24 542.165 487.636 580.299 482.436C647.044 473.771 711.194 491.969 772.738 516.237C810.582 531.25 843.548 541.274 879.788 544.559C880.913 544.67 882.027 544.77 883.163 544.848C898.187 546.05 913.813 546.084 930.608 544.848L930.875 545.717V545.716Z" fill="white"/>
</g>
<path d="M952.548 616.849L770.144 606.637C770.144 606.637 579.865 542.241 481.268 591.947V590.699C568.716 507.917 769.308 605.801 769.308 605.801L951.713 616.014L952.548 616.849Z" fill="#204227"/>
<path d="M480.732 535.749V591.946C422.262 512.928 191.856 606.636 191.856 606.636L9.45178 616.848L30.2228 548.7L31.3922 544.847C48.1871 546.083 63.8126 546.049 78.8369 544.847C79.6281 544.791 80.4071 544.725 81.187 544.657C117.828 541.461 151.062 531.393 189.262 516.236C250.807 491.968 314.957 473.77 381.701 482.434C419.835 487.635 458.849 503.238 480.733 535.748L480.732 535.749Z" fill="#E6E6E6"/>
<g opacity="0.3">
<path d="M468.626 521.058C446.085 498.995 414.055 487.647 382.625 483.359C315.88 474.694 251.729 492.892 190.186 517.16C151.986 532.318 118.752 542.386 82.1107 545.582C81.3309 545.649 80.551 545.715 79.7606 545.771C64.7364 546.974 49.1108 547.008 32.3159 545.771L31.1465 549.624L10.6761 616.781L9.45099 616.848L30.222 548.7L31.3914 544.847C48.1863 546.083 63.8118 546.049 78.8361 544.847C79.6273 544.791 80.4063 544.725 81.1862 544.657C117.828 541.461 151.061 531.393 189.261 516.236C250.806 491.968 314.956 473.77 381.701 482.434C413.564 486.778 446.04 498.382 468.626 521.058Z" fill="white"/>
</g>
<path d="M480.732 535.749V591.946C424.489 512.743 191.856 606.636 191.856 606.636L9.45178 616.849L9.75241 615.857L190.932 605.711C190.932 605.711 381.211 541.316 479.808 591.021V534.823C476.389 529.745 472.557 525.078 468.37 520.801C472.914 525.334 477.068 530.301 480.732 535.747V535.749Z" fill="#204227"/>
<path opacity="0.1" d="M872.338 453.266C829.003 498.962 756.634 483.381 738.837 479.84C733.77 478.838 728.669 478.047 723.535 477.534C707.319 475.908 673.896 473.436 637.456 475.886C626.764 475.117 615.983 474.694 605.28 474.694C530.606 474.694 492.472 528.519 483.25 543.611C483.328 539.947 482.452 536.077 482.987 532.001C484.335 521.498 488.54 509.865 494.666 498.55C509.022 471.988 540.183 446.896 605.324 440.648C620.75 439.167 635.417 437.352 649.339 435.258C760.699 464.582 862.549 443.511 862.549 443.511L872.338 453.266Z" fill="black"/>
<path d="M896.149 434.411C851.043 503.673 762.146 475.385 742.334 469.438C737.389 467.945 732.388 466.675 727.332 465.673C719.458 464.114 707.452 461.953 692.918 460.038C658.147 455.449 608.966 452.264 567.636 462.132C494.888 479.484 481.958 536.361 481.958 536.361C481.958 536.361 461.209 417.683 613.176 417.683C724.024 417.683 798.543 396.255 830.751 384.661C842.69 380.373 848.816 377.422 848.816 377.422L896.149 434.411Z" fill="#F2F2F2"/>
<path opacity="0.1" d="M854.017 424.064C779.253 449.891 730.706 457.086 692.918 460.037C658.147 455.449 608.966 452.264 567.636 462.131C494.888 479.483 481.958 536.36 481.958 536.36C481.958 536.36 461.209 417.682 613.176 417.682C724.024 417.682 798.543 396.254 830.751 384.661L854.017 424.064Z" fill="black"/>
<path d="M859.954 408.473C855.655 409.954 851.456 411.379 847.324 412.738C823.725 420.545 802.865 426.414 784.199 430.88C747.313 439.701 718.957 443.009 694.923 444.746C686.269 445.37 678.184 445.793 670.455 446.194C647.323 447.386 627.421 448.4 605.469 454.135C601.772 455.104 598.085 456.241 594.398 457.543C567.135 467.121 540.405 485.096 519.724 501.468C517.586 503.139 515.525 504.809 513.532 506.447C501.492 516.348 492.004 525.224 486.402 530.681C486.39 530.693 486.39 530.704 486.379 530.714C486.179 530.904 485.99 531.094 485.8 531.283C485.064 531.995 484.407 532.652 483.829 533.232C483.74 533.321 483.65 533.411 483.561 533.488C483.427 533.633 483.294 533.767 483.16 533.889C483.037 534.011 482.927 534.122 482.815 534.245L481.79 535.27C481.59 535.482 481.411 535.66 481.267 535.816C481.244 535.838 481.234 535.849 481.211 535.871C481.111 535.972 481.033 536.05 480.966 536.116C480.81 536.283 480.733 536.361 480.733 536.361V449.959C480.733 449.959 480.8 449.458 480.966 448.522V448.511C481.49 445.738 482.993 439.189 486.791 430.881C496.258 410.099 519.992 378.258 578.183 366.708C743.014 333.987 789.789 289.628 789.789 289.628L843.102 379.928L859.954 408.473Z" fill="white"/>
<path d="M859.954 408.473C855.655 409.954 851.456 411.379 847.324 412.738C823.725 420.545 802.865 426.414 784.199 430.88C747.313 439.701 718.957 443.009 694.923 444.746C686.269 445.37 678.184 445.793 670.455 446.194C647.323 447.386 627.421 448.4 605.469 454.135C601.772 455.104 598.085 456.241 594.398 457.543C567.135 467.121 540.405 485.096 519.724 501.468C517.586 503.139 515.525 504.809 513.532 506.447C501.492 516.348 492.004 525.224 486.402 530.681C486.39 530.693 486.39 530.704 486.379 530.714C486.179 530.904 485.99 531.094 485.8 531.283C485.064 531.995 484.407 532.652 483.829 533.232C483.74 533.321 483.65 533.411 483.561 533.488C483.427 533.633 483.294 533.767 483.16 533.889C483.037 534.011 482.927 534.122 482.815 534.245L481.79 535.27C481.59 535.482 481.411 535.66 481.267 535.816C481.244 535.838 481.234 535.849 481.211 535.871C481.111 535.972 481.033 536.05 480.966 536.116C480.81 536.283 480.733 536.361 480.733 536.361V449.959C480.733 449.959 480.8 449.458 480.966 448.522V448.511C481.49 445.738 482.993 439.189 486.791 430.881C496.258 410.099 519.992 378.258 578.183 366.708C743.014 333.987 789.789 289.628 789.789 289.628L843.102 379.928L859.954 408.473Z" fill="url(#paint10_linear_755_10540)"/>
<g opacity="0.1">
<path d="M57.4323 518.14C76.4214 527.462 104.398 526.717 128.165 523.486C148.3 520.747 168.047 515.713 187.147 508.785C212.652 499.53 267.323 485.887 324.491 481.822C335.183 481.054 345.963 480.63 356.667 480.63C424.915 480.63 462.648 525.591 475.667 544.847C476.892 546.662 477.906 548.244 478.696 549.547C480.199 552.008 480.934 553.435 480.934 553.435C480.934 553.435 480.489 550.238 479.376 544.848C478.952 542.821 478.44 540.483 477.817 537.888C475.701 529.012 472.337 517.151 467.281 504.487C455.598 475.263 434.86 441.763 399.4 430.882C384.732 426.371 367.536 425.736 347.423 430.882C344.293 431.683 341.086 432.619 337.812 433.71C329.381 436.506 320.972 438.989 312.608 441.194C232.376 462.322 157.078 457.288 121.26 452.822L57.4323 518.141V518.14Z" fill="black"/>
</g>
<path d="M42.5972 500.165C58.3901 521.749 96.9136 521.793 128.164 517.55C148.3 514.81 168.046 509.776 187.146 502.849C212.651 493.594 267.323 479.951 324.49 475.886C335.182 475.117 345.963 474.694 356.666 474.694C431.34 474.694 469.474 528.52 478.696 543.611C480.199 546.073 480.935 547.498 480.935 547.498C480.935 547.498 480.089 541.428 477.816 531.95C475.7 523.074 472.337 511.213 467.28 498.549C450.007 455.337 412.964 402.814 337.81 427.773C329.38 430.568 320.971 433.052 312.606 435.257C201.245 464.581 99.3962 443.51 99.3962 443.51L89.6063 453.266L42.5964 500.164L42.5972 500.165Z" fill="#E6E6E6"/>
<path opacity="0.1" d="M89.6079 453.266C132.942 498.962 205.312 483.381 223.109 479.84C228.176 478.838 233.277 478.047 238.411 477.534C254.627 475.908 288.05 473.436 324.49 475.886C335.182 475.117 345.963 474.694 356.666 474.694C431.34 474.694 469.474 528.519 478.696 543.611C478.618 539.947 479.231 536.1 478.696 532.023C477.348 521.521 473.406 509.865 467.28 498.549C452.924 471.987 421.763 446.895 356.621 440.647C341.196 439.166 326.528 437.351 312.607 435.257C201.246 464.581 99.3969 443.51 99.3969 443.51L89.607 453.266L89.6079 453.266Z" fill="black"/>
<path d="M65.7958 434.411C110.902 503.673 199.799 475.385 219.611 469.438C224.556 467.945 229.557 466.675 234.613 465.673C242.487 464.114 254.492 461.953 269.027 460.038C303.798 455.449 352.979 452.264 394.309 462.132C467.057 479.484 479.987 536.361 479.987 536.361C479.987 536.361 500.736 417.683 348.769 417.683C237.922 417.683 163.402 396.255 131.194 384.661C119.255 380.373 113.129 377.422 113.129 377.422L65.7958 434.411Z" fill="#F2F2F2"/>
<path opacity="0.1" d="M107.928 424.064C182.692 449.891 231.239 457.086 269.027 460.037C303.798 455.449 352.979 452.264 394.309 462.131C467.057 479.483 479.987 536.36 479.987 536.36C479.987 536.36 500.736 417.682 348.769 417.682C237.921 417.682 163.402 396.254 131.193 384.661L107.928 424.064Z" fill="black"/>
<path d="M481.212 449.959V536.361C481.212 536.361 481.134 536.283 480.967 536.116V536.105L480.733 535.87C480.577 535.714 480.388 535.514 480.154 535.269L479.809 534.924C479.72 534.835 479.62 534.735 479.519 534.624L478.874 533.978C478.851 533.956 478.829 533.922 478.796 533.9C478.673 533.767 478.54 533.633 478.395 533.499C478.306 533.411 478.218 533.322 478.128 533.232L478.116 533.221C477.537 532.641 476.88 531.995 476.145 531.271C472.192 527.418 466.078 521.616 458.348 514.866L458.115 514.665C453.827 510.923 449.039 506.902 443.848 502.76C443.28 502.292 442.701 501.835 442.11 501.367C442.11 501.367 442.099 501.356 442.088 501.356C421.44 485.018 394.777 467.121 367.591 457.554C363.894 456.251 360.185 455.103 356.476 454.134C334.535 448.399 314.623 447.385 291.49 446.194C283.761 445.793 275.676 445.369 267.022 444.745C242.988 443.008 214.633 439.7 177.746 430.879C159.08 426.413 138.22 420.544 114.621 412.737C110.489 411.379 106.29 409.953 101.991 408.472L118.842 379.927L172.155 289.627C172.155 289.627 218.932 333.986 383.761 366.707C420.715 374.036 443.779 389.561 458.113 405.242C458.192 405.331 458.28 405.42 458.347 405.51C466.444 414.431 471.734 423.374 475.153 430.88C478.483 438.186 480.054 444.111 480.732 447.33C480.821 447.775 480.91 448.176 480.966 448.511V448.522C481.144 449.458 481.212 449.959 481.212 449.959Z" fill="white"/>
<path d="M481.212 449.959V536.361C481.212 536.361 481.134 536.283 480.967 536.116V536.105L480.733 535.87C480.577 535.714 480.388 535.514 480.154 535.269L479.809 534.924C479.72 534.835 479.62 534.735 479.519 534.624L478.874 533.978C478.851 533.956 478.829 533.922 478.796 533.9C478.673 533.767 478.54 533.633 478.395 533.499C478.306 533.411 478.218 533.322 478.128 533.232L478.116 533.221C477.537 532.641 476.88 531.995 476.145 531.271C472.192 527.418 466.078 521.616 458.348 514.866L458.115 514.665C453.827 510.923 449.039 506.902 443.848 502.76C443.28 502.292 442.701 501.835 442.11 501.367C442.11 501.367 442.099 501.356 442.088 501.356C421.44 485.018 394.777 467.121 367.591 457.554C363.894 456.251 360.185 455.103 356.476 454.134C334.535 448.399 314.623 447.385 291.49 446.194C283.761 445.793 275.676 445.369 267.022 444.745C242.988 443.008 214.633 439.7 177.746 430.879C159.08 426.413 138.22 420.544 114.621 412.737C110.489 411.379 106.29 409.953 101.991 408.472L118.842 379.927L172.155 289.627C172.155 289.627 218.932 333.986 383.761 366.707C420.715 374.036 443.779 389.561 458.113 405.242C458.192 405.331 458.28 405.42 458.347 405.51C466.444 414.431 471.734 423.374 475.153 430.88C478.483 438.186 480.054 444.111 480.732 447.33C480.821 447.775 480.91 448.176 480.966 448.511V448.522C481.144 449.458 481.212 449.959 481.212 449.959Z" fill="url(#paint11_linear_755_10540)"/>
<path opacity="0.05" d="M480.967 448.511V536.116C480.811 536.284 480.733 536.361 480.733 536.361V535.871C480.577 535.715 480.388 535.515 480.154 535.27L479.809 534.925C479.72 534.836 479.62 534.736 479.52 534.624L478.874 533.979C478.851 533.957 478.829 533.923 478.796 533.901C478.673 533.768 478.54 533.634 478.396 533.5C478.307 533.412 478.218 533.323 478.128 533.233L478.117 533.222C477.537 532.642 476.88 531.996 476.146 531.272C472.192 527.419 466.078 521.617 458.349 514.867V405.511C466.445 414.432 471.736 423.375 475.155 430.881C478.485 438.187 480.056 444.112 480.734 447.331C480.823 447.776 480.912 448.177 480.968 448.512L480.967 448.511Z" fill="black"/>
<path d="M548.858 578.588V595.35L534.146 594.259C533.5 594.849 532.865 595.428 532.219 595.997C530.838 597.222 529.457 598.38 528.076 599.46C527.597 599.839 527.13 600.206 526.65 600.563C525.336 601.576 524.022 602.512 522.707 603.402C522.218 603.748 521.717 604.071 521.215 604.393C520.402 604.928 519.577 605.441 518.764 605.919C518.709 605.963 518.653 605.997 518.597 606.031C518.085 606.331 517.584 606.62 517.071 606.911C516.815 607.067 516.559 607.211 516.303 607.345C516.047 607.49 515.802 607.624 515.546 607.769C514.866 608.137 514.187 608.493 513.507 608.827C513.196 608.983 512.895 609.139 512.583 609.283C512.159 609.495 511.737 609.696 511.313 609.885C510.868 610.096 510.433 610.297 509.988 610.486C509.298 610.798 508.618 611.087 507.938 611.355C507.515 611.522 507.081 611.688 506.658 611.856C505.533 612.29 504.419 612.68 503.305 613.036C502.972 613.148 502.648 613.248 502.325 613.348C502.292 613.36 502.269 613.371 502.247 613.371C501.923 613.471 501.612 613.571 501.289 613.66C500.821 613.794 500.364 613.928 499.908 614.039C499.463 614.161 499.017 614.284 498.571 614.384C497.903 614.563 497.234 614.708 496.566 614.841C496.422 614.885 496.277 614.908 496.132 614.93C495.82 615.007 495.508 615.063 495.196 615.119C494.985 615.163 494.784 615.208 494.572 615.231C494.116 615.319 493.648 615.398 493.191 615.464C493.136 615.487 493.08 615.497 493.024 615.497C492.188 615.631 491.354 615.742 490.518 615.831C490.128 615.875 489.738 615.92 489.349 615.954C488.892 615.998 488.435 616.043 487.99 616.077C485.618 616.254 483.279 616.288 481.007 616.199C477.811 616.322 474.514 616.211 471.151 615.799C470.482 615.721 469.837 615.631 469.18 615.531C469.113 615.52 469.035 615.509 468.968 615.498C468.779 615.475 468.59 615.442 468.4 615.398C468.199 615.375 467.988 615.342 467.787 615.298C467.587 615.275 467.386 615.23 467.186 615.186C467.097 615.186 467.007 615.164 466.918 615.142C466.562 615.075 466.217 615.007 465.861 614.93C465.571 614.874 465.281 614.818 464.992 614.751C463.711 614.472 462.419 614.15 461.127 613.771C460.648 613.637 460.158 613.503 459.679 613.347C459.668 613.347 459.656 613.347 459.646 613.336C459.334 613.247 459.012 613.147 458.7 613.036C457.107 612.523 455.515 611.945 453.91 611.287C453.365 611.075 452.83 610.841 452.296 610.607C451.973 610.474 451.661 610.328 451.338 610.172C450.982 610.028 450.625 609.86 450.269 609.682C449.946 609.538 449.623 609.382 449.3 609.226C448.287 608.736 447.273 608.212 446.26 607.656C445.815 607.422 445.368 607.176 444.934 606.92C444.489 606.664 444.043 606.408 443.598 606.14C443.486 606.085 443.386 606.017 443.274 605.951C441.949 605.16 440.624 604.314 439.288 603.401C438.787 603.056 438.275 602.711 437.773 602.354C437.729 602.321 437.695 602.298 437.651 602.265C436.805 601.664 435.958 601.04 435.111 600.383C434.622 600.015 434.131 599.626 433.641 599.236C432.349 598.222 431.069 597.142 429.777 595.995C429.131 595.427 428.496 594.847 427.85 594.257L425.6 594.425V577.663L427.015 577.563L464.336 540.231C468.445 536.133 473.802 533.727 479.56 533.393C479.705 533.381 479.85 533.371 480.006 533.371C480.329 533.348 480.663 533.338 480.997 533.338C481.342 533.338 481.677 533.349 482.011 533.371C482.167 533.359 482.311 533.371 482.445 533.393C488.192 533.726 493.549 536.132 497.659 540.231L534.99 577.563L548.856 578.587L548.858 578.588Z" fill="#305730"/>
<path d="M509.845 564.244C505.736 560.146 500.378 557.74 494.632 557.405C494.498 557.382 494.353 557.372 494.197 557.382C493.863 557.36 493.517 557.349 493.172 557.349C492.849 557.349 492.515 557.361 492.192 557.382C492.036 557.382 491.891 557.394 491.747 557.405C485.988 557.739 480.631 560.145 476.522 564.244L439.201 601.575L437.775 601.675V602.355C437.731 602.322 437.697 602.299 437.652 602.266C436.806 601.665 435.959 601.041 435.113 600.384C434.623 600.016 434.133 599.627 433.643 599.236C432.351 598.223 431.071 597.142 429.779 595.996C429.133 595.428 428.498 594.848 427.852 594.258L425.602 594.426V589.046L426.604 588.979L463.925 551.648C468.035 547.55 473.392 545.144 479.15 544.809C479.295 544.798 479.439 544.788 479.595 544.788C479.918 544.765 480.252 544.754 480.575 544.754C480.921 544.754 481.266 544.766 481.6 544.788C481.756 544.776 481.901 544.788 482.034 544.809C487.781 545.143 493.138 547.549 497.248 551.648L509.844 564.244H509.845Z" fill="#1C3724"/>
<path d="M497.661 540.236C496.113 538.688 494.376 537.374 492.505 536.339C491.435 535.726 490.322 535.214 489.175 534.801C487.872 534.312 486.536 533.955 485.166 533.721C484.854 533.654 484.531 533.609 484.219 533.576C484.063 533.543 483.918 533.532 483.762 533.521C483.695 533.498 483.629 533.498 483.562 533.487C483.339 533.465 483.116 533.443 482.882 533.432C482.871 533.432 482.859 533.42 482.849 533.432C482.838 533.42 482.826 533.42 482.804 533.432C482.682 533.41 482.571 533.41 482.448 533.399C482.314 533.376 482.169 533.365 482.013 533.376C481.857 533.365 481.713 533.353 481.557 533.365C481.445 533.353 481.334 533.342 481.212 533.353C481.144 533.342 481.067 533.342 481 533.342H480.967C480.889 533.342 480.811 533.342 480.733 533.353C480.61 533.342 480.5 533.353 480.388 533.365C480.255 533.365 480.132 533.365 480.009 533.376C479.853 533.376 479.708 533.387 479.564 533.399C479.419 533.41 479.286 533.42 479.14 533.432H479.118C479.029 533.432 478.95 533.443 478.861 533.454H478.839C478.694 533.466 478.549 533.477 478.394 533.499C478.326 533.499 478.26 533.51 478.193 533.521C477.715 533.577 477.246 533.644 476.779 533.733C475.409 533.968 474.072 534.334 472.781 534.814C471.633 535.237 470.52 535.761 469.44 536.362C467.591 537.398 465.876 538.701 464.339 540.238L438.991 565.586L429.023 575.565L420.96 583.628L426.339 589.007L438.044 600.724C438.044 600.724 438.044 600.735 438.056 600.735L443.279 605.958C443.39 606.025 443.491 606.091 443.602 606.147C444.047 606.415 444.493 606.671 444.939 606.927C445.374 607.183 445.819 607.428 446.264 607.663C447.278 608.219 448.291 608.743 449.304 609.233C449.628 609.389 449.95 609.545 450.273 609.689C450.63 609.868 450.986 610.034 451.343 610.179C451.666 610.335 451.977 610.48 452.3 610.613C452.835 610.847 453.369 611.081 453.915 611.293C455.519 611.95 457.111 612.529 458.704 613.042C459.016 613.153 459.339 613.253 459.65 613.342C459.662 613.354 459.673 613.354 459.683 613.354C460.163 613.509 460.652 613.643 461.131 613.777C462.423 614.156 463.714 614.478 464.995 614.757C465.14 614.78 465.274 614.813 465.419 614.836C465.563 614.88 465.708 614.914 465.864 614.936C466.076 614.98 466.276 615.025 466.488 615.059C466.633 615.092 466.777 615.126 466.922 615.148C467.011 615.159 467.1 615.181 467.189 615.192C467.39 615.237 467.59 615.281 467.791 615.304C467.991 615.348 468.203 615.382 468.403 615.404C468.592 615.448 468.782 615.481 468.971 615.504L437.096 583.629L451.029 569.697L451.263 569.463L472.412 548.314C472.657 548.069 472.913 547.835 473.17 547.623C473.426 547.4 473.693 547.189 473.971 546.999C474.194 546.832 474.428 546.676 474.661 546.542C474.762 546.475 474.873 546.409 474.985 546.353C475.208 546.22 475.43 546.097 475.664 545.986C475.687 545.974 475.697 545.974 475.709 545.952C475.887 545.874 476.065 545.797 476.244 545.719C476.367 545.675 476.489 545.619 476.622 545.574C476.923 545.451 477.223 545.351 477.535 545.262C477.836 545.162 478.148 545.095 478.471 545.029C478.516 545.017 478.571 545.006 478.616 544.996C478.861 544.94 479.117 544.896 479.373 544.873C479.395 544.862 479.417 544.862 479.44 544.862C479.473 544.862 479.507 544.85 479.54 544.85H479.552C479.64 544.839 479.719 544.828 479.808 544.828C480.031 544.806 480.264 544.784 480.499 544.773C480.576 544.773 480.655 544.761 480.732 544.773C480.744 544.761 480.755 544.761 480.777 544.773C480.844 544.761 480.921 544.761 480.999 544.761C481.088 544.761 481.177 544.761 481.266 544.773C481.334 544.761 481.4 544.761 481.456 544.773C481.656 544.773 481.845 544.784 482.035 544.817C482.058 544.806 482.079 544.806 482.102 544.817C482.214 544.817 482.325 544.839 482.436 544.85H482.48C482.488 544.85 482.495 544.854 482.503 544.862H482.57C482.849 544.895 483.116 544.94 483.383 544.996C483.416 545.007 483.439 545.007 483.461 545.007C483.785 545.074 484.118 545.163 484.43 545.252C484.754 545.341 485.065 545.452 485.377 545.575C485.488 545.62 485.6 545.664 485.71 545.709C485.911 545.787 486.1 545.864 486.29 545.953C486.301 545.976 486.313 545.976 486.334 545.986C486.557 546.098 486.791 546.221 487.013 546.354C487.125 546.41 487.236 546.477 487.336 546.543C487.57 546.677 487.804 546.833 488.027 547C488.305 547.189 488.572 547.401 488.828 547.624C489.084 547.836 489.341 548.069 489.586 548.315L524.902 583.631L521.794 586.738L497.193 611.34L493.027 615.505C493.083 615.505 493.139 615.494 493.195 615.472C493.651 615.405 494.119 615.327 494.576 615.238C494.788 615.216 494.988 615.171 495.2 615.127C495.412 615.082 495.612 615.038 495.824 614.993C495.935 614.982 496.035 614.96 496.136 614.938C496.28 614.916 496.425 614.893 496.57 614.849C497.239 614.715 497.907 614.57 498.575 614.392C499.021 614.292 499.466 614.169 499.912 614.047C500.369 613.936 500.825 613.802 501.293 613.668C501.617 613.579 501.929 613.479 502.251 613.379C502.274 613.379 502.295 613.367 502.329 613.356C502.652 613.256 502.975 613.156 503.309 613.044C504.422 612.688 505.536 612.298 506.661 611.863C507.084 611.696 507.518 611.53 507.942 611.362C508.622 611.095 509.3 610.806 509.991 610.494C510.437 610.305 510.871 610.104 511.317 609.892C511.74 609.703 512.163 609.502 512.586 609.291C512.898 609.147 513.199 608.99 513.511 608.835C514.191 608.501 514.869 608.144 515.549 607.777C515.805 607.632 516.05 607.498 516.306 607.354C516.562 607.221 516.819 607.075 517.075 606.92C517.587 606.631 518.088 606.341 518.601 606.04C518.656 606.007 518.712 605.973 518.768 605.929L533.324 591.361L541.053 583.632L497.663 540.242L497.661 540.236Z" fill="#E3AA24"/>
<path d="M961.859 616.956C961.859 617.167 961.847 617.379 961.837 617.591C961.503 622.191 957.493 625.643 952.894 625.297L548.859 595.35L534.147 594.259C533.501 594.849 532.866 595.428 532.22 595.997C530.839 597.222 529.458 598.38 528.077 599.46C527.598 599.839 527.131 600.206 526.651 600.563C525.337 601.576 524.023 602.512 522.708 603.402C522.219 603.747 521.718 604.071 521.216 604.393C520.403 604.928 519.578 605.441 518.765 605.919C518.71 605.963 518.654 605.996 518.598 606.03C518.086 606.331 517.585 606.62 517.072 606.911C516.816 607.067 516.56 607.211 516.304 607.345C516.048 607.49 515.803 607.624 515.546 607.769C514.867 608.137 514.188 608.493 513.508 608.827C513.196 608.983 512.896 609.139 512.584 609.283C512.16 609.495 511.738 609.695 511.314 609.885C510.869 610.096 510.434 610.297 509.989 610.486C509.299 610.798 508.619 611.087 507.939 611.355C507.516 611.522 507.082 611.688 506.658 611.856C505.533 612.29 504.42 612.68 503.306 613.036C502.973 613.148 502.649 613.248 502.326 613.348C502.293 613.36 502.27 613.371 502.248 613.371C501.924 613.471 501.613 613.571 501.29 613.66C500.822 613.794 500.365 613.928 499.909 614.039C499.463 614.161 499.018 614.284 498.572 614.384C497.904 614.563 497.235 614.708 496.567 614.841C496.422 614.885 496.278 614.908 496.133 614.93C496.033 614.952 495.933 614.974 495.821 614.986C495.609 615.03 495.409 615.074 495.197 615.119C494.986 615.163 494.785 615.208 494.573 615.23C494.117 615.319 493.649 615.398 493.192 615.464C493.136 615.487 493.081 615.497 493.025 615.497C492.189 615.63 491.354 615.742 490.519 615.831C490.129 615.875 489.739 615.92 489.349 615.954C488.893 615.998 488.436 616.043 487.991 616.077C485.619 616.254 483.28 616.288 481.008 616.199C477.811 616.322 474.515 616.211 471.152 615.799C470.483 615.721 469.838 615.631 469.181 615.531C469.113 615.52 469.036 615.509 468.969 615.498C468.78 615.475 468.591 615.442 468.401 615.398C468.2 615.375 467.988 615.342 467.788 615.298C467.588 615.275 467.387 615.23 467.187 615.186C467.098 615.175 467.008 615.153 466.919 615.142C466.775 615.108 466.63 615.086 466.484 615.053C466.273 615.02 466.061 614.974 465.861 614.93C465.705 614.907 465.56 614.874 465.415 614.83C465.271 614.807 465.136 614.774 464.992 614.751C463.711 614.472 462.419 614.15 461.127 613.771C460.648 613.637 460.158 613.503 459.679 613.347C459.668 613.347 459.656 613.347 459.646 613.336C459.334 613.247 459.012 613.147 458.7 613.035C457.107 612.523 455.515 611.944 453.911 611.287C453.365 611.075 452.83 610.841 452.296 610.607C451.973 610.474 451.662 610.328 451.338 610.172C450.982 610.027 450.625 609.86 450.269 609.682C449.946 609.538 449.623 609.382 449.3 609.226C448.287 608.736 447.273 608.212 446.26 607.656C445.815 607.422 445.368 607.176 444.934 606.92C444.489 606.664 444.043 606.408 443.598 606.14C443.486 606.084 443.386 606.017 443.274 605.951C441.949 605.16 440.624 604.314 439.288 603.401C438.742 603.033 438.196 602.655 437.651 602.264C436.805 601.663 435.958 601.039 435.111 600.382C434.622 600.014 434.131 599.625 433.641 599.235C432.349 598.221 431.069 597.141 429.777 595.994C429.131 595.426 428.496 594.846 427.85 594.256L425.6 594.424L9.10662 625.297C8.89488 625.309 8.68313 625.32 8.47139 625.32C8.29363 625.32 8.12632 625.32 7.95902 625.297C7.8257 625.297 7.69151 625.286 7.55818 625.264C7.37955 625.253 7.20179 625.22 7.02316 625.187C6.9003 625.175 6.7783 625.142 6.66677 625.108C6.49946 625.075 6.33303 625.03 6.17705 624.985C5.99842 624.941 5.82066 624.885 5.65335 624.818C5.14099 624.64 4.6626 624.417 4.21645 624.139C3.98293 623.994 3.75985 623.849 3.53678 623.693C3.40346 623.593 3.2806 623.493 3.15773 623.381C3.06885 623.304 2.97997 623.225 2.90155 623.148C2.84578 623.115 2.77955 623.059 2.72379 622.992C2.55648 622.836 2.39005 622.658 2.24453 622.491C2.22274 622.479 2.21142 622.469 2.20009 622.446C2.19254 622.446 2.19254 622.443 2.20009 622.435C1.91079 622.112 1.64328 621.767 1.42021 621.388C1.35311 621.276 1.28689 621.176 1.21979 621.054C1.0978 620.842 0.986261 620.63 0.896509 620.397C0.829413 620.252 0.763188 620.108 0.70742 619.962C0.651652 619.817 0.595884 619.661 0.551443 619.505L0.540116 619.494C0.405924 619.105 0.317043 618.704 0.250818 618.292C0.206378 618.057 0.183722 617.812 0.161938 617.579C0.15061 617.367 0.139282 617.155 0.139282 616.944C0.139282 616.699 0.15061 616.465 0.172395 616.231C0.172395 616.175 0.172395 616.131 0.183722 616.075C0.206378 615.83 0.250818 615.596 0.295259 615.362C0.339699 615.14 0.384139 614.917 0.451235 614.705C0.529659 614.382 0.640324 614.081 0.763188 613.792C0.852068 613.58 0.940949 613.368 1.05249 613.168C1.16402 612.945 1.28601 612.723 1.43153 612.511C1.56485 612.277 1.73216 612.043 1.91079 611.831C2.04411 611.642 2.20009 611.463 2.35606 611.296C2.53383 611.107 2.71246 610.928 2.90155 610.762C3.09064 610.584 3.29192 610.428 3.49147 610.272C3.90363 609.972 4.3489 609.704 4.80551 609.471C5.27343 609.237 5.76315 609.047 6.27552 608.914C6.78789 608.78 7.32204 608.692 7.86839 608.646L425.601 577.663L427.015 577.563L430.134 577.329L433.776 577.062L436.438 579.5C436.505 579.556 436.627 579.678 436.805 579.824L436.872 579.757C437.073 579.957 437.285 580.157 437.485 580.347C437.618 580.469 437.741 580.603 437.875 580.725C438.208 581.004 438.599 581.315 439.044 581.672C439.834 582.296 440.803 583.03 441.928 583.832C442.508 584.256 443.131 584.69 443.799 585.135C447.441 587.607 452.274 590.492 457.988 592.942C458.5 593.176 459.034 593.399 459.569 593.611C460.638 594.046 461.73 594.457 462.844 594.847C463.545 595.092 464.258 595.326 464.982 595.56C468.223 596.585 471.642 597.419 475.229 597.932C476.019 598.055 476.832 598.155 477.635 598.232C478.448 598.31 479.261 598.377 480.095 598.433C480.508 598.466 480.92 598.477 481.332 598.5C483.181 598.4 485.063 598.199 486.956 597.899C490.108 597.409 493.304 596.662 496.545 595.649C497.08 595.482 497.614 595.304 498.138 595.125C499.72 594.591 501.245 594.012 502.715 593.41C503.507 593.087 504.274 592.753 505.032 592.408C505.778 592.074 506.525 591.729 507.248 591.383C507.961 591.027 508.674 590.682 509.354 590.326C510.044 589.958 510.712 589.602 511.369 589.245C511.692 589.066 512.015 588.889 512.327 588.71C512.961 588.354 513.575 587.986 514.164 587.641C514.688 587.329 515.189 587.028 515.679 586.716C517.149 585.814 518.463 584.923 519.632 584.099C519.956 583.865 520.267 583.642 520.579 583.43C521.492 582.785 522.282 582.194 522.951 581.671C523.419 581.292 523.831 580.97 524.176 580.68L524.509 580.347C524.71 580.146 524.922 579.956 525.122 579.757L525.189 579.824C525.301 579.724 525.39 579.645 525.457 579.59C525.524 579.523 525.546 579.501 525.557 579.501L528.219 577.062L531.872 577.33L534.99 577.563L548.856 578.588L563.49 579.679L954.126 608.647C954.405 608.67 954.672 608.703 954.939 608.747C955.051 608.759 955.162 608.781 955.273 608.814C955.384 608.837 955.485 608.859 955.596 608.892C955.675 608.903 955.763 608.925 955.841 608.959C956.041 609.015 956.23 609.082 956.42 609.148C956.677 609.237 956.933 609.349 957.189 609.471C957.356 609.549 957.523 609.639 957.69 609.739C957.746 609.772 957.813 609.806 957.869 609.851C958.069 609.973 958.269 610.107 958.47 610.251C958.493 610.263 958.514 610.284 958.537 610.307C958.626 610.374 958.715 610.44 958.805 610.519C959.094 610.753 959.373 611.009 959.629 611.287C959.685 611.355 959.74 611.41 959.796 611.477V611.488C959.804 611.495 959.807 611.503 959.807 611.511C959.841 611.533 959.852 611.555 959.863 611.566C959.908 611.611 959.941 611.655 959.975 611.7C960.008 611.722 960.031 611.755 960.053 611.788C960.086 611.833 960.131 611.877 960.153 611.922C960.209 611.989 960.265 612.066 960.309 612.134C960.343 612.178 960.376 612.211 960.398 612.256C960.454 612.323 960.487 612.39 960.532 612.457C960.565 612.49 960.587 612.534 960.599 612.568C960.643 612.624 960.677 612.691 960.721 612.757C960.733 612.78 960.744 612.802 960.755 612.825C960.81 612.903 960.855 612.992 960.888 613.081C960.988 613.27 961.077 613.46 961.167 613.649C961.2 613.716 961.234 613.794 961.256 613.861C961.3 613.961 961.345 614.061 961.367 614.173C961.412 614.261 961.434 614.34 961.456 614.429C961.579 614.785 961.668 615.142 961.724 615.521C961.757 615.688 961.791 615.854 961.802 616.033C961.835 616.334 961.858 616.646 961.858 616.957L961.859 616.956Z" fill="#81B64C"/>
<path opacity="0.2" d="M544.772 516.269C551.283 513.547 558.134 511.655 565.033 510.068C571.942 508.481 578.96 507.378 586.013 506.513C593.072 505.7 600.177 505.233 607.294 505.053C614.412 504.899 621.538 505.079 628.657 505.49C657.118 507.35 685.289 513.684 711.989 523.677L721.941 527.582L731.763 531.79L741.428 536.332L750.827 540.81C757.089 543.729 763.449 546.435 769.866 549.007C776.298 551.538 782.793 553.93 789.366 556.105C795.952 558.283 802.556 560.253 809.307 562.095C816.038 563.952 822.801 565.726 829.587 567.449C843.149 570.954 856.832 574.051 870.533 577.338C856.464 576.501 842.471 574.832 828.507 572.81C821.533 571.751 814.572 570.574 807.637 569.222C800.713 567.902 793.726 566.33 786.86 564.495C773.1 560.83 759.616 556.083 746.514 550.453C743.25 549.074 739.962 547.511 736.803 546.092L727.33 541.856L717.769 537.84L708.099 534.109C682.223 524.418 655.309 517.594 627.858 514.18C620.992 513.367 614.099 512.74 607.18 512.34C600.262 511.987 593.323 511.828 586.375 511.94C579.422 511.998 572.472 512.437 565.524 513.098C562.047 513.41 558.582 513.858 555.121 514.375C551.654 514.867 548.203 515.484 544.77 516.269H544.772Z" fill="black"/>
<path opacity="0.2" d="M410.568 530.877C407.087 530.246 403.616 529.745 400.127 529.392C396.645 529.007 393.168 528.698 389.689 528.477C382.735 528.03 375.795 527.831 368.874 527.909C361.954 527.962 355.056 528.286 348.188 528.769C341.319 529.308 334.484 530.048 327.681 530.961C300.481 534.764 273.882 541.709 248.212 551.325L238.613 555.013L229.116 558.981L219.691 563.14L214.847 565.325C213.211 566.067 211.558 566.773 209.902 567.472C196.657 573.053 183.021 577.713 169.105 581.2C165.63 582.087 162.134 582.886 158.625 583.61C155.112 584.348 151.606 585.027 148.117 585.611C141.132 586.839 134.12 587.862 127.101 588.761C113.051 590.487 98.9587 591.685 84.8049 591.944C98.4211 588.08 112.006 584.513 125.481 580.712C132.221 578.829 138.934 576.901 145.614 574.919C148.96 573.906 152.276 572.934 155.549 571.883C158.836 570.85 162.088 569.714 165.345 568.613C168.592 567.482 171.825 566.314 175.03 565.075C178.246 563.873 181.439 562.609 184.615 561.313C190.952 558.678 197.245 555.956 203.432 553.006L212.754 548.498L222.467 543.879L232.354 539.623L242.377 535.674C269.283 525.606 297.769 519.393 326.482 517.923C330.074 517.781 333.661 517.639 337.254 517.661C340.842 517.609 344.433 517.71 348.016 517.837C355.184 518.148 362.329 518.78 369.417 519.758C376.501 520.76 383.529 522.103 390.432 523.904C397.324 525.692 404.141 527.882 410.567 530.875L410.568 530.877Z" fill="black"/>
<g opacity="0.15">
<path d="M790.932 316.007L785.415 306.661C772.579 314.916 759.954 321.974 747.353 328.126C749.262 331.113 751.17 334.102 753.048 337.109C753.177 337.053 753.307 336.997 753.436 336.94C766.117 330.287 778.541 323.181 790.932 316.006V316.007Z" fill="#204227"/>
<path d="M677.315 363.612C690.77 360.942 703.807 357.06 716.633 352.209C715.415 349.089 714.206 345.967 713.003 342.84C708.995 344.338 704.973 345.773 700.931 347.153C695.35 349.141 689.731 350.995 684.023 352.588C681.052 353.488 678.066 354.367 675.063 355.227C675.746 358.041 676.54 360.822 677.314 363.612H677.315Z" fill="#204227"/>
<path d="M792.775 416.059C790.823 411.733 788.889 407.4 786.982 403.054C786.858 403.094 786.734 403.132 786.609 403.171C801.83 397.551 816.958 391.697 831.943 385.472L824.829 373.421C810.38 379.357 795.869 385.133 781.354 390.906C779.557 387.038 777.775 383.163 775.983 379.293C775.818 379.35 775.653 379.407 775.488 379.465C789.737 373.822 803.848 367.862 817.792 361.504L811.233 350.393C797.762 356.519 784.169 362.356 770.484 367.985C768.702 364.417 766.92 360.849 765.114 357.292C764.922 357.364 764.73 357.433 764.538 357.504C778.082 351.78 791.489 345.763 804.748 339.408L798.779 329.298C785.834 335.445 772.748 341.278 759.586 346.944C757.7 343.535 755.796 340.136 753.857 336.758C753.716 336.82 753.576 336.88 753.436 336.941C753.312 337.007 753.189 337.073 753.066 337.137C753.059 337.128 753.054 337.119 753.048 337.109C740.749 342.498 728.291 347.502 715.844 352.539C717.133 355.706 718.428 358.869 719.73 362.031C706.8 366.223 693.695 369.623 680.341 372.168C679.595 369.289 678.87 366.403 678.12 363.523C663.973 365.793 650.03 368.835 636.271 372.839C637.004 375.456 637.717 378.079 638.414 380.706C625.574 384.113 612.656 387.061 599.545 389.22C599.173 386.662 598.825 384.102 598.507 381.536C585.182 383.215 572.408 386.768 559.824 391.374C559.46 389.002 559.091 386.63 558.701 384.261C558.464 384.329 558.233 384.404 557.998 384.475C543.744 389.432 531.553 396.03 521.503 404.219C522.159 405.904 522.772 407.605 523.354 409.317C523.531 409.217 523.709 409.119 523.886 409.02C516.39 413.758 509.417 418.847 502.932 424.721C498.816 431.046 496.261 436.879 494.708 441.339C504.479 432.618 514.508 424.328 524.849 416.292C524.794 418.782 524.612 421.257 524.446 423.741C524.664 423.633 524.882 423.527 525.1 423.418C512.959 430.899 502.762 440.739 492.509 450.557L492.482 460.218C492.642 461.665 492.863 463.117 493.157 464.59C501.679 451.596 512.884 441.657 525.302 432.527C525.627 435.513 525.932 438.501 526.204 441.493C526.219 441.484 526.233 441.476 526.248 441.467C513.463 449.889 501.654 458.884 492.451 471.242L492.418 482.974C504.343 472.182 516.762 461.98 529.085 451.648C528.315 448.114 527.64 444.569 527.067 440.998C539.094 433.97 551.676 428.208 564.656 423.174C565.196 426.232 565.719 429.294 566.235 432.356C566.267 432.347 566.299 432.337 566.331 432.327C552.582 437.135 539.901 443.322 528.337 452.288C529.1 456.158 529.917 460.015 530.72 463.876C542.414 454.839 554.689 447.381 568.54 442.136C568.076 438.788 567.588 435.443 567.065 432.104C579.737 428.226 592.432 424.42 605.127 420.619C605.831 423.662 606.57 426.694 607.367 429.714C607.394 429.709 607.421 429.704 607.448 429.698C594.207 433.954 580.994 438.296 567.737 442.5C568.086 446.715 568.448 450.929 568.767 455.145C583.099 447.762 596.964 443.104 611.379 440.023C610.286 436.542 609.21 433.059 608.204 429.551C621.834 426.874 635.629 425.961 649.471 425.05C648.856 421.614 648.242 418.177 647.599 414.747C647.42 414.758 647.241 414.774 647.063 414.786C661.772 413.306 676.448 411.637 691.241 411.369C692.088 414.963 692.897 418.564 693.668 422.174C678.506 421.606 663.559 422.534 648.606 425.209C649.008 428.435 649.49 431.647 650.024 434.853C659.659 434.108 669.8 433.57 680.677 432.996C685.807 432.725 691.036 432.448 696.446 432.14C695.866 428.826 695.265 425.517 694.655 422.209C694.398 422.199 694.14 422.192 693.883 422.182C709.887 422.267 725.541 419.962 741.091 416.272C739.611 412.429 738.156 408.575 736.72 404.715C736.66 404.729 736.599 404.743 736.539 404.757C751.525 400.674 766.327 396.018 781.036 391.031C780.844 391.108 780.652 391.184 780.46 391.26C782.322 395.288 784.18 399.317 786.019 403.355C770.829 408.142 755.572 412.68 740.117 416.548C741.515 420.051 742.909 423.556 744.277 427.071C758.613 424.574 773.172 421.294 786.826 417.823C788.813 417.247 790.796 416.659 792.776 416.056L792.775 416.059ZM770.232 368.09C770.03 368.172 769.83 368.258 769.629 368.34C771.452 372.092 773.271 375.846 775.078 379.606C761.004 384.505 746.827 389.071 732.515 393.226C731.177 389.507 729.833 385.792 728.48 382.079C728.347 382.113 728.215 382.144 728.082 382.178C742.28 377.919 756.309 373.173 770.232 368.09V368.09ZM759.319 347.061C759.136 347.139 758.954 347.219 758.771 347.298C760.609 350.729 762.44 354.164 764.255 357.609C751.099 362.512 737.862 367.174 724.52 371.546C723.217 368.282 721.9 365.025 720.566 361.773C733.509 356.937 746.458 352.115 759.319 347.061ZM524.015 408.948C535.379 402.536 546.947 396.573 559.058 391.694C559.43 394.167 559.812 396.638 560.215 399.107C560.362 399.063 560.51 399.02 560.658 398.976C548.392 403.696 536.652 409.393 525.274 415.962C525.355 415.899 525.436 415.835 525.517 415.772C525.078 413.484 524.576 411.21 524.015 408.948V408.948ZM525.866 432.111C525.939 432.059 526.009 432.005 526.082 431.953C525.77 429.085 525.499 426.216 525.258 423.341C537.206 417.43 549.211 411.712 561.562 406.686C562.09 409.39 562.601 412.098 563.091 414.809C563.254 414.763 563.416 414.72 563.577 414.673C550.606 419.628 538.095 425.547 525.866 432.111ZM564.78 423.127C565.003 423.041 565.225 422.951 565.449 422.864C564.915 420.107 564.401 417.347 563.888 414.586C576.389 411.014 588.964 407.725 601.599 404.659C602.152 407.308 602.715 409.953 603.282 412.598C603.334 412.585 603.387 412.573 603.44 412.559C590.516 415.947 577.613 419.406 564.781 423.127L564.78 423.127ZM605.645 420.465C605.738 420.437 605.832 420.41 605.924 420.382C605.305 417.724 604.699 415.064 604.098 412.402C617.462 409.083 630.938 406.776 644.665 405.658C645.354 408.708 646.029 411.761 646.699 414.815C632.87 415.756 619.2 417.538 605.644 420.466L605.645 420.465ZM692.154 411.272C691.202 407.83 690.223 404.396 689.225 400.968C674.647 402.302 660.111 404.041 645.551 405.552C644.834 402.659 644.119 399.765 643.403 396.872C629.652 398.924 616.02 401.581 602.42 404.453C601.912 401.943 601.414 399.43 600.925 396.916C587.8 399.577 574.823 402.813 561.958 406.525C562.087 406.473 562.215 406.418 562.345 406.366C561.889 403.87 561.445 401.373 561 398.876C573.44 395.163 585.958 391.822 598.723 389.429C599.171 391.976 599.625 394.522 600.093 397.065C613.874 394.378 627.612 391.476 641.345 388.557C640.665 385.88 639.975 383.205 639.272 380.534C652.559 377.181 665.998 374.627 679.507 372.351C680.374 375.352 681.255 378.35 682.151 381.342C696.376 378.824 710.406 375.543 724.307 371.619C724.098 371.687 723.891 371.759 723.683 371.827C724.996 375.314 726.297 378.807 727.591 382.302C713.865 385.772 700.041 388.678 686.044 390.814C685.028 387.619 684.028 384.419 683.036 381.217C668.809 383.476 654.612 385.885 640.492 388.746C641.182 391.494 641.865 394.242 642.537 396.994C656.739 394.951 670.938 392.878 685.161 390.98C686.2 394.328 687.253 397.673 688.309 401.016C703.127 399.48 717.712 396.813 732.188 393.325C731.994 393.38 731.801 393.439 731.607 393.495C732.986 397.312 734.371 401.129 735.765 404.941C721.386 408.295 706.924 410.69 692.154 411.275V411.272Z" fill="#204227"/>
<path d="M597.11 374.428C597.289 376.827 597.472 379.227 597.675 381.624C611.026 379.492 624.096 376.311 637.089 372.598C636.381 370.273 635.653 367.955 634.916 365.639C624.586 368.114 613.984 370.55 603.033 373.067C601.075 373.517 599.096 373.971 597.11 374.428Z" fill="#204227"/>
<path d="M534.74 475.437C533.631 471.421 532.572 467.392 531.539 463.355C518.711 473.296 505.66 482.928 492.392 492.273L492.35 507.769C493.622 506.861 494.884 505.938 496.138 505.005C506.577 496.006 519.651 485.616 534.74 475.438L534.74 475.437Z" fill="#204227"/>
</g>
<g opacity="0.15">
<path d="M456.331 421.503C451.733 415.123 446.269 409.358 439.963 404.219C439.307 405.904 438.695 407.605 438.112 409.318C437.936 409.217 437.758 409.12 437.581 409.021C445.076 413.758 452.049 418.848 458.534 424.722C457.843 423.661 457.113 422.588 456.331 421.503Z" fill="#204227"/>
<path d="M435.383 431.952C435.694 429.085 435.966 426.215 436.207 423.341C424.258 417.43 412.253 411.712 399.903 406.686C399.375 409.39 398.864 412.098 398.373 414.809C398.212 414.763 398.049 414.719 397.888 414.673C410.859 419.628 423.37 425.547 435.599 432.111C435.526 432.059 435.456 432.005 435.383 431.952Z" fill="#204227"/>
<path d="M236.946 371.546C238.249 368.282 239.566 365.025 240.9 361.773C227.956 356.937 215.008 352.115 202.147 347.06C202.33 347.139 202.511 347.219 202.694 347.297C200.857 350.729 199.026 354.164 197.211 357.608C210.367 362.512 223.604 367.174 236.946 371.546Z" fill="#204227"/>
<path d="M437.02 423.742C436.802 423.634 436.583 423.527 436.365 423.419C448.506 430.9 458.703 440.74 468.957 450.557L468.953 449.425C468.754 448.287 468.163 445.374 466.757 441.34C456.986 432.618 446.957 424.329 436.615 416.293C436.671 418.783 436.852 421.258 437.019 423.742H437.02Z" fill="#204227"/>
<path d="M228.951 393.226C230.288 389.507 231.633 385.791 232.986 382.078C233.118 382.112 233.251 382.144 233.383 382.178C219.186 377.918 205.157 373.173 191.234 368.09C191.435 368.173 191.636 368.258 191.837 368.34C190.014 372.092 188.195 375.846 186.387 379.606C200.462 384.505 214.638 389.071 228.951 393.226Z" fill="#204227"/>
<path d="M359.866 404.66C359.313 407.308 358.75 409.954 358.183 412.598C358.13 412.585 358.077 412.574 358.026 412.56C370.949 415.948 383.853 419.406 396.685 423.127C396.461 423.041 396.24 422.95 396.016 422.864C396.549 420.107 397.064 417.347 397.577 414.586C385.076 411.013 372.501 407.725 359.866 404.659V404.66Z" fill="#204227"/>
<path d="M316.8 405.657C316.111 408.707 315.436 411.76 314.766 414.814C328.595 415.755 342.264 417.537 355.82 420.465C355.727 420.437 355.634 420.409 355.542 420.382C356.16 417.724 356.767 415.063 357.367 412.401C344.004 409.082 330.528 406.776 316.801 405.658L316.8 405.657Z" fill="#204227"/>
<path d="M436.163 432.529C435.839 435.515 435.534 438.503 435.261 441.494C435.247 441.485 435.232 441.478 435.218 441.469C448.002 449.891 459.811 458.886 469.015 471.244L468.999 465.69C468.131 464.385 467.068 462.803 466.003 461.255C457.81 449.871 447.495 440.858 436.164 432.528L436.163 432.529Z" fill="#204227"/>
<path d="M399.121 406.364C399.577 403.868 400.02 401.371 400.465 398.874C388.026 395.161 375.507 391.82 362.743 389.427C362.295 391.974 361.841 394.52 361.373 397.063C347.591 394.376 333.854 391.474 320.12 388.555C320.801 385.878 321.491 383.203 322.193 380.532C308.906 377.18 295.468 374.626 281.959 372.35C281.091 375.351 280.211 378.348 279.314 381.34C265.089 378.822 251.06 375.541 237.159 371.618C237.367 371.686 237.575 371.757 237.783 371.825C236.47 375.312 235.169 378.805 233.875 382.3C247.601 385.77 261.424 388.676 275.422 390.812C276.437 387.617 277.437 384.417 278.43 381.215C292.657 383.474 306.853 385.883 320.973 388.744C320.284 391.492 319.601 394.24 318.929 396.992C304.726 394.949 290.527 392.877 276.305 390.978C275.265 394.326 274.212 397.671 273.156 401.014C258.339 399.478 243.754 396.811 229.277 393.323C229.472 393.378 229.664 393.437 229.859 393.493C228.479 397.31 227.095 401.127 225.7 404.939C240.08 408.293 254.542 410.688 269.312 411.273C270.263 407.831 271.243 404.397 272.241 400.969C286.819 402.302 301.354 404.041 315.915 405.552C316.632 402.659 317.346 399.766 318.063 396.873C331.814 398.925 345.446 401.582 359.045 404.454C359.553 401.943 360.052 399.431 360.541 396.917C373.665 399.577 386.643 402.814 399.508 406.526C399.379 406.473 399.251 406.419 399.121 406.366V406.364Z" fill="#204227"/>
<path d="M241.735 362.032C254.667 366.224 267.77 369.624 281.124 372.169C281.871 369.289 282.596 366.403 283.345 363.523C297.492 365.794 311.436 368.835 325.195 372.84C324.461 375.457 323.749 378.08 323.052 380.707C335.892 384.114 348.809 387.062 361.921 389.221C362.293 386.663 362.64 384.103 362.959 381.537C376.284 383.216 389.057 386.769 401.642 391.375C402.006 389.002 402.375 386.631 402.765 384.262C403.001 384.33 403.232 384.405 403.467 384.476C398.146 382.625 392.538 381.002 386.645 379.611C379.058 377.819 371.619 376.1 364.355 374.429C364.176 376.828 363.993 379.227 363.79 381.625C350.438 379.493 337.369 376.312 324.376 372.599C325.084 370.274 325.812 367.955 326.549 365.64C312.736 362.331 299.411 358.955 286.401 355.228C285.718 358.042 284.924 360.823 284.15 363.613C270.695 360.942 257.658 357.06 244.832 352.21C246.05 349.09 247.259 345.968 248.462 342.841C236.943 338.537 225.538 333.705 214.113 328.126C212.204 331.114 210.296 334.103 208.418 337.11C220.717 342.499 233.175 347.503 245.622 352.54C244.333 355.706 243.037 358.87 241.735 362.032Z" fill="#204227"/>
<path d="M119.854 401.847C131.248 405.581 148.732 411.034 168.589 416.258C170.541 411.933 172.576 407.399 174.483 403.053C174.607 403.093 174.731 403.131 174.856 403.17C159.634 397.55 144.507 391.696 129.522 385.471L119.854 401.847V401.847Z" fill="#204227"/>
<path d="M401.251 399.106C401.103 399.061 400.955 399.019 400.808 398.975C413.073 403.695 424.814 409.392 436.192 415.961C436.111 415.898 436.03 415.834 435.949 415.771C436.388 413.483 436.89 411.208 437.45 408.947C426.086 402.536 414.518 396.573 402.408 391.694C402.037 394.167 401.654 396.638 401.251 399.107V399.106Z" fill="#204227"/>
<path d="M185.483 379.293C185.648 379.35 185.813 379.407 185.978 379.464C171.728 373.822 157.618 367.862 143.673 361.504L136.636 373.421C151.084 379.357 165.596 385.133 180.111 390.906C181.908 387.037 183.69 383.162 185.482 379.293H185.483Z" fill="#204227"/>
<path d="M313.866 414.748C314.046 414.759 314.225 414.775 314.403 414.787C299.693 413.308 285.018 411.638 270.224 411.37C269.377 414.964 268.569 418.565 267.798 422.176C282.96 421.607 297.907 422.535 312.86 425.211C312.457 428.436 311.975 431.648 311.442 434.854C325.145 435.914 337.818 437.401 350.086 440.023C351.179 436.543 352.255 433.059 353.26 429.552C339.63 426.875 325.836 425.962 311.994 425.05C312.609 421.614 313.222 418.178 313.866 414.747L313.866 414.748Z" fill="#204227"/>
<path d="M224.745 404.717C224.806 404.731 224.866 404.745 224.927 404.759C209.941 400.675 195.138 396.02 180.43 391.033C180.622 391.109 180.814 391.185 181.006 391.262C179.144 395.289 177.286 399.319 175.446 403.357C190.637 408.144 205.894 412.682 221.349 416.549C219.95 420.053 218.557 423.558 217.189 427.073C228.56 429.053 239.791 430.543 250.315 431.242C255.405 431.58 260.281 431.873 265.019 432.143C265.599 428.83 266.2 425.52 266.81 422.212C267.068 422.202 267.325 422.195 267.583 422.185C251.579 422.27 235.924 419.965 220.375 416.276C221.855 412.432 223.31 408.579 224.745 404.719V404.717Z" fill="#204227"/>
<path d="M208.418 337.11C208.289 337.053 208.159 336.998 208.03 336.941C208.154 337.006 208.277 337.073 208.401 337.137C208.407 337.128 208.412 337.119 208.418 337.109V337.11Z" fill="#204227"/>
<path d="M196.352 357.292C196.543 357.364 196.736 357.432 196.928 357.504C183.384 351.78 169.977 345.763 156.718 339.408L150.233 350.392C163.704 356.517 177.296 362.355 190.981 367.984C192.763 364.416 194.546 360.848 196.352 357.291V357.292Z" fill="#204227"/>
<path d="M432.38 451.65C433.151 448.116 433.825 444.571 434.398 440.999C422.372 433.972 409.79 428.209 396.809 423.176C396.27 426.234 395.747 429.296 395.231 432.358C395.199 432.348 395.166 432.339 395.134 432.328C408.884 437.137 421.565 443.323 433.128 452.29C432.366 456.16 431.548 460.017 430.746 463.878C419.052 454.841 406.777 447.383 392.925 442.137C393.39 438.79 393.878 435.444 394.401 432.105C381.728 428.228 369.034 424.421 356.339 420.62C355.635 423.663 354.896 426.696 354.099 429.716C354.071 429.711 354.044 429.705 354.017 429.7C367.258 433.956 380.472 438.298 393.729 442.502C393.379 446.716 393.018 450.93 392.699 455.147C393.018 455.312 393.335 455.467 393.654 455.634C405.464 461.81 416.552 468.574 426.725 475.437C427.834 471.421 428.893 467.392 429.926 463.355C442.753 473.296 455.805 482.928 469.072 492.273L469.046 482.977C457.121 472.184 444.703 461.982 432.38 451.651L432.38 451.65Z" fill="#204227"/>
<path d="M207.609 336.758C207.749 336.82 207.889 336.88 208.03 336.941C195.349 330.288 182.925 323.182 170.534 316.007L162.686 329.299C175.632 335.446 188.717 341.279 201.879 346.945C203.764 343.536 205.668 340.137 207.609 336.759V336.758Z" fill="#204227"/>
</g>
<path d="M445.571 229.236C439.115 226.191 436.424 219.064 426.083 222.512C418.115 225.176 408.593 220.326 403.214 217.518L397.739 214.306C396.838 216.669 394.601 223.974 398.684 229.881C402.458 235.316 408.756 238.033 414.769 240.232C424.44 243.805 441.329 249.916 447.704 263.98L451.73 274.124L379.682 298.586C377.569 292.362 375.004 288.662 375.004 288.662C371.599 282.857 357.223 264.257 353.346 252.837C338.746 209.835 361.36 181.087 386.72 170.525L395.488 152.775C397.37 152.135 399.984 153.472 401.252 155.493L405.215 162.21C408.014 165.436 411.409 167.11 416.422 169.023C421.435 170.936 423.478 173.65 425.107 175.57C430.875 182.401 432.535 186.492 440.552 192.478L458.306 205.297C462.696 208.067 464.064 213.442 461.696 217.361C458.564 222.581 447.007 229.974 445.541 229.266L445.572 229.235L445.571 229.236Z" fill="#E7E6E5"/>
<path d="M386.063 289.958L443.988 270.293C472.886 260.482 479.295 279.791 479.295 279.791L482.565 289.424L367.106 328.623L363.836 318.99C363.836 318.99 357.165 299.769 386.063 289.958Z" fill="#E7E6E5"/>
<path d="M377.631 293.567C376.206 290.512 375.004 288.662 375.004 288.662C374.054 287.042 372.249 284.425 370.057 281.246C364.393 273.035 356.14 261.069 353.346 252.837C338.948 210.431 360.74 181.886 385.666 170.974C378.187 175.267 347.198 195.672 359.861 232.969C365.79 250.43 376.723 259.3 386.921 267.573C393.184 272.653 399.171 277.511 403.554 283.996C398.51 285.213 377.632 293.567 377.632 293.567H377.631Z" fill="#BEBDB9"/>
<path d="M386.809 170.34C387.093 170.19 387.246 170.115 387.246 170.115C387.117 170.154 386.989 170.196 386.861 170.237L386.809 170.34Z" fill="#BEBDB9"/>
<path d="M458.312 205.251L440.557 192.431C432.54 186.446 430.882 182.355 425.112 175.524C423.503 173.598 421.459 170.883 416.427 168.977C411.414 167.064 408.019 165.39 405.221 162.164L401.258 155.447C400.31 153.94 398.617 152.811 397.049 152.595C396.732 152.64 396.426 152.661 396.111 152.769C396.111 152.769 395.025 167.932 405.018 170.254C424.22 174.728 425.431 187.781 432.114 192.348C435.417 194.614 458.209 208.985 462.623 211.766C462.223 209.243 460.835 206.805 458.325 205.226L458.313 205.251H458.312Z" fill="#F1F1F1"/>
<path d="M423.118 223.142C424.119 223.031 425.107 222.82 426.076 222.491C436.416 219.043 439.107 226.171 445.563 229.215C445.907 229.369 446.807 229.083 447.986 228.517C446.397 227.145 442.484 224.982 438.146 219.245C431.075 209.926 430.386 215.666 423.123 223.161L423.116 223.142H423.118Z" fill="#BEBDB9"/>
<path d="M387.842 205.655C384.765 202.71 386.669 209.544 387.677 212.693C388.613 215.574 393.159 222.966 398.34 229.228C394.817 223.443 396.87 216.574 397.741 214.305L398.203 214.564C398.083 214.397 398.001 214.278 398.001 214.278C398.001 214.278 390.92 208.599 387.842 205.655Z" fill="#BEBDB9"/>
<path d="M473.728 272.331C468.722 268.233 459.693 264.961 443.987 270.293L386.042 289.965C370.802 295.139 365.499 302.902 363.848 309.115C367.112 306.491 378.467 299.539 416.755 286.541C460.409 271.72 471.492 271.989 473.727 272.331H473.728Z" fill="#F1F1F1"/>
<path d="M259.397 262.789L257.439 251.57L268.658 249.612L270.616 260.831L259.397 262.789Z" fill="white"/>
<path d="M181.442 125.692L183.739 118.555L190.876 120.852L188.579 127.989L181.442 125.692Z" fill="white"/>
<path d="M368.401 112.748L373.128 99.2102L386.666 103.937L381.938 117.475L368.401 112.748Z" fill="#B2E068"/>
<path d="M614.506 137.174L625.941 132.389L630.725 143.824L619.29 148.609L614.506 137.174Z" fill="white"/>
<path d="M752.132 214.719L761.541 215.371L760.889 224.78L751.48 224.128L752.132 214.719Z" fill="#B2E068"/>
<path d="M586.023 67.6632L600.93 58.4902L610.101 73.3995L595.194 82.5699L586.023 67.6632Z" fill="#B2E068"/>
<path fill-rule="evenodd" clip-rule="evenodd" d="M564.443 64.8324L564.453 64.8196L564.434 64.8161C564.437 64.8215 564.44 64.8269 564.443 64.8324ZM551.569 157.806C557.571 152.477 570.692 137.878 574.534 116.088C578.521 93.4736 570.426 75.4196 564.443 64.8324L555.051 76.374C550.55 82.2776 546.086 88.7745 542.873 95.7548C539.524 102.125 534.601 117.079 534.601 117.079L523.127 115.137C526.149 104.885 530.255 93.53 536.589 83.1949L556.982 54.9839C559.024 52.3856 560.655 48.9559 561.233 45.6775C562.883 36.3173 556.471 27.3564 546.973 25.6817C537.476 24.007 528.386 30.2345 526.735 39.5947C525.967 43.951 526.724 50.2152 526.724 50.2152C526.724 50.2152 497.07 68.0725 491.212 101.294C487.349 123.2 494.8 141.516 498.599 148.466L495.613 147.939C466.237 142.759 462.87 162.541 462.87 162.541L461.13 172.411L578.515 193.109L580.256 183.239C580.256 183.239 583.877 163.503 554.482 158.319L551.569 157.806Z" fill="#E7E6E5"/>
<path d="M547.99 25.8912C547.655 25.8121 547.316 25.7421 546.973 25.6816C537.476 24.007 528.386 30.2344 526.735 39.5946C526.429 41.3315 526.365 43.3717 526.399 45.1972C530.176 33.8744 541.028 26.6852 547.99 25.8912Z" fill="#F1F1F1"/>
<path d="M526.724 50.2151C526.724 50.2151 497.07 68.0724 491.212 101.294C489.897 108.751 489.966 115.703 490.673 122.019C494.018 102.821 503.132 75.5755 529.888 52.0072C529.888 52.0072 528.506 51.2375 526.724 50.2151Z" fill="#F1F1F1"/>
<path d="M467.156 154.414C471.39 149.677 479.639 145.123 495.593 147.936L554.482 158.319C569.965 161.049 576.24 167.801 578.757 173.607C575.216 171.546 563.217 166.496 524.305 159.635C479.937 151.812 469.256 153.752 467.153 154.434L467.156 154.414Z" fill="#F1F1F1"/>
<path d="M569.741 75.6283C574.057 86.0734 577.386 99.9143 574.534 116.088C570.692 137.878 557.571 152.477 551.569 157.806L520.544 152.335C529.417 149.938 579.582 133.721 569.741 75.6283Z" fill="#BEBDB9"/>
<path d="M523.127 115.137C517.713 95.7039 530.888 78.9688 542.561 64.1413C551.914 52.261 560.302 41.6053 557.393 31.768C557.404 31.7434 557.416 31.7189 557.428 31.6945C560.596 35.4602 562.144 40.508 561.233 45.6777C560.983 47.0905 560.532 48.3868 559.974 49.6035C559.265 51.4412 558.364 53.2247 556.982 54.984L556.962 54.9806L536.589 83.195C530.255 93.5301 526.149 104.885 523.127 115.137Z" fill="#BEBDB9"/>
<path d="M709.282 321.019L769.01 337.023L769.382 335.636C774.957 314.828 753.581 315.212 757.901 292.746L765.813 294.866C767.432 293.152 768.185 290.959 768.784 288.724L761.802 281.401C766.394 279.41 769.606 275.149 770.762 270.834C772.951 262.664 768.082 254.256 759.835 251.964C751.47 249.805 743.049 254.652 740.86 262.821C739.703 267.137 740.355 272.433 743.336 276.453L733.628 279.304C733.029 281.539 732.585 283.815 733.129 286.109L741.042 288.229C733.55 309.845 715.23 298.824 709.654 319.632L709.282 321.019Z" fill="#4B4847"/>
<path d="M662.492 362.677C659.796 358.432 660.882 353.176 653.427 351.33C647.68 349.913 643.841 343.437 641.697 339.738L639.65 335.764C638.222 336.831 634.138 340.335 634.342 345.39C634.54 350.047 637.264 354.039 640.015 357.614C644.424 363.386 652.173 373.387 650.667 384.161L649.24 391.717L597.139 379.122C598.226 374.622 598.095 371.453 598.095 371.453C598.256 366.714 596.709 350.226 598.705 341.967C606.223 310.871 630.517 302.284 649.591 305.554L661.5 298.294C662.861 298.623 663.914 300.404 663.907 302.084L663.735 307.576C664.185 310.551 665.574 312.827 667.837 315.855C670.1 318.883 670.293 321.269 670.538 323.025C671.397 329.265 670.842 332.326 673.358 338.909L679.094 353.23C680.663 356.532 679.452 360.247 676.565 361.688C672.733 363.614 663.068 363.659 662.462 362.686L662.493 362.679L662.492 362.677Z" fill="#4B4847"/>
<path d="M604.187 376.391L646.075 386.517C666.973 391.569 663.51 405.478 663.51 405.478L661.826 412.443L578.333 392.26L580.016 385.294C580.016 385.294 583.291 371.34 604.187 376.391Z" fill="#4B4847"/>
<path opacity="0.5" fill-rule="evenodd" clip-rule="evenodd" d="M649.715 305.477C649.939 305.494 650.058 305.507 650.058 305.507C649.968 305.482 649.874 305.459 649.784 305.435L649.715 305.477ZM597.81 375.361C598.112 373.006 598.095 371.451 598.095 371.451C598.139 370.129 598.051 367.892 597.946 365.173C597.669 358.152 597.267 347.919 598.706 341.965C606.119 311.299 629.848 302.523 648.797 305.422C642.727 305.158 616.593 305.624 610.073 332.595C607.02 345.222 610.184 354.622 613.136 363.389C614.949 368.774 616.682 373.921 616.845 379.432C613.385 378.256 597.811 375.359 597.811 375.359L597.81 375.361ZM651.425 350.588L651.443 350.597L651.422 350.602L651.426 350.589L651.425 350.588ZM651.443 350.597C652.968 350.228 654.285 349.794 655.42 349.419C659.588 348.047 661.292 347.485 661.838 353.933C662.164 357.869 663.158 360.417 663.782 362.018C663.959 362.471 664.106 362.847 664.2 363.16C663.285 363.053 662.641 362.883 662.495 362.663C661.69 361.396 661.223 360.041 660.764 358.712C659.686 355.584 658.661 352.61 653.43 351.316C652.736 351.148 652.073 350.903 651.441 350.597H651.443ZM634.267 331.011C634.855 328.757 636.297 323.972 637.019 326.885C637.741 329.798 639.815 335.846 639.815 335.846C639.815 335.846 639.82 335.947 639.827 336.092L639.65 335.763C638.276 336.786 634.466 340.1 634.382 344.872C633.659 339.192 633.739 333.079 634.267 331.012V331.011Z" fill="#312E2B"/>
<path fill-rule="evenodd" clip-rule="evenodd" d="M713.88 149.004L713.889 148.999L713.878 148.993C713.879 148.996 713.88 149 713.88 149.004ZM687.696 198.49C692.148 196.728 702.481 191.222 709.08 179.792C715.928 167.93 715.074 156.159 713.88 149.004L706.261 153.557C702.534 155.948 698.707 158.679 695.481 161.936C692.305 164.823 686.495 172.201 686.495 172.201L680.46 168.771C684.245 163.641 688.863 158.115 694.522 153.614L711.707 141.961C713.382 140.922 714.996 139.332 715.989 137.612C718.823 132.703 717.057 126.372 712.075 123.495C707.094 120.619 700.728 122.255 697.893 127.165C696.574 129.45 695.72 133.116 695.72 133.116C695.72 133.116 675.456 137.075 665.395 154.501C658.761 165.992 659.2 177.778 659.912 182.449L658.345 181.544C642.936 172.648 637.014 183.049 637.014 183.049L634.025 188.226L695.598 223.776L698.587 218.598C698.587 218.598 704.644 208.275 689.225 199.373L687.696 198.49Z" fill="#4B4847"/>
<path opacity="0.2" d="M751.58 341.872C761.084 341.872 768.789 340.253 768.789 338.255C768.789 336.257 761.084 334.638 751.58 334.638C742.076 334.638 734.371 336.257 734.371 338.255C734.371 340.253 742.076 341.872 751.58 341.872Z" fill="black"/>
<path fill-rule="evenodd" clip-rule="evenodd" d="M256.874 374.429C245.531 378.08 246.609 384.144 247.841 391.075C247.92 391.515 247.998 391.96 248.075 392.406L248.484 394.797L322.319 382.171L321.91 379.78C321.834 379.333 321.76 378.888 321.688 378.447C320.549 371.509 319.566 365.517 307.629 365.748C307.612 365.748 307.594 365.748 307.574 365.749L294.835 323.087C300.179 319.926 302.053 316.503 301.652 311.65L300.548 296.434C298.969 295.955 296.782 295.687 294.719 295.504C292.117 295.308 290.609 295.245 288.703 295.357L286.818 308.731L282.244 309.514L277.504 295.56C274.834 295.589 272.079 295.74 269.48 296.184C266.881 296.629 264.232 297.402 261.705 298.262L261.974 312.981L257.297 313.781L251.075 301.793C247.957 302.326 243.926 304.406 240.432 306.5L244.275 321.463C245.456 325.861 247.634 328.591 254.609 329.967L256.872 374.429H256.874Z" fill="#4B4847"/>
<path opacity="0.5" d="M294.835 323.086L307.597 365.825L307.599 365.835H307.597C305.05 365.95 302.52 366.169 300.009 366.491C299.081 364.174 298.203 361.909 297.352 359.707C289.294 338.893 283.525 323.992 258.867 328.596C267.192 325.353 279.941 322.96 287.395 322.754C295.527 319.565 295.699 304.997 295.596 295.589C297.359 295.765 299.137 296.016 300.486 296.417C300.506 296.423 300.526 296.429 300.546 296.435L301.65 311.652C301.651 311.666 301.652 311.68 301.653 311.694C302.041 316.524 300.16 319.935 294.833 323.087L294.835 323.086Z" fill="#312E2B"/>
<defs>
<linearGradient id="paint0_linear_755_10540" x1="609.828" y1="30.4626" x2="568.774" y2="170.259" gradientUnits="userSpaceOnUse">
<stop stop-color="#B2E068"/>
<stop offset="0.033" stop-color="#B2E068" stop-opacity="0.938"/>
<stop offset="0.177" stop-color="#B2E068" stop-opacity="0.692"/>
<stop offset="0.322" stop-color="#B2E068" stop-opacity="0.48"/>
<stop offset="0.465" stop-color="#B2E068" stop-opacity="0.307"/>
<stop offset="0.605" stop-color="#B2E068" stop-opacity="0.173"/>
<stop offset="0.743" stop-color="#B2E068" stop-opacity="0.077"/>
<stop offset="0.876" stop-color="#B2E068" stop-opacity="0.019"/>
<stop offset="1" stop-color="#B2E068" stop-opacity="0"/>
</linearGradient>
<linearGradient id="paint1_linear_755_10540" x1="170.15" y1="101.963" x2="249.038" y2="206.97" gradientUnits="userSpaceOnUse">
<stop stop-color="white"/>
<stop offset="0.097" stop-color="white" stop-opacity="0.824"/>
<stop offset="0.231" stop-color="white" stop-opacity="0.608"/>
<stop offset="0.367" stop-color="white" stop-opacity="0.422"/>
<stop offset="0.5" stop-color="white" stop-opacity="0.27"/>
<stop offset="0.631" stop-color="white" stop-opacity="0.152"/>
<stop offset="0.76" stop-color="white" stop-opacity="0.068"/>
<stop offset="0.884" stop-color="white" stop-opacity="0.017"/>
<stop offset="1" stop-color="white" stop-opacity="0"/>
</linearGradient>
<linearGradient id="paint2_linear_755_10540" x1="350.07" y1="99.6477" x2="415.879" y2="187.247" gradientUnits="userSpaceOnUse">
<stop stop-color="#B2E068"/>
<stop offset="0.033" stop-color="#B2E068" stop-opacity="0.938"/>
<stop offset="0.177" stop-color="#B2E068" stop-opacity="0.692"/>
<stop offset="0.322" stop-color="#B2E068" stop-opacity="0.48"/>
<stop offset="0.465" stop-color="#B2E068" stop-opacity="0.307"/>
<stop offset="0.605" stop-color="#B2E068" stop-opacity="0.173"/>
<stop offset="0.743" stop-color="#B2E068" stop-opacity="0.077"/>
<stop offset="0.876" stop-color="#B2E068" stop-opacity="0.019"/>
<stop offset="1" stop-color="#B2E068" stop-opacity="0"/>
</linearGradient>
<linearGradient id="paint3_linear_755_10540" x1="651.909" y1="80.231" x2="563.798" y2="261.51" gradientUnits="userSpaceOnUse">
<stop stop-color="white"/>
<stop offset="0.097" stop-color="white" stop-opacity="0.824"/>
<stop offset="0.231" stop-color="white" stop-opacity="0.608"/>
<stop offset="0.367" stop-color="white" stop-opacity="0.422"/>
<stop offset="0.5" stop-color="white" stop-opacity="0.27"/>
<stop offset="0.631" stop-color="white" stop-opacity="0.152"/>
<stop offset="0.76" stop-color="white" stop-opacity="0.068"/>
<stop offset="0.884" stop-color="white" stop-opacity="0.017"/>
<stop offset="1" stop-color="white" stop-opacity="0"/>
</linearGradient>
<linearGradient id="paint4_linear_755_10540" x1="767.596" y1="211.681" x2="663.68" y2="287.323" gradientUnits="userSpaceOnUse">
<stop stop-color="#B2E068"/>
<stop offset="0.033" stop-color="#B2E068" stop-opacity="0.938"/>
<stop offset="0.177" stop-color="#B2E068" stop-opacity="0.692"/>
<stop offset="0.322" stop-color="#B2E068" stop-opacity="0.48"/>
<stop offset="0.465" stop-color="#B2E068" stop-opacity="0.307"/>
<stop offset="0.605" stop-color="#B2E068" stop-opacity="0.173"/>
<stop offset="0.743" stop-color="#B2E068" stop-opacity="0.077"/>
<stop offset="0.876" stop-color="#B2E068" stop-opacity="0.019"/>
<stop offset="1" stop-color="#B2E068" stop-opacity="0"/>
</linearGradient>
<linearGradient id="paint5_linear_755_10540" x1="245.059" y1="250.106" x2="316.664" y2="296.585" gradientUnits="userSpaceOnUse">
<stop stop-color="white"/>
<stop offset="0.097" stop-color="white" stop-opacity="0.824"/>
<stop offset="0.231" stop-color="white" stop-opacity="0.608"/>
<stop offset="0.367" stop-color="white" stop-opacity="0.422"/>
<stop offset="0.5" stop-color="white" stop-opacity="0.27"/>
<stop offset="0.631" stop-color="white" stop-opacity="0.152"/>
<stop offset="0.76" stop-color="white" stop-opacity="0.068"/>
<stop offset="0.884" stop-color="white" stop-opacity="0.017"/>
<stop offset="1" stop-color="white" stop-opacity="0"/>
</linearGradient>
<linearGradient id="paint6_linear_755_10540" x1="682.986" y1="184.854" x2="403.828" y2="469.036" gradientUnits="userSpaceOnUse">
<stop stop-color="white"/>
<stop offset="0.097" stop-color="white" stop-opacity="0.824"/>
<stop offset="0.231" stop-color="white" stop-opacity="0.608"/>
<stop offset="0.367" stop-color="white" stop-opacity="0.422"/>
<stop offset="0.5" stop-color="white" stop-opacity="0.27"/>
<stop offset="0.631" stop-color="white" stop-opacity="0.152"/>
<stop offset="0.76" stop-color="white" stop-opacity="0.068"/>
<stop offset="0.884" stop-color="white" stop-opacity="0.017"/>
<stop offset="1" stop-color="white" stop-opacity="0"/>
</linearGradient>
<linearGradient id="paint7_linear_755_10540" x1="357.346" y1="241.725" x2="849.805" y2="854.246" gradientUnits="userSpaceOnUse">
<stop stop-color="white"/>
<stop offset="0.097" stop-color="white" stop-opacity="0.824"/>
<stop offset="0.231" stop-color="white" stop-opacity="0.608"/>
<stop offset="0.367" stop-color="white" stop-opacity="0.422"/>
<stop offset="0.5" stop-color="white" stop-opacity="0.27"/>
<stop offset="0.631" stop-color="white" stop-opacity="0.152"/>
<stop offset="0.76" stop-color="white" stop-opacity="0.068"/>
<stop offset="0.884" stop-color="white" stop-opacity="0.017"/>
<stop offset="1" stop-color="white" stop-opacity="0"/>
</linearGradient>
<linearGradient id="paint8_linear_755_10540" x1="531.241" y1="-53.772" x2="508.021" y2="400.79" gradientUnits="userSpaceOnUse">
<stop stop-color="white"/>
<stop offset="0.097" stop-color="white" stop-opacity="0.824"/>
<stop offset="0.231" stop-color="white" stop-opacity="0.608"/>
<stop offset="0.367" stop-color="white" stop-opacity="0.422"/>
<stop offset="0.5" stop-color="white" stop-opacity="0.27"/>
<stop offset="0.631" stop-color="white" stop-opacity="0.152"/>
<stop offset="0.76" stop-color="white" stop-opacity="0.068"/>
<stop offset="0.884" stop-color="white" stop-opacity="0.017"/>
<stop offset="1" stop-color="white" stop-opacity="0"/>
</linearGradient>
<linearGradient id="paint9_linear_755_10540" x1="214.694" y1="164.288" x2="462.83" y2="339.617" gradientUnits="userSpaceOnUse">
<stop stop-color="white"/>
<stop offset="0.097" stop-color="white" stop-opacity="0.824"/>
<stop offset="0.231" stop-color="white" stop-opacity="0.608"/>
<stop offset="0.367" stop-color="white" stop-opacity="0.422"/>
<stop offset="0.5" stop-color="white" stop-opacity="0.27"/>
<stop offset="0.631" stop-color="white" stop-opacity="0.152"/>
<stop offset="0.76" stop-color="white" stop-opacity="0.068"/>
<stop offset="0.884" stop-color="white" stop-opacity="0.017"/>
<stop offset="1" stop-color="white" stop-opacity="0"/>
</linearGradient>
<linearGradient id="paint10_linear_755_10540" x1="605.214" y1="322.189" x2="662.856" y2="455.148" gradientUnits="userSpaceOnUse">
<stop stop-color="#B2E068"/>
<stop offset="0.033" stop-color="#B6E068" stop-opacity="0.938"/>
<stop offset="0.177" stop-color="#C8E068" stop-opacity="0.692"/>
<stop offset="0.322" stop-color="#D8E169" stop-opacity="0.48"/>
<stop offset="0.465" stop-color="#E5E169" stop-opacity="0.307"/>
<stop offset="0.605" stop-color="#EFE169" stop-opacity="0.173"/>
<stop offset="0.743" stop-color="#F6E169" stop-opacity="0.077"/>
<stop offset="0.876" stop-color="#FAE169" stop-opacity="0.019"/>
<stop offset="1" stop-color="#FCE26A" stop-opacity="0"/>
</linearGradient>
<linearGradient id="paint11_linear_755_10540" x1="371.874" y1="330.596" x2="302.48" y2="453.196" gradientUnits="userSpaceOnUse">
<stop stop-color="#B2E068"/>
<stop offset="0.033" stop-color="#B6E068" stop-opacity="0.938"/>
<stop offset="0.177" stop-color="#C8E068" stop-opacity="0.692"/>
<stop offset="0.322" stop-color="#D8E169" stop-opacity="0.48"/>
<stop offset="0.465" stop-color="#E5E169" stop-opacity="0.307"/>
<stop offset="0.605" stop-color="#EFE169" stop-opacity="0.173"/>
<stop offset="0.743" stop-color="#F6E169" stop-opacity="0.077"/>
<stop offset="0.876" stop-color="#FAE169" stop-opacity="0.019"/>
<stop offset="1" stop-color="#FCE26A" stop-opacity="0"/>
</linearGradient>
</defs>
</svg>
