<svg width="25" height="24" viewBox="0 0 25 24" fill="none" xmlns="http://www.w3.org/2000/svg">
<path d="M12.5187 18.5547C10.644 17.368 10.2867 15.936 10.1747 15.1627H11.444C11.444 15.1627 11.9133 14.5333 11.9133 13.84V13.5653L10.4787 12.6293C11.0573 12.0507 11.4147 11.2507 11.4147 10.3973C11.4147 8.68799 10.0093 7.30933 8.30002 7.30933C6.59068 7.30933 5.18535 8.68799 5.18535 10.3973C5.18535 11.2507 5.54268 12.0507 6.12135 12.6293L4.68668 13.5653V13.84C4.68668 14.5013 5.15601 15.1627 5.15601 15.1627H6.42535C6.34268 15.9333 5.95602 17.368 4.08135 18.5547C3.00668 19.2427 2.39868 20.512 2.39868 22.056C2.39868 22.3307 2.58268 22.528 2.89468 22.552C3.20668 22.576 5.40668 22.6667 8.29735 22.6667C11.188 22.6667 13.412 22.584 13.7293 22.552C14.044 22.52 14.2253 22.3307 14.2253 22.056C14.2253 20.512 13.5907 19.2453 12.516 18.5547H12.5187Z" fill="#E8E6E1"/>
<path d="M6.124 12.6267L4.68933 13.5627V13.568L5.92666 13.576C5.99066 13.1227 6.11333 12.632 6.12133 12.624L6.124 12.6267Z" fill="#F1F1F1"/>
<path d="M5.12931 19.008C5.97731 18.3893 6.15597 16.4853 6.17997 16.168C5.89464 16.9013 5.30531 17.7786 4.08397 18.552C3.00931 19.24 2.40131 20.5093 2.40131 22.0533C2.93464 20.296 3.73731 20.0266 5.12931 19.008Z" fill="#F1F1F1"/>
<path d="M10.38 18.0934C11.3613 19.0134 12.8173 19.3174 13.4253 19.408C13.1747 19.0694 12.8707 18.7814 12.5187 18.5547C10.644 17.368 10.2867 15.936 10.1747 15.1627H11.444C11.444 15.1627 11.9133 14.5334 11.9133 13.84V13.5654L10.4787 12.6294C11.0573 12.0507 11.4147 11.2507 11.4147 10.3974C11.4147 9.10405 10.6093 8.00005 9.47866 7.54138C10.5347 8.18405 11.2787 10.0027 10.3107 11.376C9.588 12.4 8.17466 12.6427 8.17466 12.6427H9.90533C9.924 12.656 10.7587 13.9814 9.62266 14.7227L4.91333 14.7307C5.03333 14.9894 5.156 15.1627 5.15866 15.168H7.476C7.476 15.168 9.06266 16.8614 10.38 18.0987V18.0934Z" fill="#B3ACA8"/>
<path d="M10.756 12.176C10.7507 12.3227 10.756 13.6587 12.1347 13.664C12.732 13.664 13.2254 13.4934 13.756 13.2427L21.988 9.25871C21.988 9.25871 22.6147 8.95471 22.6147 8.21871V3.21604C22.6147 3.21604 22.5587 2.43204 21.66 2.25604C19.7054 1.87737 16.316 1.33337 14.5267 1.33337C12.2067 1.33337 11.724 1.50937 10.2814 1.90137C9.08669 2.22937 7.60669 3.09071 7.60669 3.09071C7.60669 3.09071 5.06802 4.28271 4.21735 5.33871C3.41469 6.33071 2.39069 9.22937 2.39069 9.98671C2.39069 10.5974 3.90269 10.6107 4.30002 10.4987C5.12935 10.256 6.52669 7.23737 6.52669 7.23737C6.52669 7.23737 9.14002 5.98404 10.4867 5.98404C11.0654 5.98404 12.508 5.97871 13.1827 5.97871C13.8574 5.97871 14.7827 6.67471 15.1667 7.46137C15.468 8.07737 11.916 10.6214 11.4334 10.9227C11.076 11.1467 10.9 11.5894 10.82 11.8827L10.7587 12.1787L10.756 12.176Z" fill="#D5A47D"/>
<path d="M6.52133 7.23465C6.52133 7.23465 9.13466 5.98132 10.4813 5.98132C11.06 5.98132 12.5027 5.97598 13.1773 5.97598C13.292 5.97598 13.4147 5.99732 13.54 6.03465C14.1507 6.21598 14.8413 6.80798 15.1613 7.46132C15.164 7.46932 15.1693 7.47732 15.1693 7.48532C15.1773 7.50665 15.18 7.53332 15.1773 7.55732C15.204 7.46932 15.4547 6.58665 15.3373 6.03998C15.2067 5.42932 14.6973 4.42132 13.548 4.45865C11.524 4.52532 9.99866 4.70398 9.99866 4.70398L5.9 6.19732C5.9 6.19732 5.516 7.75465 4.63066 9.47998C4.28133 10.16 3.97466 10.4373 3.76666 10.5493C3.932 10.5493 4.08133 10.536 4.19333 10.5173C4.20933 10.5146 4.22266 10.512 4.236 10.5093C4.23866 10.5093 4.24133 10.5093 4.244 10.5093C4.25733 10.5066 4.27066 10.504 4.28133 10.4986C4.28133 10.4986 4.284 10.4986 4.28666 10.4986C5.116 10.256 6.51333 7.23732 6.51333 7.23732L6.52133 7.23465Z" fill="#8D694B"/>
<path d="M19.6413 9.02133C18.5427 9.65867 11.7587 13.3573 11.4573 13.52C11.636 13.608 11.8547 13.664 12.1347 13.664C12.732 13.664 13.2253 13.4933 13.756 13.2427L21.988 9.26133C21.988 9.26133 22.1267 9.19467 22.2707 9.048C22.2813 9.03733 22.2947 9.024 22.3053 9.01067C22.3373 8.976 22.3667 8.93867 22.3987 8.896C22.4067 8.88267 22.4173 8.86933 22.4253 8.856C22.4493 8.82133 22.4707 8.784 22.492 8.74133C22.5053 8.71733 22.516 8.69067 22.5267 8.664C22.54 8.632 22.5507 8.6 22.5613 8.56533C22.5693 8.54133 22.5747 8.52 22.58 8.496C22.5987 8.41333 22.612 8.32 22.612 8.22133V4.25867C22.22 7.10667 21.0067 8.22933 19.6387 9.02133H19.6413Z" fill="#8D694B"/>
<path d="M8.30009 7.30664C6.59076 7.30664 5.18542 8.68531 5.18542 10.3946C5.18542 10.7173 5.23609 11.032 5.33209 11.3306C5.54809 8.72264 7.21476 7.43731 8.30009 7.30664Z" fill="#F1F1F1"/>
</svg>
