<svg width="25" height="24" viewBox="0 0 25 24" fill="none" xmlns="http://www.w3.org/2000/svg">
<path d="M18.25 10C20.7167 10 22.25 8.46667 22.25 6C22.25 3.53333 20.7167 2 18.25 2C15.7833 2 14.25 3.53333 14.25 6C14.25 8.46667 15.7833 10 18.25 10ZM6.25 16C8.71667 16 10.25 14.4667 10.25 12C10.25 9.53333 8.71667 8 6.25 8C3.78333 8 2.25 9.53333 2.25 12C2.25 14.4667 3.78333 16 6.25 16ZM18.25 22C20.6833 22 22.25 20.4667 22.25 18C22.25 15.5333 20.7167 14 18.25 14C15.7833 14 14.25 15.5333 14.25 18C14.25 20.4667 15.8167 22 18.25 22ZM18.6973 17.1057L6.69733 11.1057L5.803 12.8947L17.803 18.8947L18.6973 17.1057ZM6.69733 12.8943L18.6973 6.89433L17.803 5.10533L5.803 11.1053L6.69733 12.8943Z" fill="white" fill-opacity="0.5"/>
</svg>
