<svg width="406" height="136" viewBox="0 0 406 136" fill="none" xmlns="http://www.w3.org/2000/svg">
<path d="M72.2604 1.6344H96.0476C111.48 1.6344 121.37 9.37678 121.37 23.055C121.37 36.7332 111.48 44.4756 96.0476 44.4756H89.2269V61.853H72.2604V1.6344ZM95.0245 30.0231C101.163 30.0231 104.318 28.2166 104.318 23.055C104.318 17.8934 101.163 16.0868 95.0245 16.0868H89.2269V30.0231H95.0245Z" fill="white"/>
<path d="M169.528 48.2608V61.853H128.604V1.6344H169.016V15.8288H145.314V25.6358H166.714V37.5935H145.314V48.2608H169.528Z" fill="white"/>
<path d="M179.549 1.6344H193.446L219.535 33.6363V1.6344H236.076V61.853H222.178L196.089 29.8511V61.853H179.549V1.6344Z" fill="white"/>
<path d="M248.996 1.6344H265.877V61.853H248.996V1.6344Z" fill="white"/>
<path d="M278.882 1.6344H292.779L318.869 33.6363V1.6344H335.409V61.853H321.512L295.422 29.8511V61.853H278.882V1.6344Z" fill="white"/>
<path d="M343.942 31.3136C343.942 9.80702 360.993 0 377.875 0C384.951 0 391.346 1.54848 396.632 4.2153V18.4957C391.26 16.259 384.951 14.6245 378.727 14.6245C368.667 14.6245 360.141 19.528 360.141 31.7438C360.141 41.6368 366.962 48.3469 376.511 48.3469C383.075 48.3469 390.322 45.7661 390.749 36.9054H373.612V24.5176H404.305C405.158 27.8726 405.669 31.2276 405.669 34.4966C405.669 49.9814 395.694 63.0574 376.511 63.0574C356.304 63.0574 343.942 49.2072 343.942 31.3136Z" fill="white"/>
<path d="M17.7141 60.1456C18.711 59.1993 19.6161 58.1604 20.4031 57.0155C22.1411 54.4877 23.2625 51.5826 23.6757 48.532H18.2651C17.1108 46.8446 16.4221 44.8858 16.2647 42.841V41.6499L22.364 37.514C19.8391 34.9729 18.4093 31.5252 18.3962 27.9253C18.3962 24.3916 19.7866 20.9969 22.2657 18.5021C24.7447 16.0008 28.1026 14.5979 31.6048 14.5979C35.107 14.5979 38.4715 16.0008 40.944 18.5021C43.423 21.0035 44.8134 24.3916 44.8134 27.9253C44.8265 29.7187 44.4855 31.4988 43.8166 33.1597C43.1476 34.8207 42.1573 36.3361 40.9112 37.6133L47.1417 41.6499V42.841C47.017 44.8858 46.3219 46.8578 45.1413 48.532H39.7635C40.1832 51.5562 41.285 54.448 42.9902 56.9692C43.7641 58.114 44.6495 59.1596 45.6332 60.1059C56.3234 55.2355 63.3343 44.7336 63.3343 31.737C63.3343 13.6714 49.7781 0.42334 31.6179 0.42334C13.4577 0.42334 -7.62939e-05 13.678 -7.62939e-05 31.7436C-7.62939e-05 44.7667 7.00429 55.2884 17.7141 60.1456Z" fill="white"/>
<path d="M35.5068 126.031C28.8845 126.031 23.1076 124.998 18.1761 122.931C13.2446 120.818 9.41682 117.835 6.69275 113.984C4.01565 110.133 2.6771 105.6 2.6771 100.387C2.6771 95.1739 4.01565 90.6416 6.69275 86.7903C9.41682 82.9391 13.2446 79.9802 18.1761 77.9136C23.1076 75.8001 28.8845 74.7434 35.5068 74.7434C42.1291 74.7434 47.8825 75.8001 52.767 77.9136C57.6985 79.9802 61.5029 82.9391 64.18 86.7903C66.904 90.6416 68.266 95.1739 68.266 100.387C68.266 105.6 66.904 110.133 64.18 113.984C61.5029 117.835 57.6985 120.818 52.767 122.931C47.8825 124.998 42.1291 126.031 35.5068 126.031ZM35.5068 114.407C39.3111 114.407 42.6457 113.82 45.5107 112.645C48.3757 111.471 50.5831 109.851 52.133 107.784C53.7299 105.671 54.5283 103.205 54.5283 100.387C54.5283 97.5692 53.7299 95.1269 52.133 93.0604C50.5831 90.9469 48.3757 89.303 45.5107 88.1289C42.6457 86.9547 39.3111 86.3676 35.5068 86.3676C31.7025 86.3676 28.3444 86.9547 25.4325 88.1289C22.5675 89.303 20.3366 90.9469 18.7397 93.0604C17.1428 95.1269 16.3444 97.5692 16.3444 100.387C16.3444 103.205 17.1428 105.671 18.7397 107.784C20.3366 109.851 22.5675 111.471 25.4325 112.645C28.3444 113.82 31.7025 114.407 35.5068 114.407ZM72.3522 135.612C67.5616 135.659 63.5224 135.354 60.2347 134.696C56.9471 134.039 53.9412 132.935 51.2172 131.385C48.5401 129.835 45.5577 127.651 42.27 124.833L48.9628 117.084C51.6868 119.432 54.0586 121.193 56.0782 122.368C58.0978 123.495 60.3287 124.293 62.7709 124.763C65.2132 125.186 68.3835 125.373 72.2817 125.326L72.3522 135.612ZM107.002 126.031C100.943 126.031 95.8239 125.139 91.6439 123.354C87.4639 121.569 84.2701 118.775 82.0627 114.97C79.8553 111.166 78.7515 106.281 78.7515 100.317V75.7297H92.2075V98.6259C92.2075 102.43 92.7711 105.483 93.8983 107.784C95.0725 110.086 96.7398 111.753 98.9002 112.786C101.108 113.773 103.808 114.266 107.002 114.266C110.29 114.266 113.014 113.773 115.174 112.786C117.382 111.753 119.049 110.086 120.176 107.784C121.35 105.483 121.937 102.43 121.937 98.6259V75.7297H135.252V100.317C135.252 106.281 134.125 111.166 131.871 114.97C129.663 118.775 126.47 121.569 122.29 123.354C118.11 125.139 113.014 126.031 107.002 126.031ZM147.992 75.7297H161.448V125.045H147.992V75.7297ZM173.78 116.238L210.203 81.577L211.823 86.8608H173.78V75.7297H223.307V84.5359L186.743 119.197L185.123 113.914H223.448V125.045H173.78V116.238Z" fill="#81B64C"/>
</svg>
