<svg width="40" height="40" viewBox="0 0 40 40" fill="none" xmlns="http://www.w3.org/2000/svg">
<rect width="40" height="40" rx="20" fill="white" fill-opacity="0.9"/>
<g clip-path="url(#clip0_850_27428)">
<path d="M20 32C26.6274 32 32 26.6274 32 20C32 13.3726 26.6274 8 20 8C13.3726 8 8 13.3726 8 20C8 26.6274 13.3726 32 20 32Z" fill="url(#paint0_linear_850_27428)"/>
<path d="M16.1228 20.8771L17.5465 24.8177C17.5465 24.8177 17.7245 25.1864 17.9151 25.1864C18.1057 25.1864 20.9406 22.2372 20.9406 22.2372L24.0931 16.1482L16.1736 19.8599L16.1228 20.8771Z" fill="#C8DAEA"/>
<path d="M18.0105 21.8877L17.7372 24.7923C17.7372 24.7923 17.6228 25.6823 18.5126 24.7923C19.4024 23.9023 20.2541 23.216 20.2541 23.216" fill="#A9C6D8"/>
<path d="M16.1487 21.0178L13.2201 20.0636C13.2201 20.0636 12.8701 19.9216 12.9828 19.5996C13.006 19.5332 13.0528 19.4767 13.1928 19.3796C13.8417 18.9273 25.2034 14.8436 25.2034 14.8436C25.2034 14.8436 25.5242 14.7355 25.7134 14.8074C25.7602 14.8219 25.8023 14.8485 25.8355 14.8846C25.8686 14.9208 25.8915 14.965 25.9019 15.0129C25.9224 15.0975 25.9309 15.1845 25.9273 15.2714C25.9264 15.3466 25.9173 15.4163 25.9104 15.5256C25.8412 16.6421 23.7704 24.9749 23.7704 24.9749C23.7704 24.9749 23.6465 25.4625 23.2026 25.4792C23.0935 25.4827 22.9848 25.4642 22.883 25.4249C22.7812 25.3855 22.6884 25.326 22.6101 25.25C21.739 24.5007 18.7282 22.4773 18.0629 22.0323C18.0479 22.0221 18.0353 22.0087 18.0258 21.9932C18.0164 21.9777 18.0104 21.9603 18.0083 21.9423C17.999 21.8954 18.05 21.8373 18.05 21.8373C18.05 21.8373 23.2926 17.1773 23.4321 16.6881C23.4429 16.6502 23.4021 16.6315 23.3473 16.6481C22.9991 16.7762 16.9629 20.5881 16.2967 21.0088C16.2488 21.0233 16.1981 21.0264 16.1487 21.0178Z" fill="white"/>
</g>
<defs>
<linearGradient id="paint0_linear_850_27428" x1="20" y1="32" x2="20" y2="8" gradientUnits="userSpaceOnUse">
<stop stop-color="#1D93D2"/>
<stop offset="1" stop-color="#38B0E3"/>
</linearGradient>
<clipPath id="clip0_850_27428">
<rect width="24" height="24" fill="white" transform="translate(8 8)"/>
</clipPath>
</defs>
</svg>
