<svg width="41" height="40" viewBox="0 0 41 40" fill="none" xmlns="http://www.w3.org/2000/svg">
<rect x="0.199951" width="40" height="40" rx="20" fill="white" fill-opacity="0.9"/>
<path d="M9.97607 30.0432L11.4059 24.8325C10.5226 23.304 10.0586 21.57 10.0607 19.8054C10.0631 14.2609 14.5837 9.75024 20.139 9.75024C22.8348 9.75161 25.3651 10.7987 27.2681 12.6994C29.171 14.6001 30.2181 17.1265 30.2171 19.8135C30.2146 25.3575 25.6933 29.869 20.1388 29.869H20.1345C18.4479 29.8683 16.7907 29.446 15.3186 28.6449L9.97607 30.0432Z" fill="white"/>
<path d="M20.1418 11.4488C15.5212 11.4488 11.7636 15.1978 11.762 19.8059C11.7597 21.3795 12.2037 22.9215 13.0425 24.2538L13.2418 24.5701L12.3955 27.654L15.5659 26.8243L15.872 27.0053C17.1578 27.7669 18.632 28.1697 20.1355 28.1705H20.1386C24.7556 28.1705 28.5132 24.421 28.515 19.8126C28.5184 18.7142 28.3036 17.6261 27.8829 16.6111C27.4621 15.5961 26.8438 14.6746 26.0638 13.8997C25.2881 13.1206 24.3653 12.5029 23.3488 12.0822C22.3322 11.6614 21.2422 11.4462 20.1418 11.4488Z" fill="url(#paint0_linear_850_27419)"/>
<path fill-rule="evenodd" clip-rule="evenodd" d="M17.6198 15.6017C17.4311 15.1832 17.2324 15.1747 17.0531 15.1675L16.5705 15.1616C16.4025 15.1616 16.1297 15.2245 15.899 15.4761C15.6683 15.7276 15.0176 16.3356 15.0176 17.5721C15.0176 18.8087 15.92 20.0035 16.0457 20.1714C16.1714 20.3393 17.7877 22.9577 20.3474 23.9652C22.4744 24.8024 22.9073 24.6359 23.3691 24.594C23.831 24.5522 24.859 23.9861 25.0687 23.3992C25.2784 22.8123 25.2786 22.3095 25.2157 22.2043C25.1528 22.0992 24.9849 22.0367 24.7329 21.9109C24.4808 21.7852 23.243 21.1772 23.0122 21.0933C22.7814 21.0093 22.6136 20.9676 22.4455 21.2192C22.2775 21.4707 21.7955 22.0366 21.6485 22.2043C21.5015 22.3721 21.3548 22.3931 21.1028 22.2675C20.8507 22.1418 20.0399 21.8763 19.0778 21.0201C18.3292 20.3539 17.8239 19.5312 17.6768 19.2798C17.5297 19.0284 17.6612 18.8922 17.7875 18.767C17.9005 18.6543 18.0392 18.4735 18.1654 18.3268C18.2915 18.1801 18.333 18.0752 18.4169 17.9077C18.5007 17.7403 18.4589 17.5932 18.3959 17.4675C18.3329 17.3419 17.8436 16.0988 17.6198 15.6017Z" fill="white"/>
<defs>
<linearGradient id="paint0_linear_850_27419" x1="19.9679" y1="12.4522" x2="20.0525" y2="26.742" gradientUnits="userSpaceOnUse">
<stop stop-color="#57D163"/>
<stop offset="1" stop-color="#23B33A"/>
</linearGradient>
</defs>
</svg>
